G04 #@! TF.GenerationSoftware,KiCad,Pcbnew,5.0.2+dfsg1-1~bpo9+1*
G04 #@! TF.CreationDate,2019-10-18T22:52:31+02:00*
G04 #@! TF.ProjectId,busboard,62757362-6f61-4726-942e-6b696361645f,rev?*
G04 #@! TF.SameCoordinates,Original*
G04 #@! TF.FileFunction,Copper,L2,Bot*
G04 #@! TF.FilePolarity,Positive*
%FSLAX46Y46*%
G04 Gerber Fmt 4.6, Leading zero omitted, Abs format (unit mm)*
G04 Created by KiCad (PCBNEW 5.0.2+dfsg1-1~bpo9+1) date Fri 18 Oct 2019 10:52:31 PM CEST*
%MOMM*%
%LPD*%
G01*
G04 APERTURE LIST*
G04 #@! TA.AperFunction,ComponentPad*
%ADD10O,1.727200X1.727200*%
G04 #@! TD*
G04 #@! TA.AperFunction,ComponentPad*
%ADD11R,1.727200X1.727200*%
G04 #@! TD*
G04 #@! TA.AperFunction,ComponentPad*
%ADD12R,2.100000X2.100000*%
G04 #@! TD*
G04 #@! TA.AperFunction,ComponentPad*
%ADD13C,2.100000*%
G04 #@! TD*
G04 #@! TA.AperFunction,ComponentPad*
%ADD14C,1.800000*%
G04 #@! TD*
G04 #@! TA.AperFunction,ComponentPad*
%ADD15R,1.800000X1.800000*%
G04 #@! TD*
G04 #@! TA.AperFunction,ComponentPad*
%ADD16O,1.600000X1.600000*%
G04 #@! TD*
G04 #@! TA.AperFunction,ComponentPad*
%ADD17C,1.600000*%
G04 #@! TD*
G04 #@! TA.AperFunction,Conductor*
%ADD18C,0.250000*%
G04 #@! TD*
G04 #@! TA.AperFunction,Conductor*
%ADD19C,0.254000*%
G04 #@! TD*
G04 APERTURE END LIST*
D10*
G04 #@! TO.P,J1,16*
G04 #@! TO.N,/INT_GATE*
X66460000Y-75280000D03*
G04 #@! TO.P,J1,15*
X63920000Y-75280000D03*
G04 #@! TO.P,J1,14*
G04 #@! TO.N,/INT_CV*
X66460000Y-72740000D03*
G04 #@! TO.P,J1,13*
X63920000Y-72740000D03*
G04 #@! TO.P,J1,12*
G04 #@! TO.N,+5V*
X66460000Y-70200000D03*
G04 #@! TO.P,J1,11*
X63920000Y-70200000D03*
G04 #@! TO.P,J1,10*
G04 #@! TO.N,+12V*
X66460000Y-67660000D03*
G04 #@! TO.P,J1,9*
X63920000Y-67660000D03*
G04 #@! TO.P,J1,8*
G04 #@! TO.N,GND*
X66460000Y-65120000D03*
G04 #@! TO.P,J1,7*
X63920000Y-65120000D03*
G04 #@! TO.P,J1,6*
X66460000Y-62580000D03*
G04 #@! TO.P,J1,5*
X63920000Y-62580000D03*
G04 #@! TO.P,J1,4*
X66460000Y-60040000D03*
G04 #@! TO.P,J1,3*
X63920000Y-60040000D03*
G04 #@! TO.P,J1,2*
G04 #@! TO.N,-12V*
X66460000Y-57500000D03*
D11*
G04 #@! TO.P,J1,1*
X63920000Y-57500000D03*
G04 #@! TD*
D10*
G04 #@! TO.P,J2,16*
G04 #@! TO.N,/INT_GATE*
X81540000Y-75280000D03*
G04 #@! TO.P,J2,15*
X79000000Y-75280000D03*
G04 #@! TO.P,J2,14*
G04 #@! TO.N,/INT_CV*
X81540000Y-72740000D03*
G04 #@! TO.P,J2,13*
X79000000Y-72740000D03*
G04 #@! TO.P,J2,12*
G04 #@! TO.N,+5V*
X81540000Y-70200000D03*
G04 #@! TO.P,J2,11*
X79000000Y-70200000D03*
G04 #@! TO.P,J2,10*
G04 #@! TO.N,+12V*
X81540000Y-67660000D03*
G04 #@! TO.P,J2,9*
X79000000Y-67660000D03*
G04 #@! TO.P,J2,8*
G04 #@! TO.N,GND*
X81540000Y-65120000D03*
G04 #@! TO.P,J2,7*
X79000000Y-65120000D03*
G04 #@! TO.P,J2,6*
X81540000Y-62580000D03*
G04 #@! TO.P,J2,5*
X79000000Y-62580000D03*
G04 #@! TO.P,J2,4*
X81540000Y-60040000D03*
G04 #@! TO.P,J2,3*
X79000000Y-60040000D03*
G04 #@! TO.P,J2,2*
G04 #@! TO.N,-12V*
X81540000Y-57500000D03*
D11*
G04 #@! TO.P,J2,1*
X79000000Y-57500000D03*
G04 #@! TD*
D10*
G04 #@! TO.P,J3,16*
G04 #@! TO.N,/INT_GATE*
X96540000Y-75280000D03*
G04 #@! TO.P,J3,15*
X94000000Y-75280000D03*
G04 #@! TO.P,J3,14*
G04 #@! TO.N,/INT_CV*
X96540000Y-72740000D03*
G04 #@! TO.P,J3,13*
X94000000Y-72740000D03*
G04 #@! TO.P,J3,12*
G04 #@! TO.N,+5V*
X96540000Y-70200000D03*
G04 #@! TO.P,J3,11*
X94000000Y-70200000D03*
G04 #@! TO.P,J3,10*
G04 #@! TO.N,+12V*
X96540000Y-67660000D03*
G04 #@! TO.P,J3,9*
X94000000Y-67660000D03*
G04 #@! TO.P,J3,8*
G04 #@! TO.N,GND*
X96540000Y-65120000D03*
G04 #@! TO.P,J3,7*
X94000000Y-65120000D03*
G04 #@! TO.P,J3,6*
X96540000Y-62580000D03*
G04 #@! TO.P,J3,5*
X94000000Y-62580000D03*
G04 #@! TO.P,J3,4*
X96540000Y-60040000D03*
G04 #@! TO.P,J3,3*
X94000000Y-60040000D03*
G04 #@! TO.P,J3,2*
G04 #@! TO.N,-12V*
X96540000Y-57500000D03*
D11*
G04 #@! TO.P,J3,1*
X94000000Y-57500000D03*
G04 #@! TD*
D10*
G04 #@! TO.P,J4,16*
G04 #@! TO.N,/INT_GATE*
X111540000Y-75200000D03*
G04 #@! TO.P,J4,15*
X109000000Y-75200000D03*
G04 #@! TO.P,J4,14*
G04 #@! TO.N,/INT_CV*
X111540000Y-72660000D03*
G04 #@! TO.P,J4,13*
X109000000Y-72660000D03*
G04 #@! TO.P,J4,12*
G04 #@! TO.N,+5V*
X111540000Y-70120000D03*
G04 #@! TO.P,J4,11*
X109000000Y-70120000D03*
G04 #@! TO.P,J4,10*
G04 #@! TO.N,+12V*
X111540000Y-67580000D03*
G04 #@! TO.P,J4,9*
X109000000Y-67580000D03*
G04 #@! TO.P,J4,8*
G04 #@! TO.N,GND*
X111540000Y-65040000D03*
G04 #@! TO.P,J4,7*
X109000000Y-65040000D03*
G04 #@! TO.P,J4,6*
X111540000Y-62500000D03*
G04 #@! TO.P,J4,5*
X109000000Y-62500000D03*
G04 #@! TO.P,J4,4*
X111540000Y-59960000D03*
G04 #@! TO.P,J4,3*
X109000000Y-59960000D03*
G04 #@! TO.P,J4,2*
G04 #@! TO.N,-12V*
X111540000Y-57420000D03*
D11*
G04 #@! TO.P,J4,1*
X109000000Y-57420000D03*
G04 #@! TD*
D10*
G04 #@! TO.P,J5,16*
G04 #@! TO.N,/INT_GATE*
X126540000Y-75200000D03*
G04 #@! TO.P,J5,15*
X124000000Y-75200000D03*
G04 #@! TO.P,J5,14*
G04 #@! TO.N,/INT_CV*
X126540000Y-72660000D03*
G04 #@! TO.P,J5,13*
X124000000Y-72660000D03*
G04 #@! TO.P,J5,12*
G04 #@! TO.N,+5V*
X126540000Y-70120000D03*
G04 #@! TO.P,J5,11*
X124000000Y-70120000D03*
G04 #@! TO.P,J5,10*
G04 #@! TO.N,+12V*
X126540000Y-67580000D03*
G04 #@! TO.P,J5,9*
X124000000Y-67580000D03*
G04 #@! TO.P,J5,8*
G04 #@! TO.N,GND*
X126540000Y-65040000D03*
G04 #@! TO.P,J5,7*
X124000000Y-65040000D03*
G04 #@! TO.P,J5,6*
X126540000Y-62500000D03*
G04 #@! TO.P,J5,5*
X124000000Y-62500000D03*
G04 #@! TO.P,J5,4*
X126540000Y-59960000D03*
G04 #@! TO.P,J5,3*
X124000000Y-59960000D03*
G04 #@! TO.P,J5,2*
G04 #@! TO.N,-12V*
X126540000Y-57420000D03*
D11*
G04 #@! TO.P,J5,1*
X124000000Y-57420000D03*
G04 #@! TD*
D10*
G04 #@! TO.P,J6,16*
G04 #@! TO.N,/INT_GATE*
X141540000Y-75160000D03*
G04 #@! TO.P,J6,15*
X139000000Y-75160000D03*
G04 #@! TO.P,J6,14*
G04 #@! TO.N,/INT_CV*
X141540000Y-72620000D03*
G04 #@! TO.P,J6,13*
X139000000Y-72620000D03*
G04 #@! TO.P,J6,12*
G04 #@! TO.N,+5V*
X141540000Y-70080000D03*
G04 #@! TO.P,J6,11*
X139000000Y-70080000D03*
G04 #@! TO.P,J6,10*
G04 #@! TO.N,+12V*
X141540000Y-67540000D03*
G04 #@! TO.P,J6,9*
X139000000Y-67540000D03*
G04 #@! TO.P,J6,8*
G04 #@! TO.N,GND*
X141540000Y-65000000D03*
G04 #@! TO.P,J6,7*
X139000000Y-65000000D03*
G04 #@! TO.P,J6,6*
X141540000Y-62460000D03*
G04 #@! TO.P,J6,5*
X139000000Y-62460000D03*
G04 #@! TO.P,J6,4*
X141540000Y-59920000D03*
G04 #@! TO.P,J6,3*
X139000000Y-59920000D03*
G04 #@! TO.P,J6,2*
G04 #@! TO.N,-12V*
X141540000Y-57380000D03*
D11*
G04 #@! TO.P,J6,1*
X139000000Y-57380000D03*
G04 #@! TD*
D10*
G04 #@! TO.P,J7,16*
G04 #@! TO.N,/INT_GATE*
X156540000Y-75280000D03*
G04 #@! TO.P,J7,15*
X154000000Y-75280000D03*
G04 #@! TO.P,J7,14*
G04 #@! TO.N,/INT_CV*
X156540000Y-72740000D03*
G04 #@! TO.P,J7,13*
X154000000Y-72740000D03*
G04 #@! TO.P,J7,12*
G04 #@! TO.N,+5V*
X156540000Y-70200000D03*
G04 #@! TO.P,J7,11*
X154000000Y-70200000D03*
G04 #@! TO.P,J7,10*
G04 #@! TO.N,+12V*
X156540000Y-67660000D03*
G04 #@! TO.P,J7,9*
X154000000Y-67660000D03*
G04 #@! TO.P,J7,8*
G04 #@! TO.N,GND*
X156540000Y-65120000D03*
G04 #@! TO.P,J7,7*
X154000000Y-65120000D03*
G04 #@! TO.P,J7,6*
X156540000Y-62580000D03*
G04 #@! TO.P,J7,5*
X154000000Y-62580000D03*
G04 #@! TO.P,J7,4*
X156540000Y-60040000D03*
G04 #@! TO.P,J7,3*
X154000000Y-60040000D03*
G04 #@! TO.P,J7,2*
G04 #@! TO.N,-12V*
X156540000Y-57500000D03*
D11*
G04 #@! TO.P,J7,1*
X154000000Y-57500000D03*
G04 #@! TD*
D10*
G04 #@! TO.P,J8,16*
G04 #@! TO.N,/INT_GATE*
X171540000Y-75280000D03*
G04 #@! TO.P,J8,15*
X169000000Y-75280000D03*
G04 #@! TO.P,J8,14*
G04 #@! TO.N,/INT_CV*
X171540000Y-72740000D03*
G04 #@! TO.P,J8,13*
X169000000Y-72740000D03*
G04 #@! TO.P,J8,12*
G04 #@! TO.N,+5V*
X171540000Y-70200000D03*
G04 #@! TO.P,J8,11*
X169000000Y-70200000D03*
G04 #@! TO.P,J8,10*
G04 #@! TO.N,+12V*
X171540000Y-67660000D03*
G04 #@! TO.P,J8,9*
X169000000Y-67660000D03*
G04 #@! TO.P,J8,8*
G04 #@! TO.N,GND*
X171540000Y-65120000D03*
G04 #@! TO.P,J8,7*
X169000000Y-65120000D03*
G04 #@! TO.P,J8,6*
X171540000Y-62580000D03*
G04 #@! TO.P,J8,5*
X169000000Y-62580000D03*
G04 #@! TO.P,J8,4*
X171540000Y-60040000D03*
G04 #@! TO.P,J8,3*
X169000000Y-60040000D03*
G04 #@! TO.P,J8,2*
G04 #@! TO.N,-12V*
X171540000Y-57500000D03*
D11*
G04 #@! TO.P,J8,1*
X169000000Y-57500000D03*
G04 #@! TD*
D10*
G04 #@! TO.P,J9,16*
G04 #@! TO.N,/INT_GATE*
X186540000Y-75280000D03*
G04 #@! TO.P,J9,15*
X184000000Y-75280000D03*
G04 #@! TO.P,J9,14*
G04 #@! TO.N,/INT_CV*
X186540000Y-72740000D03*
G04 #@! TO.P,J9,13*
X184000000Y-72740000D03*
G04 #@! TO.P,J9,12*
G04 #@! TO.N,+5V*
X186540000Y-70200000D03*
G04 #@! TO.P,J9,11*
X184000000Y-70200000D03*
G04 #@! TO.P,J9,10*
G04 #@! TO.N,+12V*
X186540000Y-67660000D03*
G04 #@! TO.P,J9,9*
X184000000Y-67660000D03*
G04 #@! TO.P,J9,8*
G04 #@! TO.N,GND*
X186540000Y-65120000D03*
G04 #@! TO.P,J9,7*
X184000000Y-65120000D03*
G04 #@! TO.P,J9,6*
X186540000Y-62580000D03*
G04 #@! TO.P,J9,5*
X184000000Y-62580000D03*
G04 #@! TO.P,J9,4*
X186540000Y-60040000D03*
G04 #@! TO.P,J9,3*
X184000000Y-60040000D03*
G04 #@! TO.P,J9,2*
G04 #@! TO.N,-12V*
X186540000Y-57500000D03*
D11*
G04 #@! TO.P,J9,1*
X184000000Y-57500000D03*
G04 #@! TD*
D10*
G04 #@! TO.P,J10,16*
G04 #@! TO.N,/INT_GATE*
X201540000Y-75280000D03*
G04 #@! TO.P,J10,15*
X199000000Y-75280000D03*
G04 #@! TO.P,J10,14*
G04 #@! TO.N,/INT_CV*
X201540000Y-72740000D03*
G04 #@! TO.P,J10,13*
X199000000Y-72740000D03*
G04 #@! TO.P,J10,12*
G04 #@! TO.N,+5V*
X201540000Y-70200000D03*
G04 #@! TO.P,J10,11*
X199000000Y-70200000D03*
G04 #@! TO.P,J10,10*
G04 #@! TO.N,+12V*
X201540000Y-67660000D03*
G04 #@! TO.P,J10,9*
X199000000Y-67660000D03*
G04 #@! TO.P,J10,8*
G04 #@! TO.N,GND*
X201540000Y-65120000D03*
G04 #@! TO.P,J10,7*
X199000000Y-65120000D03*
G04 #@! TO.P,J10,6*
X201540000Y-62580000D03*
G04 #@! TO.P,J10,5*
X199000000Y-62580000D03*
G04 #@! TO.P,J10,4*
X201540000Y-60040000D03*
G04 #@! TO.P,J10,3*
X199000000Y-60040000D03*
G04 #@! TO.P,J10,2*
G04 #@! TO.N,-12V*
X201540000Y-57500000D03*
D11*
G04 #@! TO.P,J10,1*
X199000000Y-57500000D03*
G04 #@! TD*
D10*
G04 #@! TO.P,J11,16*
G04 #@! TO.N,/INT_GATE*
X216540000Y-75280000D03*
G04 #@! TO.P,J11,15*
X214000000Y-75280000D03*
G04 #@! TO.P,J11,14*
G04 #@! TO.N,/INT_CV*
X216540000Y-72740000D03*
G04 #@! TO.P,J11,13*
X214000000Y-72740000D03*
G04 #@! TO.P,J11,12*
G04 #@! TO.N,+5V*
X216540000Y-70200000D03*
G04 #@! TO.P,J11,11*
X214000000Y-70200000D03*
G04 #@! TO.P,J11,10*
G04 #@! TO.N,+12V*
X216540000Y-67660000D03*
G04 #@! TO.P,J11,9*
X214000000Y-67660000D03*
G04 #@! TO.P,J11,8*
G04 #@! TO.N,GND*
X216540000Y-65120000D03*
G04 #@! TO.P,J11,7*
X214000000Y-65120000D03*
G04 #@! TO.P,J11,6*
X216540000Y-62580000D03*
G04 #@! TO.P,J11,5*
X214000000Y-62580000D03*
G04 #@! TO.P,J11,4*
X216540000Y-60040000D03*
G04 #@! TO.P,J11,3*
X214000000Y-60040000D03*
G04 #@! TO.P,J11,2*
G04 #@! TO.N,-12V*
X216540000Y-57500000D03*
D11*
G04 #@! TO.P,J11,1*
X214000000Y-57500000D03*
G04 #@! TD*
D10*
G04 #@! TO.P,J12,16*
G04 #@! TO.N,/INT_GATE*
X231540000Y-75280000D03*
G04 #@! TO.P,J12,15*
X229000000Y-75280000D03*
G04 #@! TO.P,J12,14*
G04 #@! TO.N,/INT_CV*
X231540000Y-72740000D03*
G04 #@! TO.P,J12,13*
X229000000Y-72740000D03*
G04 #@! TO.P,J12,12*
G04 #@! TO.N,+5V*
X231540000Y-70200000D03*
G04 #@! TO.P,J12,11*
X229000000Y-70200000D03*
G04 #@! TO.P,J12,10*
G04 #@! TO.N,+12V*
X231540000Y-67660000D03*
G04 #@! TO.P,J12,9*
X229000000Y-67660000D03*
G04 #@! TO.P,J12,8*
G04 #@! TO.N,GND*
X231540000Y-65120000D03*
G04 #@! TO.P,J12,7*
X229000000Y-65120000D03*
G04 #@! TO.P,J12,6*
X231540000Y-62580000D03*
G04 #@! TO.P,J12,5*
X229000000Y-62580000D03*
G04 #@! TO.P,J12,4*
X231540000Y-60040000D03*
G04 #@! TO.P,J12,3*
X229000000Y-60040000D03*
G04 #@! TO.P,J12,2*
G04 #@! TO.N,-12V*
X231540000Y-57500000D03*
D11*
G04 #@! TO.P,J12,1*
X229000000Y-57500000D03*
G04 #@! TD*
D12*
G04 #@! TO.P,J13,1*
G04 #@! TO.N,/INT_GATE*
X46990000Y-78740000D03*
D13*
G04 #@! TO.P,J13,2*
G04 #@! TO.N,/INT_CV*
X46990000Y-73660000D03*
G04 #@! TO.P,J13,3*
G04 #@! TO.N,+5V*
X46990000Y-68580000D03*
G04 #@! TO.P,J13,4*
G04 #@! TO.N,+12V*
X46990000Y-63500000D03*
G04 #@! TO.P,J13,5*
G04 #@! TO.N,GND*
X46990000Y-58420000D03*
G04 #@! TO.P,J13,6*
G04 #@! TO.N,-12V*
X46990000Y-53340000D03*
G04 #@! TD*
D14*
G04 #@! TO.P,+12v,2*
G04 #@! TO.N,Net-(D1-Pad2)*
X74040000Y-56500000D03*
D15*
G04 #@! TO.P,+12v,1*
G04 #@! TO.N,GND*
X71500000Y-56500000D03*
G04 #@! TD*
G04 #@! TO.P,-12v,1*
G04 #@! TO.N,-12V*
X86500000Y-56500000D03*
D14*
G04 #@! TO.P,-12v,2*
G04 #@! TO.N,Net-(D2-Pad2)*
X89040000Y-56500000D03*
G04 #@! TD*
D15*
G04 #@! TO.P,+5v,1*
G04 #@! TO.N,GND*
X101500000Y-56500000D03*
D14*
G04 #@! TO.P,+5v,2*
G04 #@! TO.N,Net-(D3-Pad2)*
X104040000Y-56500000D03*
G04 #@! TD*
D16*
G04 #@! TO.P,R1,2*
G04 #@! TO.N,+12V*
X72500000Y-67620000D03*
D17*
G04 #@! TO.P,R1,1*
G04 #@! TO.N,Net-(D1-Pad2)*
X72500000Y-60000000D03*
G04 #@! TD*
G04 #@! TO.P,R2,1*
G04 #@! TO.N,GND*
X87500000Y-60000000D03*
D16*
G04 #@! TO.P,R2,2*
G04 #@! TO.N,Net-(D2-Pad2)*
X87500000Y-67620000D03*
G04 #@! TD*
D17*
G04 #@! TO.P,R3,1*
G04 #@! TO.N,Net-(D3-Pad2)*
X102500000Y-60000000D03*
D16*
G04 #@! TO.P,R3,2*
G04 #@! TO.N,+5V*
X102500000Y-67620000D03*
G04 #@! TD*
D18*
G04 #@! TO.N,-12V*
X82540000Y-56500000D02*
X81540000Y-57500000D01*
X86500000Y-56500000D02*
X82540000Y-56500000D01*
G04 #@! TO.N,+12V*
X66500000Y-67620000D02*
X66460000Y-67660000D01*
X72500000Y-67620000D02*
X66500000Y-67620000D01*
G04 #@! TO.N,Net-(D1-Pad2)*
X72500000Y-58040000D02*
X72500000Y-60000000D01*
X74040000Y-56500000D02*
X72500000Y-58040000D01*
G04 #@! TO.N,Net-(D3-Pad2)*
X102500000Y-58040000D02*
X102500000Y-60000000D01*
X104040000Y-56500000D02*
X102500000Y-58040000D01*
G04 #@! TO.N,Net-(D2-Pad2)*
X89040000Y-66080000D02*
X89040000Y-56500000D01*
X87500000Y-67620000D02*
X89040000Y-66080000D01*
G04 #@! TD*
D19*
G04 #@! TO.N,-12V*
G36*
X241290000Y-60373000D02*
X233001721Y-60373000D01*
X233067959Y-60040000D01*
X232951650Y-59455275D01*
X232620430Y-58959570D01*
X232318979Y-58758146D01*
X232428490Y-58706821D01*
X232822688Y-58274947D01*
X232994958Y-57859026D01*
X232873817Y-57627000D01*
X231667000Y-57627000D01*
X231667000Y-57647000D01*
X231413000Y-57647000D01*
X231413000Y-57627000D01*
X229127000Y-57627000D01*
X229127000Y-57647000D01*
X228873000Y-57647000D01*
X228873000Y-57627000D01*
X227660150Y-57627000D01*
X227501400Y-57785750D01*
X227501400Y-58489910D01*
X227598073Y-58723299D01*
X227776702Y-58901927D01*
X227918767Y-58960772D01*
X227588350Y-59455275D01*
X227472041Y-60040000D01*
X227538279Y-60373000D01*
X218001721Y-60373000D01*
X218067959Y-60040000D01*
X217951650Y-59455275D01*
X217620430Y-58959570D01*
X217318979Y-58758146D01*
X217428490Y-58706821D01*
X217822688Y-58274947D01*
X217994958Y-57859026D01*
X217873817Y-57627000D01*
X216667000Y-57627000D01*
X216667000Y-57647000D01*
X216413000Y-57647000D01*
X216413000Y-57627000D01*
X214127000Y-57627000D01*
X214127000Y-57647000D01*
X213873000Y-57647000D01*
X213873000Y-57627000D01*
X212660150Y-57627000D01*
X212501400Y-57785750D01*
X212501400Y-58489910D01*
X212598073Y-58723299D01*
X212776702Y-58901927D01*
X212918767Y-58960772D01*
X212588350Y-59455275D01*
X212472041Y-60040000D01*
X212538279Y-60373000D01*
X203001721Y-60373000D01*
X203067959Y-60040000D01*
X202951650Y-59455275D01*
X202620430Y-58959570D01*
X202318979Y-58758146D01*
X202428490Y-58706821D01*
X202822688Y-58274947D01*
X202994958Y-57859026D01*
X202873817Y-57627000D01*
X201667000Y-57627000D01*
X201667000Y-57647000D01*
X201413000Y-57647000D01*
X201413000Y-57627000D01*
X199127000Y-57627000D01*
X199127000Y-57647000D01*
X198873000Y-57647000D01*
X198873000Y-57627000D01*
X197660150Y-57627000D01*
X197501400Y-57785750D01*
X197501400Y-58489910D01*
X197598073Y-58723299D01*
X197776702Y-58901927D01*
X197918767Y-58960772D01*
X197588350Y-59455275D01*
X197472041Y-60040000D01*
X197538279Y-60373000D01*
X188001721Y-60373000D01*
X188067959Y-60040000D01*
X187951650Y-59455275D01*
X187620430Y-58959570D01*
X187318979Y-58758146D01*
X187428490Y-58706821D01*
X187822688Y-58274947D01*
X187994958Y-57859026D01*
X187873817Y-57627000D01*
X186667000Y-57627000D01*
X186667000Y-57647000D01*
X186413000Y-57647000D01*
X186413000Y-57627000D01*
X184127000Y-57627000D01*
X184127000Y-57647000D01*
X183873000Y-57647000D01*
X183873000Y-57627000D01*
X182660150Y-57627000D01*
X182501400Y-57785750D01*
X182501400Y-58489910D01*
X182598073Y-58723299D01*
X182776702Y-58901927D01*
X182918767Y-58960772D01*
X182588350Y-59455275D01*
X182472041Y-60040000D01*
X182538279Y-60373000D01*
X173001721Y-60373000D01*
X173067959Y-60040000D01*
X172951650Y-59455275D01*
X172620430Y-58959570D01*
X172318979Y-58758146D01*
X172428490Y-58706821D01*
X172822688Y-58274947D01*
X172994958Y-57859026D01*
X172873817Y-57627000D01*
X171667000Y-57627000D01*
X171667000Y-57647000D01*
X171413000Y-57647000D01*
X171413000Y-57627000D01*
X169127000Y-57627000D01*
X169127000Y-57647000D01*
X168873000Y-57647000D01*
X168873000Y-57627000D01*
X167660150Y-57627000D01*
X167501400Y-57785750D01*
X167501400Y-58489910D01*
X167598073Y-58723299D01*
X167776702Y-58901927D01*
X167918767Y-58960772D01*
X167588350Y-59455275D01*
X167472041Y-60040000D01*
X167538279Y-60373000D01*
X158001721Y-60373000D01*
X158067959Y-60040000D01*
X157951650Y-59455275D01*
X157620430Y-58959570D01*
X157318979Y-58758146D01*
X157428490Y-58706821D01*
X157822688Y-58274947D01*
X157994958Y-57859026D01*
X157873817Y-57627000D01*
X156667000Y-57627000D01*
X156667000Y-57647000D01*
X156413000Y-57647000D01*
X156413000Y-57627000D01*
X154127000Y-57627000D01*
X154127000Y-57647000D01*
X153873000Y-57647000D01*
X153873000Y-57627000D01*
X152660150Y-57627000D01*
X152501400Y-57785750D01*
X152501400Y-58489910D01*
X152598073Y-58723299D01*
X152776702Y-58901927D01*
X152918767Y-58960772D01*
X152588350Y-59455275D01*
X152472041Y-60040000D01*
X152538279Y-60373000D01*
X142977852Y-60373000D01*
X143067959Y-59920000D01*
X142951650Y-59335275D01*
X142620430Y-58839570D01*
X142318979Y-58638146D01*
X142428490Y-58586821D01*
X142822688Y-58154947D01*
X142994958Y-57739026D01*
X142873817Y-57507000D01*
X141667000Y-57507000D01*
X141667000Y-57527000D01*
X141413000Y-57527000D01*
X141413000Y-57507000D01*
X139127000Y-57507000D01*
X139127000Y-57527000D01*
X138873000Y-57527000D01*
X138873000Y-57507000D01*
X137660150Y-57507000D01*
X137501400Y-57665750D01*
X137501400Y-58369910D01*
X137598073Y-58603299D01*
X137776702Y-58781927D01*
X137918767Y-58840772D01*
X137588350Y-59335275D01*
X137472041Y-59920000D01*
X137562148Y-60373000D01*
X127985808Y-60373000D01*
X128067959Y-59960000D01*
X127951650Y-59375275D01*
X127620430Y-58879570D01*
X127318979Y-58678146D01*
X127428490Y-58626821D01*
X127822688Y-58194947D01*
X127994958Y-57779026D01*
X127873817Y-57547000D01*
X126667000Y-57547000D01*
X126667000Y-57567000D01*
X126413000Y-57567000D01*
X126413000Y-57547000D01*
X124127000Y-57547000D01*
X124127000Y-57567000D01*
X123873000Y-57567000D01*
X123873000Y-57547000D01*
X122660150Y-57547000D01*
X122501400Y-57705750D01*
X122501400Y-58409910D01*
X122598073Y-58643299D01*
X122776702Y-58821927D01*
X122918767Y-58880772D01*
X122588350Y-59375275D01*
X122472041Y-59960000D01*
X122554192Y-60373000D01*
X112985808Y-60373000D01*
X113067959Y-59960000D01*
X112951650Y-59375275D01*
X112620430Y-58879570D01*
X112318979Y-58678146D01*
X112428490Y-58626821D01*
X112822688Y-58194947D01*
X112994958Y-57779026D01*
X112873817Y-57547000D01*
X111667000Y-57547000D01*
X111667000Y-57567000D01*
X111413000Y-57567000D01*
X111413000Y-57547000D01*
X109127000Y-57547000D01*
X109127000Y-57567000D01*
X108873000Y-57567000D01*
X108873000Y-57547000D01*
X107660150Y-57547000D01*
X107501400Y-57705750D01*
X107501400Y-58409910D01*
X107598073Y-58643299D01*
X107776702Y-58821927D01*
X107918767Y-58880772D01*
X107588350Y-59375275D01*
X107472041Y-59960000D01*
X107554192Y-60373000D01*
X103898731Y-60373000D01*
X103935000Y-60285439D01*
X103935000Y-59714561D01*
X103716534Y-59187138D01*
X103312862Y-58783466D01*
X103260000Y-58761570D01*
X103260000Y-58354801D01*
X103625161Y-57989640D01*
X103734670Y-58035000D01*
X104345330Y-58035000D01*
X104909507Y-57801310D01*
X105341310Y-57369507D01*
X105575000Y-56805330D01*
X105575000Y-56430090D01*
X107501400Y-56430090D01*
X107501400Y-57134250D01*
X107660150Y-57293000D01*
X108873000Y-57293000D01*
X108873000Y-56080150D01*
X109127000Y-56080150D01*
X109127000Y-57293000D01*
X111413000Y-57293000D01*
X111413000Y-56085531D01*
X111667000Y-56085531D01*
X111667000Y-57293000D01*
X112873817Y-57293000D01*
X112994958Y-57060974D01*
X112822688Y-56645053D01*
X112428490Y-56213179D01*
X111899027Y-55965032D01*
X111667000Y-56085531D01*
X111413000Y-56085531D01*
X111180973Y-55965032D01*
X110651510Y-56213179D01*
X110484529Y-56396119D01*
X110401927Y-56196701D01*
X110223298Y-56018073D01*
X109989909Y-55921400D01*
X109285750Y-55921400D01*
X109127000Y-56080150D01*
X108873000Y-56080150D01*
X108714250Y-55921400D01*
X108010091Y-55921400D01*
X107776702Y-56018073D01*
X107598073Y-56196701D01*
X107501400Y-56430090D01*
X105575000Y-56430090D01*
X105575000Y-56194670D01*
X105341310Y-55630493D01*
X104909507Y-55198690D01*
X104345330Y-54965000D01*
X103734670Y-54965000D01*
X103170493Y-55198690D01*
X103001275Y-55367908D01*
X102998157Y-55352235D01*
X102857809Y-55142191D01*
X102647765Y-55001843D01*
X102400000Y-54952560D01*
X100600000Y-54952560D01*
X100352235Y-55001843D01*
X100142191Y-55142191D01*
X100001843Y-55352235D01*
X99952560Y-55600000D01*
X99952560Y-57400000D01*
X100001843Y-57647765D01*
X100142191Y-57857809D01*
X100352235Y-57998157D01*
X100600000Y-58047440D01*
X101726592Y-58047440D01*
X101740000Y-58114847D01*
X101740000Y-58761570D01*
X101687138Y-58783466D01*
X101283466Y-59187138D01*
X101065000Y-59714561D01*
X101065000Y-60285439D01*
X101101269Y-60373000D01*
X98001721Y-60373000D01*
X98067959Y-60040000D01*
X97951650Y-59455275D01*
X97620430Y-58959570D01*
X97318979Y-58758146D01*
X97428490Y-58706821D01*
X97822688Y-58274947D01*
X97994958Y-57859026D01*
X97873817Y-57627000D01*
X96667000Y-57627000D01*
X96667000Y-57647000D01*
X96413000Y-57647000D01*
X96413000Y-57627000D01*
X94127000Y-57627000D01*
X94127000Y-57647000D01*
X93873000Y-57647000D01*
X93873000Y-57627000D01*
X92660150Y-57627000D01*
X92501400Y-57785750D01*
X92501400Y-58489910D01*
X92598073Y-58723299D01*
X92776702Y-58901927D01*
X92918767Y-58960772D01*
X92588350Y-59455275D01*
X92472041Y-60040000D01*
X92538279Y-60373000D01*
X89800000Y-60373000D01*
X89800000Y-57846669D01*
X89909507Y-57801310D01*
X90341310Y-57369507D01*
X90575000Y-56805330D01*
X90575000Y-56510090D01*
X92501400Y-56510090D01*
X92501400Y-57214250D01*
X92660150Y-57373000D01*
X93873000Y-57373000D01*
X93873000Y-56160150D01*
X94127000Y-56160150D01*
X94127000Y-57373000D01*
X96413000Y-57373000D01*
X96413000Y-56165531D01*
X96667000Y-56165531D01*
X96667000Y-57373000D01*
X97873817Y-57373000D01*
X97994958Y-57140974D01*
X97822688Y-56725053D01*
X97428490Y-56293179D01*
X96899027Y-56045032D01*
X96667000Y-56165531D01*
X96413000Y-56165531D01*
X96180973Y-56045032D01*
X95651510Y-56293179D01*
X95484529Y-56476119D01*
X95401927Y-56276701D01*
X95223298Y-56098073D01*
X94989909Y-56001400D01*
X94285750Y-56001400D01*
X94127000Y-56160150D01*
X93873000Y-56160150D01*
X93714250Y-56001400D01*
X93010091Y-56001400D01*
X92776702Y-56098073D01*
X92598073Y-56276701D01*
X92501400Y-56510090D01*
X90575000Y-56510090D01*
X90575000Y-56194670D01*
X90341310Y-55630493D01*
X89909507Y-55198690D01*
X89345330Y-54965000D01*
X88734670Y-54965000D01*
X88170493Y-55198690D01*
X87994139Y-55375044D01*
X87938327Y-55240301D01*
X87759698Y-55061673D01*
X87526309Y-54965000D01*
X86785750Y-54965000D01*
X86627000Y-55123750D01*
X86627000Y-56373000D01*
X86647000Y-56373000D01*
X86647000Y-56627000D01*
X86627000Y-56627000D01*
X86627000Y-57876250D01*
X86785750Y-58035000D01*
X87526309Y-58035000D01*
X87759698Y-57938327D01*
X87938327Y-57759699D01*
X87994139Y-57624956D01*
X88170493Y-57801310D01*
X88280001Y-57846670D01*
X88280001Y-58769854D01*
X87785439Y-58565000D01*
X87214561Y-58565000D01*
X86687138Y-58783466D01*
X86283466Y-59187138D01*
X86065000Y-59714561D01*
X86065000Y-60285439D01*
X86101269Y-60373000D01*
X83001721Y-60373000D01*
X83067959Y-60040000D01*
X82951650Y-59455275D01*
X82620430Y-58959570D01*
X82318979Y-58758146D01*
X82428490Y-58706821D01*
X82822688Y-58274947D01*
X82994958Y-57859026D01*
X82873817Y-57627000D01*
X81667000Y-57627000D01*
X81667000Y-57647000D01*
X81413000Y-57647000D01*
X81413000Y-57627000D01*
X79127000Y-57627000D01*
X79127000Y-57647000D01*
X78873000Y-57647000D01*
X78873000Y-57627000D01*
X77660150Y-57627000D01*
X77501400Y-57785750D01*
X77501400Y-58489910D01*
X77598073Y-58723299D01*
X77776702Y-58901927D01*
X77918767Y-58960772D01*
X77588350Y-59455275D01*
X77472041Y-60040000D01*
X77538279Y-60373000D01*
X73898731Y-60373000D01*
X73935000Y-60285439D01*
X73935000Y-59714561D01*
X73716534Y-59187138D01*
X73312862Y-58783466D01*
X73260000Y-58761570D01*
X73260000Y-58354801D01*
X73625161Y-57989640D01*
X73734670Y-58035000D01*
X74345330Y-58035000D01*
X74909507Y-57801310D01*
X75341310Y-57369507D01*
X75575000Y-56805330D01*
X75575000Y-56510090D01*
X77501400Y-56510090D01*
X77501400Y-57214250D01*
X77660150Y-57373000D01*
X78873000Y-57373000D01*
X78873000Y-56160150D01*
X79127000Y-56160150D01*
X79127000Y-57373000D01*
X81413000Y-57373000D01*
X81413000Y-56165531D01*
X81667000Y-56165531D01*
X81667000Y-57373000D01*
X82873817Y-57373000D01*
X82994958Y-57140974D01*
X82847829Y-56785750D01*
X84965000Y-56785750D01*
X84965000Y-57526310D01*
X85061673Y-57759699D01*
X85240302Y-57938327D01*
X85473691Y-58035000D01*
X86214250Y-58035000D01*
X86373000Y-57876250D01*
X86373000Y-56627000D01*
X85123750Y-56627000D01*
X84965000Y-56785750D01*
X82847829Y-56785750D01*
X82822688Y-56725053D01*
X82428490Y-56293179D01*
X81899027Y-56045032D01*
X81667000Y-56165531D01*
X81413000Y-56165531D01*
X81180973Y-56045032D01*
X80651510Y-56293179D01*
X80484529Y-56476119D01*
X80401927Y-56276701D01*
X80223298Y-56098073D01*
X79989909Y-56001400D01*
X79285750Y-56001400D01*
X79127000Y-56160150D01*
X78873000Y-56160150D01*
X78714250Y-56001400D01*
X78010091Y-56001400D01*
X77776702Y-56098073D01*
X77598073Y-56276701D01*
X77501400Y-56510090D01*
X75575000Y-56510090D01*
X75575000Y-56194670D01*
X75341310Y-55630493D01*
X75184507Y-55473690D01*
X84965000Y-55473690D01*
X84965000Y-56214250D01*
X85123750Y-56373000D01*
X86373000Y-56373000D01*
X86373000Y-55123750D01*
X86214250Y-54965000D01*
X85473691Y-54965000D01*
X85240302Y-55061673D01*
X85061673Y-55240301D01*
X84965000Y-55473690D01*
X75184507Y-55473690D01*
X74909507Y-55198690D01*
X74345330Y-54965000D01*
X73734670Y-54965000D01*
X73170493Y-55198690D01*
X73001275Y-55367908D01*
X72998157Y-55352235D01*
X72857809Y-55142191D01*
X72647765Y-55001843D01*
X72400000Y-54952560D01*
X70600000Y-54952560D01*
X70352235Y-55001843D01*
X70142191Y-55142191D01*
X70001843Y-55352235D01*
X69952560Y-55600000D01*
X69952560Y-57400000D01*
X70001843Y-57647765D01*
X70142191Y-57857809D01*
X70352235Y-57998157D01*
X70600000Y-58047440D01*
X71726592Y-58047440D01*
X71740000Y-58114847D01*
X71740000Y-58761570D01*
X71687138Y-58783466D01*
X71283466Y-59187138D01*
X71065000Y-59714561D01*
X71065000Y-60285439D01*
X71101269Y-60373000D01*
X67921721Y-60373000D01*
X67987959Y-60040000D01*
X67871650Y-59455275D01*
X67540430Y-58959570D01*
X67238979Y-58758146D01*
X67348490Y-58706821D01*
X67742688Y-58274947D01*
X67914958Y-57859026D01*
X67793817Y-57627000D01*
X66587000Y-57627000D01*
X66587000Y-57647000D01*
X66333000Y-57647000D01*
X66333000Y-57627000D01*
X64047000Y-57627000D01*
X64047000Y-57647000D01*
X63793000Y-57647000D01*
X63793000Y-57627000D01*
X62580150Y-57627000D01*
X62421400Y-57785750D01*
X62421400Y-58489910D01*
X62518073Y-58723299D01*
X62696702Y-58901927D01*
X62838767Y-58960772D01*
X62508350Y-59455275D01*
X62392041Y-60040000D01*
X62458279Y-60373000D01*
X42710000Y-60373000D01*
X42710000Y-58084833D01*
X45305000Y-58084833D01*
X45305000Y-58755167D01*
X45561526Y-59374476D01*
X46035524Y-59848474D01*
X46654833Y-60105000D01*
X47325167Y-60105000D01*
X47944476Y-59848474D01*
X48418474Y-59374476D01*
X48675000Y-58755167D01*
X48675000Y-58084833D01*
X48418474Y-57465524D01*
X47944476Y-56991526D01*
X47325167Y-56735000D01*
X46654833Y-56735000D01*
X46035524Y-56991526D01*
X45561526Y-57465524D01*
X45305000Y-58084833D01*
X42710000Y-58084833D01*
X42710000Y-54528703D01*
X45980902Y-54528703D01*
X46085687Y-54800745D01*
X46713526Y-55035619D01*
X47383456Y-55012349D01*
X47894313Y-54800745D01*
X47999098Y-54528703D01*
X47946261Y-54475866D01*
X54865000Y-54475866D01*
X54865000Y-55524134D01*
X55266155Y-56492608D01*
X56007392Y-57233845D01*
X56975866Y-57635000D01*
X58024134Y-57635000D01*
X58992608Y-57233845D01*
X59716363Y-56510090D01*
X62421400Y-56510090D01*
X62421400Y-57214250D01*
X62580150Y-57373000D01*
X63793000Y-57373000D01*
X63793000Y-56160150D01*
X64047000Y-56160150D01*
X64047000Y-57373000D01*
X66333000Y-57373000D01*
X66333000Y-56165531D01*
X66587000Y-56165531D01*
X66587000Y-57373000D01*
X67793817Y-57373000D01*
X67914958Y-57140974D01*
X67742688Y-56725053D01*
X67348490Y-56293179D01*
X66819027Y-56045032D01*
X66587000Y-56165531D01*
X66333000Y-56165531D01*
X66100973Y-56045032D01*
X65571510Y-56293179D01*
X65404529Y-56476119D01*
X65321927Y-56276701D01*
X65143298Y-56098073D01*
X64909909Y-56001400D01*
X64205750Y-56001400D01*
X64047000Y-56160150D01*
X63793000Y-56160150D01*
X63634250Y-56001400D01*
X62930091Y-56001400D01*
X62696702Y-56098073D01*
X62518073Y-56276701D01*
X62421400Y-56510090D01*
X59716363Y-56510090D01*
X59733845Y-56492608D01*
X60135000Y-55524134D01*
X60135000Y-54475866D01*
X115115000Y-54475866D01*
X115115000Y-55524134D01*
X115516155Y-56492608D01*
X116257392Y-57233845D01*
X117225866Y-57635000D01*
X118274134Y-57635000D01*
X119242608Y-57233845D01*
X119983845Y-56492608D01*
X120009740Y-56430090D01*
X122501400Y-56430090D01*
X122501400Y-57134250D01*
X122660150Y-57293000D01*
X123873000Y-57293000D01*
X123873000Y-56080150D01*
X124127000Y-56080150D01*
X124127000Y-57293000D01*
X126413000Y-57293000D01*
X126413000Y-56085531D01*
X126667000Y-56085531D01*
X126667000Y-57293000D01*
X127873817Y-57293000D01*
X127994958Y-57060974D01*
X127822688Y-56645053D01*
X127589968Y-56390090D01*
X137501400Y-56390090D01*
X137501400Y-57094250D01*
X137660150Y-57253000D01*
X138873000Y-57253000D01*
X138873000Y-56040150D01*
X139127000Y-56040150D01*
X139127000Y-57253000D01*
X141413000Y-57253000D01*
X141413000Y-56045531D01*
X141667000Y-56045531D01*
X141667000Y-57253000D01*
X142873817Y-57253000D01*
X142994958Y-57020974D01*
X142822688Y-56605053D01*
X142736010Y-56510090D01*
X152501400Y-56510090D01*
X152501400Y-57214250D01*
X152660150Y-57373000D01*
X153873000Y-57373000D01*
X153873000Y-56160150D01*
X154127000Y-56160150D01*
X154127000Y-57373000D01*
X156413000Y-57373000D01*
X156413000Y-56165531D01*
X156667000Y-56165531D01*
X156667000Y-57373000D01*
X157873817Y-57373000D01*
X157994958Y-57140974D01*
X157822688Y-56725053D01*
X157626479Y-56510090D01*
X167501400Y-56510090D01*
X167501400Y-57214250D01*
X167660150Y-57373000D01*
X168873000Y-57373000D01*
X168873000Y-56160150D01*
X169127000Y-56160150D01*
X169127000Y-57373000D01*
X171413000Y-57373000D01*
X171413000Y-56165531D01*
X171667000Y-56165531D01*
X171667000Y-57373000D01*
X172873817Y-57373000D01*
X172994958Y-57140974D01*
X172822688Y-56725053D01*
X172428490Y-56293179D01*
X171899027Y-56045032D01*
X171667000Y-56165531D01*
X171413000Y-56165531D01*
X171180973Y-56045032D01*
X170651510Y-56293179D01*
X170484529Y-56476119D01*
X170401927Y-56276701D01*
X170223298Y-56098073D01*
X169989909Y-56001400D01*
X169285750Y-56001400D01*
X169127000Y-56160150D01*
X168873000Y-56160150D01*
X168714250Y-56001400D01*
X168010091Y-56001400D01*
X167776702Y-56098073D01*
X167598073Y-56276701D01*
X167501400Y-56510090D01*
X157626479Y-56510090D01*
X157428490Y-56293179D01*
X156899027Y-56045032D01*
X156667000Y-56165531D01*
X156413000Y-56165531D01*
X156180973Y-56045032D01*
X155651510Y-56293179D01*
X155484529Y-56476119D01*
X155401927Y-56276701D01*
X155223298Y-56098073D01*
X154989909Y-56001400D01*
X154285750Y-56001400D01*
X154127000Y-56160150D01*
X153873000Y-56160150D01*
X153714250Y-56001400D01*
X153010091Y-56001400D01*
X152776702Y-56098073D01*
X152598073Y-56276701D01*
X152501400Y-56510090D01*
X142736010Y-56510090D01*
X142428490Y-56173179D01*
X141899027Y-55925032D01*
X141667000Y-56045531D01*
X141413000Y-56045531D01*
X141180973Y-55925032D01*
X140651510Y-56173179D01*
X140484529Y-56356119D01*
X140401927Y-56156701D01*
X140223298Y-55978073D01*
X139989909Y-55881400D01*
X139285750Y-55881400D01*
X139127000Y-56040150D01*
X138873000Y-56040150D01*
X138714250Y-55881400D01*
X138010091Y-55881400D01*
X137776702Y-55978073D01*
X137598073Y-56156701D01*
X137501400Y-56390090D01*
X127589968Y-56390090D01*
X127428490Y-56213179D01*
X126899027Y-55965032D01*
X126667000Y-56085531D01*
X126413000Y-56085531D01*
X126180973Y-55965032D01*
X125651510Y-56213179D01*
X125484529Y-56396119D01*
X125401927Y-56196701D01*
X125223298Y-56018073D01*
X124989909Y-55921400D01*
X124285750Y-55921400D01*
X124127000Y-56080150D01*
X123873000Y-56080150D01*
X123714250Y-55921400D01*
X123010091Y-55921400D01*
X122776702Y-56018073D01*
X122598073Y-56196701D01*
X122501400Y-56430090D01*
X120009740Y-56430090D01*
X120385000Y-55524134D01*
X120385000Y-54475866D01*
X175115000Y-54475866D01*
X175115000Y-55524134D01*
X175516155Y-56492608D01*
X176257392Y-57233845D01*
X177225866Y-57635000D01*
X178274134Y-57635000D01*
X179242608Y-57233845D01*
X179966363Y-56510090D01*
X182501400Y-56510090D01*
X182501400Y-57214250D01*
X182660150Y-57373000D01*
X183873000Y-57373000D01*
X183873000Y-56160150D01*
X184127000Y-56160150D01*
X184127000Y-57373000D01*
X186413000Y-57373000D01*
X186413000Y-56165531D01*
X186667000Y-56165531D01*
X186667000Y-57373000D01*
X187873817Y-57373000D01*
X187994958Y-57140974D01*
X187822688Y-56725053D01*
X187626479Y-56510090D01*
X197501400Y-56510090D01*
X197501400Y-57214250D01*
X197660150Y-57373000D01*
X198873000Y-57373000D01*
X198873000Y-56160150D01*
X199127000Y-56160150D01*
X199127000Y-57373000D01*
X201413000Y-57373000D01*
X201413000Y-56165531D01*
X201667000Y-56165531D01*
X201667000Y-57373000D01*
X202873817Y-57373000D01*
X202994958Y-57140974D01*
X202822688Y-56725053D01*
X202626479Y-56510090D01*
X212501400Y-56510090D01*
X212501400Y-57214250D01*
X212660150Y-57373000D01*
X213873000Y-57373000D01*
X213873000Y-56160150D01*
X214127000Y-56160150D01*
X214127000Y-57373000D01*
X216413000Y-57373000D01*
X216413000Y-56165531D01*
X216667000Y-56165531D01*
X216667000Y-57373000D01*
X217873817Y-57373000D01*
X217994958Y-57140974D01*
X217822688Y-56725053D01*
X217626479Y-56510090D01*
X227501400Y-56510090D01*
X227501400Y-57214250D01*
X227660150Y-57373000D01*
X228873000Y-57373000D01*
X228873000Y-56160150D01*
X229127000Y-56160150D01*
X229127000Y-57373000D01*
X231413000Y-57373000D01*
X231413000Y-56165531D01*
X231667000Y-56165531D01*
X231667000Y-57373000D01*
X232873817Y-57373000D01*
X232994958Y-57140974D01*
X232822688Y-56725053D01*
X232428490Y-56293179D01*
X231899027Y-56045032D01*
X231667000Y-56165531D01*
X231413000Y-56165531D01*
X231180973Y-56045032D01*
X230651510Y-56293179D01*
X230484529Y-56476119D01*
X230401927Y-56276701D01*
X230223298Y-56098073D01*
X229989909Y-56001400D01*
X229285750Y-56001400D01*
X229127000Y-56160150D01*
X228873000Y-56160150D01*
X228714250Y-56001400D01*
X228010091Y-56001400D01*
X227776702Y-56098073D01*
X227598073Y-56276701D01*
X227501400Y-56510090D01*
X217626479Y-56510090D01*
X217428490Y-56293179D01*
X216899027Y-56045032D01*
X216667000Y-56165531D01*
X216413000Y-56165531D01*
X216180973Y-56045032D01*
X215651510Y-56293179D01*
X215484529Y-56476119D01*
X215401927Y-56276701D01*
X215223298Y-56098073D01*
X214989909Y-56001400D01*
X214285750Y-56001400D01*
X214127000Y-56160150D01*
X213873000Y-56160150D01*
X213714250Y-56001400D01*
X213010091Y-56001400D01*
X212776702Y-56098073D01*
X212598073Y-56276701D01*
X212501400Y-56510090D01*
X202626479Y-56510090D01*
X202428490Y-56293179D01*
X201899027Y-56045032D01*
X201667000Y-56165531D01*
X201413000Y-56165531D01*
X201180973Y-56045032D01*
X200651510Y-56293179D01*
X200484529Y-56476119D01*
X200401927Y-56276701D01*
X200223298Y-56098073D01*
X199989909Y-56001400D01*
X199285750Y-56001400D01*
X199127000Y-56160150D01*
X198873000Y-56160150D01*
X198714250Y-56001400D01*
X198010091Y-56001400D01*
X197776702Y-56098073D01*
X197598073Y-56276701D01*
X197501400Y-56510090D01*
X187626479Y-56510090D01*
X187428490Y-56293179D01*
X186899027Y-56045032D01*
X186667000Y-56165531D01*
X186413000Y-56165531D01*
X186180973Y-56045032D01*
X185651510Y-56293179D01*
X185484529Y-56476119D01*
X185401927Y-56276701D01*
X185223298Y-56098073D01*
X184989909Y-56001400D01*
X184285750Y-56001400D01*
X184127000Y-56160150D01*
X183873000Y-56160150D01*
X183714250Y-56001400D01*
X183010091Y-56001400D01*
X182776702Y-56098073D01*
X182598073Y-56276701D01*
X182501400Y-56510090D01*
X179966363Y-56510090D01*
X179983845Y-56492608D01*
X180385000Y-55524134D01*
X180385000Y-54475866D01*
X234865000Y-54475866D01*
X234865000Y-55524134D01*
X235266155Y-56492608D01*
X236007392Y-57233845D01*
X236975866Y-57635000D01*
X238024134Y-57635000D01*
X238992608Y-57233845D01*
X239733845Y-56492608D01*
X240135000Y-55524134D01*
X240135000Y-54475866D01*
X239733845Y-53507392D01*
X238992608Y-52766155D01*
X238024134Y-52365000D01*
X236975866Y-52365000D01*
X236007392Y-52766155D01*
X235266155Y-53507392D01*
X234865000Y-54475866D01*
X180385000Y-54475866D01*
X179983845Y-53507392D01*
X179242608Y-52766155D01*
X178274134Y-52365000D01*
X177225866Y-52365000D01*
X176257392Y-52766155D01*
X175516155Y-53507392D01*
X175115000Y-54475866D01*
X120385000Y-54475866D01*
X119983845Y-53507392D01*
X119242608Y-52766155D01*
X118274134Y-52365000D01*
X117225866Y-52365000D01*
X116257392Y-52766155D01*
X115516155Y-53507392D01*
X115115000Y-54475866D01*
X60135000Y-54475866D01*
X59733845Y-53507392D01*
X58992608Y-52766155D01*
X58024134Y-52365000D01*
X56975866Y-52365000D01*
X56007392Y-52766155D01*
X55266155Y-53507392D01*
X54865000Y-54475866D01*
X47946261Y-54475866D01*
X46990000Y-53519605D01*
X45980902Y-54528703D01*
X42710000Y-54528703D01*
X42710000Y-53063526D01*
X45294381Y-53063526D01*
X45317651Y-53733456D01*
X45529255Y-54244313D01*
X45801297Y-54349098D01*
X46810395Y-53340000D01*
X47169605Y-53340000D01*
X48178703Y-54349098D01*
X48450745Y-54244313D01*
X48685619Y-53616474D01*
X48662349Y-52946544D01*
X48450745Y-52435687D01*
X48178703Y-52330902D01*
X47169605Y-53340000D01*
X46810395Y-53340000D01*
X45801297Y-52330902D01*
X45529255Y-52435687D01*
X45294381Y-53063526D01*
X42710000Y-53063526D01*
X42710000Y-52151297D01*
X45980902Y-52151297D01*
X46990000Y-53160395D01*
X47999098Y-52151297D01*
X47894313Y-51879255D01*
X47266474Y-51644381D01*
X46596544Y-51667651D01*
X46085687Y-51879255D01*
X45980902Y-52151297D01*
X42710000Y-52151297D01*
X42710000Y-51210000D01*
X241290000Y-51210000D01*
X241290000Y-60373000D01*
X241290000Y-60373000D01*
G37*
X241290000Y-60373000D02*
X233001721Y-60373000D01*
X233067959Y-60040000D01*
X232951650Y-59455275D01*
X232620430Y-58959570D01*
X232318979Y-58758146D01*
X232428490Y-58706821D01*
X232822688Y-58274947D01*
X232994958Y-57859026D01*
X232873817Y-57627000D01*
X231667000Y-57627000D01*
X231667000Y-57647000D01*
X231413000Y-57647000D01*
X231413000Y-57627000D01*
X229127000Y-57627000D01*
X229127000Y-57647000D01*
X228873000Y-57647000D01*
X228873000Y-57627000D01*
X227660150Y-57627000D01*
X227501400Y-57785750D01*
X227501400Y-58489910D01*
X227598073Y-58723299D01*
X227776702Y-58901927D01*
X227918767Y-58960772D01*
X227588350Y-59455275D01*
X227472041Y-60040000D01*
X227538279Y-60373000D01*
X218001721Y-60373000D01*
X218067959Y-60040000D01*
X217951650Y-59455275D01*
X217620430Y-58959570D01*
X217318979Y-58758146D01*
X217428490Y-58706821D01*
X217822688Y-58274947D01*
X217994958Y-57859026D01*
X217873817Y-57627000D01*
X216667000Y-57627000D01*
X216667000Y-57647000D01*
X216413000Y-57647000D01*
X216413000Y-57627000D01*
X214127000Y-57627000D01*
X214127000Y-57647000D01*
X213873000Y-57647000D01*
X213873000Y-57627000D01*
X212660150Y-57627000D01*
X212501400Y-57785750D01*
X212501400Y-58489910D01*
X212598073Y-58723299D01*
X212776702Y-58901927D01*
X212918767Y-58960772D01*
X212588350Y-59455275D01*
X212472041Y-60040000D01*
X212538279Y-60373000D01*
X203001721Y-60373000D01*
X203067959Y-60040000D01*
X202951650Y-59455275D01*
X202620430Y-58959570D01*
X202318979Y-58758146D01*
X202428490Y-58706821D01*
X202822688Y-58274947D01*
X202994958Y-57859026D01*
X202873817Y-57627000D01*
X201667000Y-57627000D01*
X201667000Y-57647000D01*
X201413000Y-57647000D01*
X201413000Y-57627000D01*
X199127000Y-57627000D01*
X199127000Y-57647000D01*
X198873000Y-57647000D01*
X198873000Y-57627000D01*
X197660150Y-57627000D01*
X197501400Y-57785750D01*
X197501400Y-58489910D01*
X197598073Y-58723299D01*
X197776702Y-58901927D01*
X197918767Y-58960772D01*
X197588350Y-59455275D01*
X197472041Y-60040000D01*
X197538279Y-60373000D01*
X188001721Y-60373000D01*
X188067959Y-60040000D01*
X187951650Y-59455275D01*
X187620430Y-58959570D01*
X187318979Y-58758146D01*
X187428490Y-58706821D01*
X187822688Y-58274947D01*
X187994958Y-57859026D01*
X187873817Y-57627000D01*
X186667000Y-57627000D01*
X186667000Y-57647000D01*
X186413000Y-57647000D01*
X186413000Y-57627000D01*
X184127000Y-57627000D01*
X184127000Y-57647000D01*
X183873000Y-57647000D01*
X183873000Y-57627000D01*
X182660150Y-57627000D01*
X182501400Y-57785750D01*
X182501400Y-58489910D01*
X182598073Y-58723299D01*
X182776702Y-58901927D01*
X182918767Y-58960772D01*
X182588350Y-59455275D01*
X182472041Y-60040000D01*
X182538279Y-60373000D01*
X173001721Y-60373000D01*
X173067959Y-60040000D01*
X172951650Y-59455275D01*
X172620430Y-58959570D01*
X172318979Y-58758146D01*
X172428490Y-58706821D01*
X172822688Y-58274947D01*
X172994958Y-57859026D01*
X172873817Y-57627000D01*
X171667000Y-57627000D01*
X171667000Y-57647000D01*
X171413000Y-57647000D01*
X171413000Y-57627000D01*
X169127000Y-57627000D01*
X169127000Y-57647000D01*
X168873000Y-57647000D01*
X168873000Y-57627000D01*
X167660150Y-57627000D01*
X167501400Y-57785750D01*
X167501400Y-58489910D01*
X167598073Y-58723299D01*
X167776702Y-58901927D01*
X167918767Y-58960772D01*
X167588350Y-59455275D01*
X167472041Y-60040000D01*
X167538279Y-60373000D01*
X158001721Y-60373000D01*
X158067959Y-60040000D01*
X157951650Y-59455275D01*
X157620430Y-58959570D01*
X157318979Y-58758146D01*
X157428490Y-58706821D01*
X157822688Y-58274947D01*
X157994958Y-57859026D01*
X157873817Y-57627000D01*
X156667000Y-57627000D01*
X156667000Y-57647000D01*
X156413000Y-57647000D01*
X156413000Y-57627000D01*
X154127000Y-57627000D01*
X154127000Y-57647000D01*
X153873000Y-57647000D01*
X153873000Y-57627000D01*
X152660150Y-57627000D01*
X152501400Y-57785750D01*
X152501400Y-58489910D01*
X152598073Y-58723299D01*
X152776702Y-58901927D01*
X152918767Y-58960772D01*
X152588350Y-59455275D01*
X152472041Y-60040000D01*
X152538279Y-60373000D01*
X142977852Y-60373000D01*
X143067959Y-59920000D01*
X142951650Y-59335275D01*
X142620430Y-58839570D01*
X142318979Y-58638146D01*
X142428490Y-58586821D01*
X142822688Y-58154947D01*
X142994958Y-57739026D01*
X142873817Y-57507000D01*
X141667000Y-57507000D01*
X141667000Y-57527000D01*
X141413000Y-57527000D01*
X141413000Y-57507000D01*
X139127000Y-57507000D01*
X139127000Y-57527000D01*
X138873000Y-57527000D01*
X138873000Y-57507000D01*
X137660150Y-57507000D01*
X137501400Y-57665750D01*
X137501400Y-58369910D01*
X137598073Y-58603299D01*
X137776702Y-58781927D01*
X137918767Y-58840772D01*
X137588350Y-59335275D01*
X137472041Y-59920000D01*
X137562148Y-60373000D01*
X127985808Y-60373000D01*
X128067959Y-59960000D01*
X127951650Y-59375275D01*
X127620430Y-58879570D01*
X127318979Y-58678146D01*
X127428490Y-58626821D01*
X127822688Y-58194947D01*
X127994958Y-57779026D01*
X127873817Y-57547000D01*
X126667000Y-57547000D01*
X126667000Y-57567000D01*
X126413000Y-57567000D01*
X126413000Y-57547000D01*
X124127000Y-57547000D01*
X124127000Y-57567000D01*
X123873000Y-57567000D01*
X123873000Y-57547000D01*
X122660150Y-57547000D01*
X122501400Y-57705750D01*
X122501400Y-58409910D01*
X122598073Y-58643299D01*
X122776702Y-58821927D01*
X122918767Y-58880772D01*
X122588350Y-59375275D01*
X122472041Y-59960000D01*
X122554192Y-60373000D01*
X112985808Y-60373000D01*
X113067959Y-59960000D01*
X112951650Y-59375275D01*
X112620430Y-58879570D01*
X112318979Y-58678146D01*
X112428490Y-58626821D01*
X112822688Y-58194947D01*
X112994958Y-57779026D01*
X112873817Y-57547000D01*
X111667000Y-57547000D01*
X111667000Y-57567000D01*
X111413000Y-57567000D01*
X111413000Y-57547000D01*
X109127000Y-57547000D01*
X109127000Y-57567000D01*
X108873000Y-57567000D01*
X108873000Y-57547000D01*
X107660150Y-57547000D01*
X107501400Y-57705750D01*
X107501400Y-58409910D01*
X107598073Y-58643299D01*
X107776702Y-58821927D01*
X107918767Y-58880772D01*
X107588350Y-59375275D01*
X107472041Y-59960000D01*
X107554192Y-60373000D01*
X103898731Y-60373000D01*
X103935000Y-60285439D01*
X103935000Y-59714561D01*
X103716534Y-59187138D01*
X103312862Y-58783466D01*
X103260000Y-58761570D01*
X103260000Y-58354801D01*
X103625161Y-57989640D01*
X103734670Y-58035000D01*
X104345330Y-58035000D01*
X104909507Y-57801310D01*
X105341310Y-57369507D01*
X105575000Y-56805330D01*
X105575000Y-56430090D01*
X107501400Y-56430090D01*
X107501400Y-57134250D01*
X107660150Y-57293000D01*
X108873000Y-57293000D01*
X108873000Y-56080150D01*
X109127000Y-56080150D01*
X109127000Y-57293000D01*
X111413000Y-57293000D01*
X111413000Y-56085531D01*
X111667000Y-56085531D01*
X111667000Y-57293000D01*
X112873817Y-57293000D01*
X112994958Y-57060974D01*
X112822688Y-56645053D01*
X112428490Y-56213179D01*
X111899027Y-55965032D01*
X111667000Y-56085531D01*
X111413000Y-56085531D01*
X111180973Y-55965032D01*
X110651510Y-56213179D01*
X110484529Y-56396119D01*
X110401927Y-56196701D01*
X110223298Y-56018073D01*
X109989909Y-55921400D01*
X109285750Y-55921400D01*
X109127000Y-56080150D01*
X108873000Y-56080150D01*
X108714250Y-55921400D01*
X108010091Y-55921400D01*
X107776702Y-56018073D01*
X107598073Y-56196701D01*
X107501400Y-56430090D01*
X105575000Y-56430090D01*
X105575000Y-56194670D01*
X105341310Y-55630493D01*
X104909507Y-55198690D01*
X104345330Y-54965000D01*
X103734670Y-54965000D01*
X103170493Y-55198690D01*
X103001275Y-55367908D01*
X102998157Y-55352235D01*
X102857809Y-55142191D01*
X102647765Y-55001843D01*
X102400000Y-54952560D01*
X100600000Y-54952560D01*
X100352235Y-55001843D01*
X100142191Y-55142191D01*
X100001843Y-55352235D01*
X99952560Y-55600000D01*
X99952560Y-57400000D01*
X100001843Y-57647765D01*
X100142191Y-57857809D01*
X100352235Y-57998157D01*
X100600000Y-58047440D01*
X101726592Y-58047440D01*
X101740000Y-58114847D01*
X101740000Y-58761570D01*
X101687138Y-58783466D01*
X101283466Y-59187138D01*
X101065000Y-59714561D01*
X101065000Y-60285439D01*
X101101269Y-60373000D01*
X98001721Y-60373000D01*
X98067959Y-60040000D01*
X97951650Y-59455275D01*
X97620430Y-58959570D01*
X97318979Y-58758146D01*
X97428490Y-58706821D01*
X97822688Y-58274947D01*
X97994958Y-57859026D01*
X97873817Y-57627000D01*
X96667000Y-57627000D01*
X96667000Y-57647000D01*
X96413000Y-57647000D01*
X96413000Y-57627000D01*
X94127000Y-57627000D01*
X94127000Y-57647000D01*
X93873000Y-57647000D01*
X93873000Y-57627000D01*
X92660150Y-57627000D01*
X92501400Y-57785750D01*
X92501400Y-58489910D01*
X92598073Y-58723299D01*
X92776702Y-58901927D01*
X92918767Y-58960772D01*
X92588350Y-59455275D01*
X92472041Y-60040000D01*
X92538279Y-60373000D01*
X89800000Y-60373000D01*
X89800000Y-57846669D01*
X89909507Y-57801310D01*
X90341310Y-57369507D01*
X90575000Y-56805330D01*
X90575000Y-56510090D01*
X92501400Y-56510090D01*
X92501400Y-57214250D01*
X92660150Y-57373000D01*
X93873000Y-57373000D01*
X93873000Y-56160150D01*
X94127000Y-56160150D01*
X94127000Y-57373000D01*
X96413000Y-57373000D01*
X96413000Y-56165531D01*
X96667000Y-56165531D01*
X96667000Y-57373000D01*
X97873817Y-57373000D01*
X97994958Y-57140974D01*
X97822688Y-56725053D01*
X97428490Y-56293179D01*
X96899027Y-56045032D01*
X96667000Y-56165531D01*
X96413000Y-56165531D01*
X96180973Y-56045032D01*
X95651510Y-56293179D01*
X95484529Y-56476119D01*
X95401927Y-56276701D01*
X95223298Y-56098073D01*
X94989909Y-56001400D01*
X94285750Y-56001400D01*
X94127000Y-56160150D01*
X93873000Y-56160150D01*
X93714250Y-56001400D01*
X93010091Y-56001400D01*
X92776702Y-56098073D01*
X92598073Y-56276701D01*
X92501400Y-56510090D01*
X90575000Y-56510090D01*
X90575000Y-56194670D01*
X90341310Y-55630493D01*
X89909507Y-55198690D01*
X89345330Y-54965000D01*
X88734670Y-54965000D01*
X88170493Y-55198690D01*
X87994139Y-55375044D01*
X87938327Y-55240301D01*
X87759698Y-55061673D01*
X87526309Y-54965000D01*
X86785750Y-54965000D01*
X86627000Y-55123750D01*
X86627000Y-56373000D01*
X86647000Y-56373000D01*
X86647000Y-56627000D01*
X86627000Y-56627000D01*
X86627000Y-57876250D01*
X86785750Y-58035000D01*
X87526309Y-58035000D01*
X87759698Y-57938327D01*
X87938327Y-57759699D01*
X87994139Y-57624956D01*
X88170493Y-57801310D01*
X88280001Y-57846670D01*
X88280001Y-58769854D01*
X87785439Y-58565000D01*
X87214561Y-58565000D01*
X86687138Y-58783466D01*
X86283466Y-59187138D01*
X86065000Y-59714561D01*
X86065000Y-60285439D01*
X86101269Y-60373000D01*
X83001721Y-60373000D01*
X83067959Y-60040000D01*
X82951650Y-59455275D01*
X82620430Y-58959570D01*
X82318979Y-58758146D01*
X82428490Y-58706821D01*
X82822688Y-58274947D01*
X82994958Y-57859026D01*
X82873817Y-57627000D01*
X81667000Y-57627000D01*
X81667000Y-57647000D01*
X81413000Y-57647000D01*
X81413000Y-57627000D01*
X79127000Y-57627000D01*
X79127000Y-57647000D01*
X78873000Y-57647000D01*
X78873000Y-57627000D01*
X77660150Y-57627000D01*
X77501400Y-57785750D01*
X77501400Y-58489910D01*
X77598073Y-58723299D01*
X77776702Y-58901927D01*
X77918767Y-58960772D01*
X77588350Y-59455275D01*
X77472041Y-60040000D01*
X77538279Y-60373000D01*
X73898731Y-60373000D01*
X73935000Y-60285439D01*
X73935000Y-59714561D01*
X73716534Y-59187138D01*
X73312862Y-58783466D01*
X73260000Y-58761570D01*
X73260000Y-58354801D01*
X73625161Y-57989640D01*
X73734670Y-58035000D01*
X74345330Y-58035000D01*
X74909507Y-57801310D01*
X75341310Y-57369507D01*
X75575000Y-56805330D01*
X75575000Y-56510090D01*
X77501400Y-56510090D01*
X77501400Y-57214250D01*
X77660150Y-57373000D01*
X78873000Y-57373000D01*
X78873000Y-56160150D01*
X79127000Y-56160150D01*
X79127000Y-57373000D01*
X81413000Y-57373000D01*
X81413000Y-56165531D01*
X81667000Y-56165531D01*
X81667000Y-57373000D01*
X82873817Y-57373000D01*
X82994958Y-57140974D01*
X82847829Y-56785750D01*
X84965000Y-56785750D01*
X84965000Y-57526310D01*
X85061673Y-57759699D01*
X85240302Y-57938327D01*
X85473691Y-58035000D01*
X86214250Y-58035000D01*
X86373000Y-57876250D01*
X86373000Y-56627000D01*
X85123750Y-56627000D01*
X84965000Y-56785750D01*
X82847829Y-56785750D01*
X82822688Y-56725053D01*
X82428490Y-56293179D01*
X81899027Y-56045032D01*
X81667000Y-56165531D01*
X81413000Y-56165531D01*
X81180973Y-56045032D01*
X80651510Y-56293179D01*
X80484529Y-56476119D01*
X80401927Y-56276701D01*
X80223298Y-56098073D01*
X79989909Y-56001400D01*
X79285750Y-56001400D01*
X79127000Y-56160150D01*
X78873000Y-56160150D01*
X78714250Y-56001400D01*
X78010091Y-56001400D01*
X77776702Y-56098073D01*
X77598073Y-56276701D01*
X77501400Y-56510090D01*
X75575000Y-56510090D01*
X75575000Y-56194670D01*
X75341310Y-55630493D01*
X75184507Y-55473690D01*
X84965000Y-55473690D01*
X84965000Y-56214250D01*
X85123750Y-56373000D01*
X86373000Y-56373000D01*
X86373000Y-55123750D01*
X86214250Y-54965000D01*
X85473691Y-54965000D01*
X85240302Y-55061673D01*
X85061673Y-55240301D01*
X84965000Y-55473690D01*
X75184507Y-55473690D01*
X74909507Y-55198690D01*
X74345330Y-54965000D01*
X73734670Y-54965000D01*
X73170493Y-55198690D01*
X73001275Y-55367908D01*
X72998157Y-55352235D01*
X72857809Y-55142191D01*
X72647765Y-55001843D01*
X72400000Y-54952560D01*
X70600000Y-54952560D01*
X70352235Y-55001843D01*
X70142191Y-55142191D01*
X70001843Y-55352235D01*
X69952560Y-55600000D01*
X69952560Y-57400000D01*
X70001843Y-57647765D01*
X70142191Y-57857809D01*
X70352235Y-57998157D01*
X70600000Y-58047440D01*
X71726592Y-58047440D01*
X71740000Y-58114847D01*
X71740000Y-58761570D01*
X71687138Y-58783466D01*
X71283466Y-59187138D01*
X71065000Y-59714561D01*
X71065000Y-60285439D01*
X71101269Y-60373000D01*
X67921721Y-60373000D01*
X67987959Y-60040000D01*
X67871650Y-59455275D01*
X67540430Y-58959570D01*
X67238979Y-58758146D01*
X67348490Y-58706821D01*
X67742688Y-58274947D01*
X67914958Y-57859026D01*
X67793817Y-57627000D01*
X66587000Y-57627000D01*
X66587000Y-57647000D01*
X66333000Y-57647000D01*
X66333000Y-57627000D01*
X64047000Y-57627000D01*
X64047000Y-57647000D01*
X63793000Y-57647000D01*
X63793000Y-57627000D01*
X62580150Y-57627000D01*
X62421400Y-57785750D01*
X62421400Y-58489910D01*
X62518073Y-58723299D01*
X62696702Y-58901927D01*
X62838767Y-58960772D01*
X62508350Y-59455275D01*
X62392041Y-60040000D01*
X62458279Y-60373000D01*
X42710000Y-60373000D01*
X42710000Y-58084833D01*
X45305000Y-58084833D01*
X45305000Y-58755167D01*
X45561526Y-59374476D01*
X46035524Y-59848474D01*
X46654833Y-60105000D01*
X47325167Y-60105000D01*
X47944476Y-59848474D01*
X48418474Y-59374476D01*
X48675000Y-58755167D01*
X48675000Y-58084833D01*
X48418474Y-57465524D01*
X47944476Y-56991526D01*
X47325167Y-56735000D01*
X46654833Y-56735000D01*
X46035524Y-56991526D01*
X45561526Y-57465524D01*
X45305000Y-58084833D01*
X42710000Y-58084833D01*
X42710000Y-54528703D01*
X45980902Y-54528703D01*
X46085687Y-54800745D01*
X46713526Y-55035619D01*
X47383456Y-55012349D01*
X47894313Y-54800745D01*
X47999098Y-54528703D01*
X47946261Y-54475866D01*
X54865000Y-54475866D01*
X54865000Y-55524134D01*
X55266155Y-56492608D01*
X56007392Y-57233845D01*
X56975866Y-57635000D01*
X58024134Y-57635000D01*
X58992608Y-57233845D01*
X59716363Y-56510090D01*
X62421400Y-56510090D01*
X62421400Y-57214250D01*
X62580150Y-57373000D01*
X63793000Y-57373000D01*
X63793000Y-56160150D01*
X64047000Y-56160150D01*
X64047000Y-57373000D01*
X66333000Y-57373000D01*
X66333000Y-56165531D01*
X66587000Y-56165531D01*
X66587000Y-57373000D01*
X67793817Y-57373000D01*
X67914958Y-57140974D01*
X67742688Y-56725053D01*
X67348490Y-56293179D01*
X66819027Y-56045032D01*
X66587000Y-56165531D01*
X66333000Y-56165531D01*
X66100973Y-56045032D01*
X65571510Y-56293179D01*
X65404529Y-56476119D01*
X65321927Y-56276701D01*
X65143298Y-56098073D01*
X64909909Y-56001400D01*
X64205750Y-56001400D01*
X64047000Y-56160150D01*
X63793000Y-56160150D01*
X63634250Y-56001400D01*
X62930091Y-56001400D01*
X62696702Y-56098073D01*
X62518073Y-56276701D01*
X62421400Y-56510090D01*
X59716363Y-56510090D01*
X59733845Y-56492608D01*
X60135000Y-55524134D01*
X60135000Y-54475866D01*
X115115000Y-54475866D01*
X115115000Y-55524134D01*
X115516155Y-56492608D01*
X116257392Y-57233845D01*
X117225866Y-57635000D01*
X118274134Y-57635000D01*
X119242608Y-57233845D01*
X119983845Y-56492608D01*
X120009740Y-56430090D01*
X122501400Y-56430090D01*
X122501400Y-57134250D01*
X122660150Y-57293000D01*
X123873000Y-57293000D01*
X123873000Y-56080150D01*
X124127000Y-56080150D01*
X124127000Y-57293000D01*
X126413000Y-57293000D01*
X126413000Y-56085531D01*
X126667000Y-56085531D01*
X126667000Y-57293000D01*
X127873817Y-57293000D01*
X127994958Y-57060974D01*
X127822688Y-56645053D01*
X127589968Y-56390090D01*
X137501400Y-56390090D01*
X137501400Y-57094250D01*
X137660150Y-57253000D01*
X138873000Y-57253000D01*
X138873000Y-56040150D01*
X139127000Y-56040150D01*
X139127000Y-57253000D01*
X141413000Y-57253000D01*
X141413000Y-56045531D01*
X141667000Y-56045531D01*
X141667000Y-57253000D01*
X142873817Y-57253000D01*
X142994958Y-57020974D01*
X142822688Y-56605053D01*
X142736010Y-56510090D01*
X152501400Y-56510090D01*
X152501400Y-57214250D01*
X152660150Y-57373000D01*
X153873000Y-57373000D01*
X153873000Y-56160150D01*
X154127000Y-56160150D01*
X154127000Y-57373000D01*
X156413000Y-57373000D01*
X156413000Y-56165531D01*
X156667000Y-56165531D01*
X156667000Y-57373000D01*
X157873817Y-57373000D01*
X157994958Y-57140974D01*
X157822688Y-56725053D01*
X157626479Y-56510090D01*
X167501400Y-56510090D01*
X167501400Y-57214250D01*
X167660150Y-57373000D01*
X168873000Y-57373000D01*
X168873000Y-56160150D01*
X169127000Y-56160150D01*
X169127000Y-57373000D01*
X171413000Y-57373000D01*
X171413000Y-56165531D01*
X171667000Y-56165531D01*
X171667000Y-57373000D01*
X172873817Y-57373000D01*
X172994958Y-57140974D01*
X172822688Y-56725053D01*
X172428490Y-56293179D01*
X171899027Y-56045032D01*
X171667000Y-56165531D01*
X171413000Y-56165531D01*
X171180973Y-56045032D01*
X170651510Y-56293179D01*
X170484529Y-56476119D01*
X170401927Y-56276701D01*
X170223298Y-56098073D01*
X169989909Y-56001400D01*
X169285750Y-56001400D01*
X169127000Y-56160150D01*
X168873000Y-56160150D01*
X168714250Y-56001400D01*
X168010091Y-56001400D01*
X167776702Y-56098073D01*
X167598073Y-56276701D01*
X167501400Y-56510090D01*
X157626479Y-56510090D01*
X157428490Y-56293179D01*
X156899027Y-56045032D01*
X156667000Y-56165531D01*
X156413000Y-56165531D01*
X156180973Y-56045032D01*
X155651510Y-56293179D01*
X155484529Y-56476119D01*
X155401927Y-56276701D01*
X155223298Y-56098073D01*
X154989909Y-56001400D01*
X154285750Y-56001400D01*
X154127000Y-56160150D01*
X153873000Y-56160150D01*
X153714250Y-56001400D01*
X153010091Y-56001400D01*
X152776702Y-56098073D01*
X152598073Y-56276701D01*
X152501400Y-56510090D01*
X142736010Y-56510090D01*
X142428490Y-56173179D01*
X141899027Y-55925032D01*
X141667000Y-56045531D01*
X141413000Y-56045531D01*
X141180973Y-55925032D01*
X140651510Y-56173179D01*
X140484529Y-56356119D01*
X140401927Y-56156701D01*
X140223298Y-55978073D01*
X139989909Y-55881400D01*
X139285750Y-55881400D01*
X139127000Y-56040150D01*
X138873000Y-56040150D01*
X138714250Y-55881400D01*
X138010091Y-55881400D01*
X137776702Y-55978073D01*
X137598073Y-56156701D01*
X137501400Y-56390090D01*
X127589968Y-56390090D01*
X127428490Y-56213179D01*
X126899027Y-55965032D01*
X126667000Y-56085531D01*
X126413000Y-56085531D01*
X126180973Y-55965032D01*
X125651510Y-56213179D01*
X125484529Y-56396119D01*
X125401927Y-56196701D01*
X125223298Y-56018073D01*
X124989909Y-55921400D01*
X124285750Y-55921400D01*
X124127000Y-56080150D01*
X123873000Y-56080150D01*
X123714250Y-55921400D01*
X123010091Y-55921400D01*
X122776702Y-56018073D01*
X122598073Y-56196701D01*
X122501400Y-56430090D01*
X120009740Y-56430090D01*
X120385000Y-55524134D01*
X120385000Y-54475866D01*
X175115000Y-54475866D01*
X175115000Y-55524134D01*
X175516155Y-56492608D01*
X176257392Y-57233845D01*
X177225866Y-57635000D01*
X178274134Y-57635000D01*
X179242608Y-57233845D01*
X179966363Y-56510090D01*
X182501400Y-56510090D01*
X182501400Y-57214250D01*
X182660150Y-57373000D01*
X183873000Y-57373000D01*
X183873000Y-56160150D01*
X184127000Y-56160150D01*
X184127000Y-57373000D01*
X186413000Y-57373000D01*
X186413000Y-56165531D01*
X186667000Y-56165531D01*
X186667000Y-57373000D01*
X187873817Y-57373000D01*
X187994958Y-57140974D01*
X187822688Y-56725053D01*
X187626479Y-56510090D01*
X197501400Y-56510090D01*
X197501400Y-57214250D01*
X197660150Y-57373000D01*
X198873000Y-57373000D01*
X198873000Y-56160150D01*
X199127000Y-56160150D01*
X199127000Y-57373000D01*
X201413000Y-57373000D01*
X201413000Y-56165531D01*
X201667000Y-56165531D01*
X201667000Y-57373000D01*
X202873817Y-57373000D01*
X202994958Y-57140974D01*
X202822688Y-56725053D01*
X202626479Y-56510090D01*
X212501400Y-56510090D01*
X212501400Y-57214250D01*
X212660150Y-57373000D01*
X213873000Y-57373000D01*
X213873000Y-56160150D01*
X214127000Y-56160150D01*
X214127000Y-57373000D01*
X216413000Y-57373000D01*
X216413000Y-56165531D01*
X216667000Y-56165531D01*
X216667000Y-57373000D01*
X217873817Y-57373000D01*
X217994958Y-57140974D01*
X217822688Y-56725053D01*
X217626479Y-56510090D01*
X227501400Y-56510090D01*
X227501400Y-57214250D01*
X227660150Y-57373000D01*
X228873000Y-57373000D01*
X228873000Y-56160150D01*
X229127000Y-56160150D01*
X229127000Y-57373000D01*
X231413000Y-57373000D01*
X231413000Y-56165531D01*
X231667000Y-56165531D01*
X231667000Y-57373000D01*
X232873817Y-57373000D01*
X232994958Y-57140974D01*
X232822688Y-56725053D01*
X232428490Y-56293179D01*
X231899027Y-56045032D01*
X231667000Y-56165531D01*
X231413000Y-56165531D01*
X231180973Y-56045032D01*
X230651510Y-56293179D01*
X230484529Y-56476119D01*
X230401927Y-56276701D01*
X230223298Y-56098073D01*
X229989909Y-56001400D01*
X229285750Y-56001400D01*
X229127000Y-56160150D01*
X228873000Y-56160150D01*
X228714250Y-56001400D01*
X228010091Y-56001400D01*
X227776702Y-56098073D01*
X227598073Y-56276701D01*
X227501400Y-56510090D01*
X217626479Y-56510090D01*
X217428490Y-56293179D01*
X216899027Y-56045032D01*
X216667000Y-56165531D01*
X216413000Y-56165531D01*
X216180973Y-56045032D01*
X215651510Y-56293179D01*
X215484529Y-56476119D01*
X215401927Y-56276701D01*
X215223298Y-56098073D01*
X214989909Y-56001400D01*
X214285750Y-56001400D01*
X214127000Y-56160150D01*
X213873000Y-56160150D01*
X213714250Y-56001400D01*
X213010091Y-56001400D01*
X212776702Y-56098073D01*
X212598073Y-56276701D01*
X212501400Y-56510090D01*
X202626479Y-56510090D01*
X202428490Y-56293179D01*
X201899027Y-56045032D01*
X201667000Y-56165531D01*
X201413000Y-56165531D01*
X201180973Y-56045032D01*
X200651510Y-56293179D01*
X200484529Y-56476119D01*
X200401927Y-56276701D01*
X200223298Y-56098073D01*
X199989909Y-56001400D01*
X199285750Y-56001400D01*
X199127000Y-56160150D01*
X198873000Y-56160150D01*
X198714250Y-56001400D01*
X198010091Y-56001400D01*
X197776702Y-56098073D01*
X197598073Y-56276701D01*
X197501400Y-56510090D01*
X187626479Y-56510090D01*
X187428490Y-56293179D01*
X186899027Y-56045032D01*
X186667000Y-56165531D01*
X186413000Y-56165531D01*
X186180973Y-56045032D01*
X185651510Y-56293179D01*
X185484529Y-56476119D01*
X185401927Y-56276701D01*
X185223298Y-56098073D01*
X184989909Y-56001400D01*
X184285750Y-56001400D01*
X184127000Y-56160150D01*
X183873000Y-56160150D01*
X183714250Y-56001400D01*
X183010091Y-56001400D01*
X182776702Y-56098073D01*
X182598073Y-56276701D01*
X182501400Y-56510090D01*
X179966363Y-56510090D01*
X179983845Y-56492608D01*
X180385000Y-55524134D01*
X180385000Y-54475866D01*
X234865000Y-54475866D01*
X234865000Y-55524134D01*
X235266155Y-56492608D01*
X236007392Y-57233845D01*
X236975866Y-57635000D01*
X238024134Y-57635000D01*
X238992608Y-57233845D01*
X239733845Y-56492608D01*
X240135000Y-55524134D01*
X240135000Y-54475866D01*
X239733845Y-53507392D01*
X238992608Y-52766155D01*
X238024134Y-52365000D01*
X236975866Y-52365000D01*
X236007392Y-52766155D01*
X235266155Y-53507392D01*
X234865000Y-54475866D01*
X180385000Y-54475866D01*
X179983845Y-53507392D01*
X179242608Y-52766155D01*
X178274134Y-52365000D01*
X177225866Y-52365000D01*
X176257392Y-52766155D01*
X175516155Y-53507392D01*
X175115000Y-54475866D01*
X120385000Y-54475866D01*
X119983845Y-53507392D01*
X119242608Y-52766155D01*
X118274134Y-52365000D01*
X117225866Y-52365000D01*
X116257392Y-52766155D01*
X115516155Y-53507392D01*
X115115000Y-54475866D01*
X60135000Y-54475866D01*
X59733845Y-53507392D01*
X58992608Y-52766155D01*
X58024134Y-52365000D01*
X56975866Y-52365000D01*
X56007392Y-52766155D01*
X55266155Y-53507392D01*
X54865000Y-54475866D01*
X47946261Y-54475866D01*
X46990000Y-53519605D01*
X45980902Y-54528703D01*
X42710000Y-54528703D01*
X42710000Y-53063526D01*
X45294381Y-53063526D01*
X45317651Y-53733456D01*
X45529255Y-54244313D01*
X45801297Y-54349098D01*
X46810395Y-53340000D01*
X47169605Y-53340000D01*
X48178703Y-54349098D01*
X48450745Y-54244313D01*
X48685619Y-53616474D01*
X48662349Y-52946544D01*
X48450745Y-52435687D01*
X48178703Y-52330902D01*
X47169605Y-53340000D01*
X46810395Y-53340000D01*
X45801297Y-52330902D01*
X45529255Y-52435687D01*
X45294381Y-53063526D01*
X42710000Y-53063526D01*
X42710000Y-52151297D01*
X45980902Y-52151297D01*
X46990000Y-53160395D01*
X47999098Y-52151297D01*
X47894313Y-51879255D01*
X47266474Y-51644381D01*
X46596544Y-51667651D01*
X46085687Y-51879255D01*
X45980902Y-52151297D01*
X42710000Y-52151297D01*
X42710000Y-51210000D01*
X241290000Y-51210000D01*
X241290000Y-60373000D01*
G04 #@! TO.N,+12V*
G36*
X62508350Y-61995275D02*
X62392041Y-62580000D01*
X62508350Y-63164725D01*
X62839570Y-63660430D01*
X63123281Y-63850000D01*
X62839570Y-64039570D01*
X62508350Y-64535275D01*
X62392041Y-65120000D01*
X62508350Y-65704725D01*
X62839570Y-66200430D01*
X63141021Y-66401854D01*
X63031510Y-66453179D01*
X62637312Y-66885053D01*
X62465042Y-67300974D01*
X62586183Y-67533000D01*
X63793000Y-67533000D01*
X63793000Y-67513000D01*
X64047000Y-67513000D01*
X64047000Y-67533000D01*
X66333000Y-67533000D01*
X66333000Y-67513000D01*
X66587000Y-67513000D01*
X66587000Y-67533000D01*
X67793817Y-67533000D01*
X67914958Y-67300974D01*
X67902527Y-67270959D01*
X71108086Y-67270959D01*
X71229371Y-67493000D01*
X72373000Y-67493000D01*
X72373000Y-66350085D01*
X72627000Y-66350085D01*
X72627000Y-67493000D01*
X73770629Y-67493000D01*
X73891914Y-67270959D01*
X73652389Y-66764866D01*
X73237423Y-66388959D01*
X72849039Y-66228096D01*
X72627000Y-66350085D01*
X72373000Y-66350085D01*
X72150961Y-66228096D01*
X71762577Y-66388959D01*
X71347611Y-66764866D01*
X71108086Y-67270959D01*
X67902527Y-67270959D01*
X67742688Y-66885053D01*
X67348490Y-66453179D01*
X67238979Y-66401854D01*
X67540430Y-66200430D01*
X67871650Y-65704725D01*
X67987959Y-65120000D01*
X67871650Y-64535275D01*
X67540430Y-64039570D01*
X67256719Y-63850000D01*
X67540430Y-63660430D01*
X67871650Y-63164725D01*
X67987959Y-62580000D01*
X67871650Y-61995275D01*
X67625576Y-61627000D01*
X77834424Y-61627000D01*
X77588350Y-61995275D01*
X77472041Y-62580000D01*
X77588350Y-63164725D01*
X77919570Y-63660430D01*
X78203281Y-63850000D01*
X77919570Y-64039570D01*
X77588350Y-64535275D01*
X77472041Y-65120000D01*
X77588350Y-65704725D01*
X77919570Y-66200430D01*
X78221021Y-66401854D01*
X78111510Y-66453179D01*
X77717312Y-66885053D01*
X77545042Y-67300974D01*
X77666183Y-67533000D01*
X78873000Y-67533000D01*
X78873000Y-67513000D01*
X79127000Y-67513000D01*
X79127000Y-67533000D01*
X81413000Y-67533000D01*
X81413000Y-67513000D01*
X81667000Y-67513000D01*
X81667000Y-67533000D01*
X82873817Y-67533000D01*
X82994958Y-67300974D01*
X82822688Y-66885053D01*
X82428490Y-66453179D01*
X82318979Y-66401854D01*
X82620430Y-66200430D01*
X82951650Y-65704725D01*
X83067959Y-65120000D01*
X82951650Y-64535275D01*
X82620430Y-64039570D01*
X82336719Y-63850000D01*
X82620430Y-63660430D01*
X82951650Y-63164725D01*
X83067959Y-62580000D01*
X82951650Y-61995275D01*
X82705576Y-61627000D01*
X88280001Y-61627000D01*
X88280000Y-65765198D01*
X87823886Y-66221312D01*
X87641333Y-66185000D01*
X87358667Y-66185000D01*
X86940091Y-66268260D01*
X86465423Y-66585423D01*
X86148260Y-67060091D01*
X86036887Y-67620000D01*
X86148260Y-68179909D01*
X86465423Y-68654577D01*
X86940091Y-68971740D01*
X87358667Y-69055000D01*
X87641333Y-69055000D01*
X88059909Y-68971740D01*
X88534577Y-68654577D01*
X88851740Y-68179909D01*
X88963113Y-67620000D01*
X101036887Y-67620000D01*
X101148260Y-68179909D01*
X101465423Y-68654577D01*
X101940091Y-68971740D01*
X102358667Y-69055000D01*
X102641333Y-69055000D01*
X103059909Y-68971740D01*
X103534577Y-68654577D01*
X103851740Y-68179909D01*
X103963113Y-67620000D01*
X103851740Y-67060091D01*
X103534577Y-66585423D01*
X103059909Y-66268260D01*
X102641333Y-66185000D01*
X102358667Y-66185000D01*
X101940091Y-66268260D01*
X101465423Y-66585423D01*
X101148260Y-67060091D01*
X101036887Y-67620000D01*
X88963113Y-67620000D01*
X88898688Y-67296114D01*
X89524473Y-66670329D01*
X89587929Y-66627929D01*
X89755904Y-66376537D01*
X89800000Y-66154852D01*
X89800000Y-66154847D01*
X89814888Y-66080000D01*
X89800000Y-66005153D01*
X89800000Y-61627000D01*
X92834424Y-61627000D01*
X92588350Y-61995275D01*
X92472041Y-62580000D01*
X92588350Y-63164725D01*
X92919570Y-63660430D01*
X93203281Y-63850000D01*
X92919570Y-64039570D01*
X92588350Y-64535275D01*
X92472041Y-65120000D01*
X92588350Y-65704725D01*
X92919570Y-66200430D01*
X93221021Y-66401854D01*
X93111510Y-66453179D01*
X92717312Y-66885053D01*
X92545042Y-67300974D01*
X92666183Y-67533000D01*
X93873000Y-67533000D01*
X93873000Y-67513000D01*
X94127000Y-67513000D01*
X94127000Y-67533000D01*
X96413000Y-67533000D01*
X96413000Y-67513000D01*
X96667000Y-67513000D01*
X96667000Y-67533000D01*
X97873817Y-67533000D01*
X97994958Y-67300974D01*
X97822688Y-66885053D01*
X97428490Y-66453179D01*
X97318979Y-66401854D01*
X97620430Y-66200430D01*
X97951650Y-65704725D01*
X98067959Y-65120000D01*
X97951650Y-64535275D01*
X97620430Y-64039570D01*
X97336719Y-63850000D01*
X97620430Y-63660430D01*
X97951650Y-63164725D01*
X98067959Y-62580000D01*
X97951650Y-61995275D01*
X97705576Y-61627000D01*
X107780969Y-61627000D01*
X107588350Y-61915275D01*
X107472041Y-62500000D01*
X107588350Y-63084725D01*
X107919570Y-63580430D01*
X108203281Y-63770000D01*
X107919570Y-63959570D01*
X107588350Y-64455275D01*
X107472041Y-65040000D01*
X107588350Y-65624725D01*
X107919570Y-66120430D01*
X108221021Y-66321854D01*
X108111510Y-66373179D01*
X107717312Y-66805053D01*
X107545042Y-67220974D01*
X107666183Y-67453000D01*
X108873000Y-67453000D01*
X108873000Y-67433000D01*
X109127000Y-67433000D01*
X109127000Y-67453000D01*
X111413000Y-67453000D01*
X111413000Y-67433000D01*
X111667000Y-67433000D01*
X111667000Y-67453000D01*
X112873817Y-67453000D01*
X112994958Y-67220974D01*
X112822688Y-66805053D01*
X112428490Y-66373179D01*
X112318979Y-66321854D01*
X112620430Y-66120430D01*
X112951650Y-65624725D01*
X113067959Y-65040000D01*
X112951650Y-64455275D01*
X112620430Y-63959570D01*
X112336719Y-63770000D01*
X112620430Y-63580430D01*
X112951650Y-63084725D01*
X113067959Y-62500000D01*
X112951650Y-61915275D01*
X112759031Y-61627000D01*
X122780969Y-61627000D01*
X122588350Y-61915275D01*
X122472041Y-62500000D01*
X122588350Y-63084725D01*
X122919570Y-63580430D01*
X123203281Y-63770000D01*
X122919570Y-63959570D01*
X122588350Y-64455275D01*
X122472041Y-65040000D01*
X122588350Y-65624725D01*
X122919570Y-66120430D01*
X123221021Y-66321854D01*
X123111510Y-66373179D01*
X122717312Y-66805053D01*
X122545042Y-67220974D01*
X122666183Y-67453000D01*
X123873000Y-67453000D01*
X123873000Y-67433000D01*
X124127000Y-67433000D01*
X124127000Y-67453000D01*
X126413000Y-67453000D01*
X126413000Y-67433000D01*
X126667000Y-67433000D01*
X126667000Y-67453000D01*
X127873817Y-67453000D01*
X127994958Y-67220974D01*
X127822688Y-66805053D01*
X127428490Y-66373179D01*
X127318979Y-66321854D01*
X127620430Y-66120430D01*
X127951650Y-65624725D01*
X128067959Y-65040000D01*
X127951650Y-64455275D01*
X127620430Y-63959570D01*
X127336719Y-63770000D01*
X127620430Y-63580430D01*
X127951650Y-63084725D01*
X128067959Y-62500000D01*
X127951650Y-61915275D01*
X127759031Y-61627000D01*
X137754242Y-61627000D01*
X137588350Y-61875275D01*
X137472041Y-62460000D01*
X137588350Y-63044725D01*
X137919570Y-63540430D01*
X138203281Y-63730000D01*
X137919570Y-63919570D01*
X137588350Y-64415275D01*
X137472041Y-65000000D01*
X137588350Y-65584725D01*
X137919570Y-66080430D01*
X138221021Y-66281854D01*
X138111510Y-66333179D01*
X137717312Y-66765053D01*
X137545042Y-67180974D01*
X137666183Y-67413000D01*
X138873000Y-67413000D01*
X138873000Y-67393000D01*
X139127000Y-67393000D01*
X139127000Y-67413000D01*
X141413000Y-67413000D01*
X141413000Y-67393000D01*
X141667000Y-67393000D01*
X141667000Y-67413000D01*
X142873817Y-67413000D01*
X142994958Y-67180974D01*
X142822688Y-66765053D01*
X142428490Y-66333179D01*
X142318979Y-66281854D01*
X142620430Y-66080430D01*
X142857342Y-65725866D01*
X145115000Y-65725866D01*
X145115000Y-66774134D01*
X145516155Y-67742608D01*
X146257392Y-68483845D01*
X147225866Y-68885000D01*
X148274134Y-68885000D01*
X149242608Y-68483845D01*
X149983845Y-67742608D01*
X150385000Y-66774134D01*
X150385000Y-65725866D01*
X149983845Y-64757392D01*
X149242608Y-64016155D01*
X148274134Y-63615000D01*
X147225866Y-63615000D01*
X146257392Y-64016155D01*
X145516155Y-64757392D01*
X145115000Y-65725866D01*
X142857342Y-65725866D01*
X142951650Y-65584725D01*
X143067959Y-65000000D01*
X142951650Y-64415275D01*
X142620430Y-63919570D01*
X142336719Y-63730000D01*
X142620430Y-63540430D01*
X142951650Y-63044725D01*
X143067959Y-62460000D01*
X142951650Y-61875275D01*
X142785758Y-61627000D01*
X152834424Y-61627000D01*
X152588350Y-61995275D01*
X152472041Y-62580000D01*
X152588350Y-63164725D01*
X152919570Y-63660430D01*
X153203281Y-63850000D01*
X152919570Y-64039570D01*
X152588350Y-64535275D01*
X152472041Y-65120000D01*
X152588350Y-65704725D01*
X152919570Y-66200430D01*
X153221021Y-66401854D01*
X153111510Y-66453179D01*
X152717312Y-66885053D01*
X152545042Y-67300974D01*
X152666183Y-67533000D01*
X153873000Y-67533000D01*
X153873000Y-67513000D01*
X154127000Y-67513000D01*
X154127000Y-67533000D01*
X156413000Y-67533000D01*
X156413000Y-67513000D01*
X156667000Y-67513000D01*
X156667000Y-67533000D01*
X157873817Y-67533000D01*
X157994958Y-67300974D01*
X157822688Y-66885053D01*
X157428490Y-66453179D01*
X157318979Y-66401854D01*
X157620430Y-66200430D01*
X157951650Y-65704725D01*
X158067959Y-65120000D01*
X157951650Y-64535275D01*
X157620430Y-64039570D01*
X157336719Y-63850000D01*
X157620430Y-63660430D01*
X157951650Y-63164725D01*
X158067959Y-62580000D01*
X157951650Y-61995275D01*
X157705576Y-61627000D01*
X167834424Y-61627000D01*
X167588350Y-61995275D01*
X167472041Y-62580000D01*
X167588350Y-63164725D01*
X167919570Y-63660430D01*
X168203281Y-63850000D01*
X167919570Y-64039570D01*
X167588350Y-64535275D01*
X167472041Y-65120000D01*
X167588350Y-65704725D01*
X167919570Y-66200430D01*
X168221021Y-66401854D01*
X168111510Y-66453179D01*
X167717312Y-66885053D01*
X167545042Y-67300974D01*
X167666183Y-67533000D01*
X168873000Y-67533000D01*
X168873000Y-67513000D01*
X169127000Y-67513000D01*
X169127000Y-67533000D01*
X171413000Y-67533000D01*
X171413000Y-67513000D01*
X171667000Y-67513000D01*
X171667000Y-67533000D01*
X172873817Y-67533000D01*
X172994958Y-67300974D01*
X172822688Y-66885053D01*
X172428490Y-66453179D01*
X172318979Y-66401854D01*
X172620430Y-66200430D01*
X172951650Y-65704725D01*
X173067959Y-65120000D01*
X172951650Y-64535275D01*
X172620430Y-64039570D01*
X172336719Y-63850000D01*
X172620430Y-63660430D01*
X172951650Y-63164725D01*
X173067959Y-62580000D01*
X172951650Y-61995275D01*
X172705576Y-61627000D01*
X182834424Y-61627000D01*
X182588350Y-61995275D01*
X182472041Y-62580000D01*
X182588350Y-63164725D01*
X182919570Y-63660430D01*
X183203281Y-63850000D01*
X182919570Y-64039570D01*
X182588350Y-64535275D01*
X182472041Y-65120000D01*
X182588350Y-65704725D01*
X182919570Y-66200430D01*
X183221021Y-66401854D01*
X183111510Y-66453179D01*
X182717312Y-66885053D01*
X182545042Y-67300974D01*
X182666183Y-67533000D01*
X183873000Y-67533000D01*
X183873000Y-67513000D01*
X184127000Y-67513000D01*
X184127000Y-67533000D01*
X186413000Y-67533000D01*
X186413000Y-67513000D01*
X186667000Y-67513000D01*
X186667000Y-67533000D01*
X187873817Y-67533000D01*
X187994958Y-67300974D01*
X187822688Y-66885053D01*
X187428490Y-66453179D01*
X187318979Y-66401854D01*
X187620430Y-66200430D01*
X187951650Y-65704725D01*
X188067959Y-65120000D01*
X187951650Y-64535275D01*
X187620430Y-64039570D01*
X187336719Y-63850000D01*
X187620430Y-63660430D01*
X187951650Y-63164725D01*
X188067959Y-62580000D01*
X187951650Y-61995275D01*
X187705576Y-61627000D01*
X197834424Y-61627000D01*
X197588350Y-61995275D01*
X197472041Y-62580000D01*
X197588350Y-63164725D01*
X197919570Y-63660430D01*
X198203281Y-63850000D01*
X197919570Y-64039570D01*
X197588350Y-64535275D01*
X197472041Y-65120000D01*
X197588350Y-65704725D01*
X197919570Y-66200430D01*
X198221021Y-66401854D01*
X198111510Y-66453179D01*
X197717312Y-66885053D01*
X197545042Y-67300974D01*
X197666183Y-67533000D01*
X198873000Y-67533000D01*
X198873000Y-67513000D01*
X199127000Y-67513000D01*
X199127000Y-67533000D01*
X201413000Y-67533000D01*
X201413000Y-67513000D01*
X201667000Y-67513000D01*
X201667000Y-67533000D01*
X202873817Y-67533000D01*
X202994958Y-67300974D01*
X202822688Y-66885053D01*
X202428490Y-66453179D01*
X202318979Y-66401854D01*
X202620430Y-66200430D01*
X202951650Y-65704725D01*
X203067959Y-65120000D01*
X202951650Y-64535275D01*
X202620430Y-64039570D01*
X202336719Y-63850000D01*
X202620430Y-63660430D01*
X202951650Y-63164725D01*
X203067959Y-62580000D01*
X202951650Y-61995275D01*
X202705576Y-61627000D01*
X212834424Y-61627000D01*
X212588350Y-61995275D01*
X212472041Y-62580000D01*
X212588350Y-63164725D01*
X212919570Y-63660430D01*
X213203281Y-63850000D01*
X212919570Y-64039570D01*
X212588350Y-64535275D01*
X212472041Y-65120000D01*
X212588350Y-65704725D01*
X212919570Y-66200430D01*
X213221021Y-66401854D01*
X213111510Y-66453179D01*
X212717312Y-66885053D01*
X212545042Y-67300974D01*
X212666183Y-67533000D01*
X213873000Y-67533000D01*
X213873000Y-67513000D01*
X214127000Y-67513000D01*
X214127000Y-67533000D01*
X216413000Y-67533000D01*
X216413000Y-67513000D01*
X216667000Y-67513000D01*
X216667000Y-67533000D01*
X217873817Y-67533000D01*
X217994958Y-67300974D01*
X217822688Y-66885053D01*
X217428490Y-66453179D01*
X217318979Y-66401854D01*
X217620430Y-66200430D01*
X217951650Y-65704725D01*
X218067959Y-65120000D01*
X217951650Y-64535275D01*
X217620430Y-64039570D01*
X217336719Y-63850000D01*
X217620430Y-63660430D01*
X217951650Y-63164725D01*
X218067959Y-62580000D01*
X217951650Y-61995275D01*
X217705576Y-61627000D01*
X227834424Y-61627000D01*
X227588350Y-61995275D01*
X227472041Y-62580000D01*
X227588350Y-63164725D01*
X227919570Y-63660430D01*
X228203281Y-63850000D01*
X227919570Y-64039570D01*
X227588350Y-64535275D01*
X227472041Y-65120000D01*
X227588350Y-65704725D01*
X227919570Y-66200430D01*
X228221021Y-66401854D01*
X228111510Y-66453179D01*
X227717312Y-66885053D01*
X227545042Y-67300974D01*
X227666183Y-67533000D01*
X228873000Y-67533000D01*
X228873000Y-67513000D01*
X229127000Y-67513000D01*
X229127000Y-67533000D01*
X231413000Y-67533000D01*
X231413000Y-67513000D01*
X231667000Y-67513000D01*
X231667000Y-67533000D01*
X232873817Y-67533000D01*
X232994958Y-67300974D01*
X232822688Y-66885053D01*
X232428490Y-66453179D01*
X232318979Y-66401854D01*
X232620430Y-66200430D01*
X232951650Y-65704725D01*
X233067959Y-65120000D01*
X232951650Y-64535275D01*
X232620430Y-64039570D01*
X232336719Y-63850000D01*
X232620430Y-63660430D01*
X232951650Y-63164725D01*
X233067959Y-62580000D01*
X232951650Y-61995275D01*
X232705576Y-61627000D01*
X241290000Y-61627000D01*
X241290001Y-81290000D01*
X42710000Y-81290000D01*
X42710000Y-77690000D01*
X45292560Y-77690000D01*
X45292560Y-79790000D01*
X45341843Y-80037765D01*
X45482191Y-80247809D01*
X45692235Y-80388157D01*
X45940000Y-80437440D01*
X48040000Y-80437440D01*
X48287765Y-80388157D01*
X48497809Y-80247809D01*
X48638157Y-80037765D01*
X48687440Y-79790000D01*
X48687440Y-77690000D01*
X48638157Y-77442235D01*
X48497809Y-77232191D01*
X48287765Y-77091843D01*
X48040000Y-77042560D01*
X45940000Y-77042560D01*
X45692235Y-77091843D01*
X45482191Y-77232191D01*
X45341843Y-77442235D01*
X45292560Y-77690000D01*
X42710000Y-77690000D01*
X42710000Y-76975866D01*
X54865000Y-76975866D01*
X54865000Y-78024134D01*
X55266155Y-78992608D01*
X56007392Y-79733845D01*
X56975866Y-80135000D01*
X58024134Y-80135000D01*
X58992608Y-79733845D01*
X59733845Y-78992608D01*
X60135000Y-78024134D01*
X60135000Y-76975866D01*
X115115000Y-76975866D01*
X115115000Y-78024134D01*
X115516155Y-78992608D01*
X116257392Y-79733845D01*
X117225866Y-80135000D01*
X118274134Y-80135000D01*
X119242608Y-79733845D01*
X119983845Y-78992608D01*
X120385000Y-78024134D01*
X120385000Y-76975866D01*
X175115000Y-76975866D01*
X175115000Y-78024134D01*
X175516155Y-78992608D01*
X176257392Y-79733845D01*
X177225866Y-80135000D01*
X178274134Y-80135000D01*
X179242608Y-79733845D01*
X179983845Y-78992608D01*
X180385000Y-78024134D01*
X180385000Y-76975866D01*
X234865000Y-76975866D01*
X234865000Y-78024134D01*
X235266155Y-78992608D01*
X236007392Y-79733845D01*
X236975866Y-80135000D01*
X238024134Y-80135000D01*
X238992608Y-79733845D01*
X239733845Y-78992608D01*
X240135000Y-78024134D01*
X240135000Y-76975866D01*
X239733845Y-76007392D01*
X238992608Y-75266155D01*
X238024134Y-74865000D01*
X236975866Y-74865000D01*
X236007392Y-75266155D01*
X235266155Y-76007392D01*
X234865000Y-76975866D01*
X180385000Y-76975866D01*
X179983845Y-76007392D01*
X179242608Y-75266155D01*
X178274134Y-74865000D01*
X177225866Y-74865000D01*
X176257392Y-75266155D01*
X175516155Y-76007392D01*
X175115000Y-76975866D01*
X120385000Y-76975866D01*
X119983845Y-76007392D01*
X119242608Y-75266155D01*
X118274134Y-74865000D01*
X117225866Y-74865000D01*
X116257392Y-75266155D01*
X115516155Y-76007392D01*
X115115000Y-76975866D01*
X60135000Y-76975866D01*
X59733845Y-76007392D01*
X58992608Y-75266155D01*
X58024134Y-74865000D01*
X56975866Y-74865000D01*
X56007392Y-75266155D01*
X55266155Y-76007392D01*
X54865000Y-76975866D01*
X42710000Y-76975866D01*
X42710000Y-73324833D01*
X45305000Y-73324833D01*
X45305000Y-73995167D01*
X45561526Y-74614476D01*
X46035524Y-75088474D01*
X46654833Y-75345000D01*
X47325167Y-75345000D01*
X47944476Y-75088474D01*
X48418474Y-74614476D01*
X48675000Y-73995167D01*
X48675000Y-73324833D01*
X48418474Y-72705524D01*
X47944476Y-72231526D01*
X47325167Y-71975000D01*
X46654833Y-71975000D01*
X46035524Y-72231526D01*
X45561526Y-72705524D01*
X45305000Y-73324833D01*
X42710000Y-73324833D01*
X42710000Y-68244833D01*
X45305000Y-68244833D01*
X45305000Y-68915167D01*
X45561526Y-69534476D01*
X46035524Y-70008474D01*
X46654833Y-70265000D01*
X47325167Y-70265000D01*
X47482090Y-70200000D01*
X62392041Y-70200000D01*
X62508350Y-70784725D01*
X62839570Y-71280430D01*
X63123281Y-71470000D01*
X62839570Y-71659570D01*
X62508350Y-72155275D01*
X62392041Y-72740000D01*
X62508350Y-73324725D01*
X62839570Y-73820430D01*
X63123281Y-74010000D01*
X62839570Y-74199570D01*
X62508350Y-74695275D01*
X62392041Y-75280000D01*
X62508350Y-75864725D01*
X62839570Y-76360430D01*
X63335275Y-76691650D01*
X63772402Y-76778600D01*
X64067598Y-76778600D01*
X64504725Y-76691650D01*
X65000430Y-76360430D01*
X65190000Y-76076719D01*
X65379570Y-76360430D01*
X65875275Y-76691650D01*
X66312402Y-76778600D01*
X66607598Y-76778600D01*
X67044725Y-76691650D01*
X67540430Y-76360430D01*
X67871650Y-75864725D01*
X67987959Y-75280000D01*
X67871650Y-74695275D01*
X67540430Y-74199570D01*
X67256719Y-74010000D01*
X67540430Y-73820430D01*
X67871650Y-73324725D01*
X67987959Y-72740000D01*
X67871650Y-72155275D01*
X67540430Y-71659570D01*
X67256719Y-71470000D01*
X67540430Y-71280430D01*
X67871650Y-70784725D01*
X67987959Y-70200000D01*
X77472041Y-70200000D01*
X77588350Y-70784725D01*
X77919570Y-71280430D01*
X78203281Y-71470000D01*
X77919570Y-71659570D01*
X77588350Y-72155275D01*
X77472041Y-72740000D01*
X77588350Y-73324725D01*
X77919570Y-73820430D01*
X78203281Y-74010000D01*
X77919570Y-74199570D01*
X77588350Y-74695275D01*
X77472041Y-75280000D01*
X77588350Y-75864725D01*
X77919570Y-76360430D01*
X78415275Y-76691650D01*
X78852402Y-76778600D01*
X79147598Y-76778600D01*
X79584725Y-76691650D01*
X80080430Y-76360430D01*
X80270000Y-76076719D01*
X80459570Y-76360430D01*
X80955275Y-76691650D01*
X81392402Y-76778600D01*
X81687598Y-76778600D01*
X82124725Y-76691650D01*
X82620430Y-76360430D01*
X82951650Y-75864725D01*
X83067959Y-75280000D01*
X82951650Y-74695275D01*
X82620430Y-74199570D01*
X82336719Y-74010000D01*
X82620430Y-73820430D01*
X82951650Y-73324725D01*
X83067959Y-72740000D01*
X82951650Y-72155275D01*
X82620430Y-71659570D01*
X82336719Y-71470000D01*
X82620430Y-71280430D01*
X82951650Y-70784725D01*
X83067959Y-70200000D01*
X92472041Y-70200000D01*
X92588350Y-70784725D01*
X92919570Y-71280430D01*
X93203281Y-71470000D01*
X92919570Y-71659570D01*
X92588350Y-72155275D01*
X92472041Y-72740000D01*
X92588350Y-73324725D01*
X92919570Y-73820430D01*
X93203281Y-74010000D01*
X92919570Y-74199570D01*
X92588350Y-74695275D01*
X92472041Y-75280000D01*
X92588350Y-75864725D01*
X92919570Y-76360430D01*
X93415275Y-76691650D01*
X93852402Y-76778600D01*
X94147598Y-76778600D01*
X94584725Y-76691650D01*
X95080430Y-76360430D01*
X95270000Y-76076719D01*
X95459570Y-76360430D01*
X95955275Y-76691650D01*
X96392402Y-76778600D01*
X96687598Y-76778600D01*
X97124725Y-76691650D01*
X97620430Y-76360430D01*
X97951650Y-75864725D01*
X98067959Y-75280000D01*
X97951650Y-74695275D01*
X97620430Y-74199570D01*
X97336719Y-74010000D01*
X97620430Y-73820430D01*
X97951650Y-73324725D01*
X98067959Y-72740000D01*
X97951650Y-72155275D01*
X97620430Y-71659570D01*
X97336719Y-71470000D01*
X97620430Y-71280430D01*
X97951650Y-70784725D01*
X98067959Y-70200000D01*
X98052047Y-70120000D01*
X107472041Y-70120000D01*
X107588350Y-70704725D01*
X107919570Y-71200430D01*
X108203281Y-71390000D01*
X107919570Y-71579570D01*
X107588350Y-72075275D01*
X107472041Y-72660000D01*
X107588350Y-73244725D01*
X107919570Y-73740430D01*
X108203281Y-73930000D01*
X107919570Y-74119570D01*
X107588350Y-74615275D01*
X107472041Y-75200000D01*
X107588350Y-75784725D01*
X107919570Y-76280430D01*
X108415275Y-76611650D01*
X108852402Y-76698600D01*
X109147598Y-76698600D01*
X109584725Y-76611650D01*
X110080430Y-76280430D01*
X110270000Y-75996719D01*
X110459570Y-76280430D01*
X110955275Y-76611650D01*
X111392402Y-76698600D01*
X111687598Y-76698600D01*
X112124725Y-76611650D01*
X112620430Y-76280430D01*
X112951650Y-75784725D01*
X113067959Y-75200000D01*
X112951650Y-74615275D01*
X112620430Y-74119570D01*
X112336719Y-73930000D01*
X112620430Y-73740430D01*
X112951650Y-73244725D01*
X113067959Y-72660000D01*
X112951650Y-72075275D01*
X112620430Y-71579570D01*
X112336719Y-71390000D01*
X112620430Y-71200430D01*
X112951650Y-70704725D01*
X113067959Y-70120000D01*
X122472041Y-70120000D01*
X122588350Y-70704725D01*
X122919570Y-71200430D01*
X123203281Y-71390000D01*
X122919570Y-71579570D01*
X122588350Y-72075275D01*
X122472041Y-72660000D01*
X122588350Y-73244725D01*
X122919570Y-73740430D01*
X123203281Y-73930000D01*
X122919570Y-74119570D01*
X122588350Y-74615275D01*
X122472041Y-75200000D01*
X122588350Y-75784725D01*
X122919570Y-76280430D01*
X123415275Y-76611650D01*
X123852402Y-76698600D01*
X124147598Y-76698600D01*
X124584725Y-76611650D01*
X125080430Y-76280430D01*
X125270000Y-75996719D01*
X125459570Y-76280430D01*
X125955275Y-76611650D01*
X126392402Y-76698600D01*
X126687598Y-76698600D01*
X127124725Y-76611650D01*
X127620430Y-76280430D01*
X127951650Y-75784725D01*
X128067959Y-75200000D01*
X127951650Y-74615275D01*
X127620430Y-74119570D01*
X127336719Y-73930000D01*
X127620430Y-73740430D01*
X127951650Y-73244725D01*
X128067959Y-72660000D01*
X127951650Y-72075275D01*
X127620430Y-71579570D01*
X127336719Y-71390000D01*
X127620430Y-71200430D01*
X127951650Y-70704725D01*
X128067959Y-70120000D01*
X128060003Y-70080000D01*
X137472041Y-70080000D01*
X137588350Y-70664725D01*
X137919570Y-71160430D01*
X138203281Y-71350000D01*
X137919570Y-71539570D01*
X137588350Y-72035275D01*
X137472041Y-72620000D01*
X137588350Y-73204725D01*
X137919570Y-73700430D01*
X138203281Y-73890000D01*
X137919570Y-74079570D01*
X137588350Y-74575275D01*
X137472041Y-75160000D01*
X137588350Y-75744725D01*
X137919570Y-76240430D01*
X138415275Y-76571650D01*
X138852402Y-76658600D01*
X139147598Y-76658600D01*
X139584725Y-76571650D01*
X140080430Y-76240430D01*
X140270000Y-75956719D01*
X140459570Y-76240430D01*
X140955275Y-76571650D01*
X141392402Y-76658600D01*
X141687598Y-76658600D01*
X142124725Y-76571650D01*
X142620430Y-76240430D01*
X142951650Y-75744725D01*
X143067959Y-75160000D01*
X142951650Y-74575275D01*
X142620430Y-74079570D01*
X142336719Y-73890000D01*
X142620430Y-73700430D01*
X142951650Y-73204725D01*
X143067959Y-72620000D01*
X142951650Y-72035275D01*
X142620430Y-71539570D01*
X142336719Y-71350000D01*
X142620430Y-71160430D01*
X142951650Y-70664725D01*
X143044089Y-70200000D01*
X152472041Y-70200000D01*
X152588350Y-70784725D01*
X152919570Y-71280430D01*
X153203281Y-71470000D01*
X152919570Y-71659570D01*
X152588350Y-72155275D01*
X152472041Y-72740000D01*
X152588350Y-73324725D01*
X152919570Y-73820430D01*
X153203281Y-74010000D01*
X152919570Y-74199570D01*
X152588350Y-74695275D01*
X152472041Y-75280000D01*
X152588350Y-75864725D01*
X152919570Y-76360430D01*
X153415275Y-76691650D01*
X153852402Y-76778600D01*
X154147598Y-76778600D01*
X154584725Y-76691650D01*
X155080430Y-76360430D01*
X155270000Y-76076719D01*
X155459570Y-76360430D01*
X155955275Y-76691650D01*
X156392402Y-76778600D01*
X156687598Y-76778600D01*
X157124725Y-76691650D01*
X157620430Y-76360430D01*
X157951650Y-75864725D01*
X158067959Y-75280000D01*
X157951650Y-74695275D01*
X157620430Y-74199570D01*
X157336719Y-74010000D01*
X157620430Y-73820430D01*
X157951650Y-73324725D01*
X158067959Y-72740000D01*
X157951650Y-72155275D01*
X157620430Y-71659570D01*
X157336719Y-71470000D01*
X157620430Y-71280430D01*
X157951650Y-70784725D01*
X158067959Y-70200000D01*
X167472041Y-70200000D01*
X167588350Y-70784725D01*
X167919570Y-71280430D01*
X168203281Y-71470000D01*
X167919570Y-71659570D01*
X167588350Y-72155275D01*
X167472041Y-72740000D01*
X167588350Y-73324725D01*
X167919570Y-73820430D01*
X168203281Y-74010000D01*
X167919570Y-74199570D01*
X167588350Y-74695275D01*
X167472041Y-75280000D01*
X167588350Y-75864725D01*
X167919570Y-76360430D01*
X168415275Y-76691650D01*
X168852402Y-76778600D01*
X169147598Y-76778600D01*
X169584725Y-76691650D01*
X170080430Y-76360430D01*
X170270000Y-76076719D01*
X170459570Y-76360430D01*
X170955275Y-76691650D01*
X171392402Y-76778600D01*
X171687598Y-76778600D01*
X172124725Y-76691650D01*
X172620430Y-76360430D01*
X172951650Y-75864725D01*
X173067959Y-75280000D01*
X172951650Y-74695275D01*
X172620430Y-74199570D01*
X172336719Y-74010000D01*
X172620430Y-73820430D01*
X172951650Y-73324725D01*
X173067959Y-72740000D01*
X172951650Y-72155275D01*
X172620430Y-71659570D01*
X172336719Y-71470000D01*
X172620430Y-71280430D01*
X172951650Y-70784725D01*
X173067959Y-70200000D01*
X182472041Y-70200000D01*
X182588350Y-70784725D01*
X182919570Y-71280430D01*
X183203281Y-71470000D01*
X182919570Y-71659570D01*
X182588350Y-72155275D01*
X182472041Y-72740000D01*
X182588350Y-73324725D01*
X182919570Y-73820430D01*
X183203281Y-74010000D01*
X182919570Y-74199570D01*
X182588350Y-74695275D01*
X182472041Y-75280000D01*
X182588350Y-75864725D01*
X182919570Y-76360430D01*
X183415275Y-76691650D01*
X183852402Y-76778600D01*
X184147598Y-76778600D01*
X184584725Y-76691650D01*
X185080430Y-76360430D01*
X185270000Y-76076719D01*
X185459570Y-76360430D01*
X185955275Y-76691650D01*
X186392402Y-76778600D01*
X186687598Y-76778600D01*
X187124725Y-76691650D01*
X187620430Y-76360430D01*
X187951650Y-75864725D01*
X188067959Y-75280000D01*
X187951650Y-74695275D01*
X187620430Y-74199570D01*
X187336719Y-74010000D01*
X187620430Y-73820430D01*
X187951650Y-73324725D01*
X188067959Y-72740000D01*
X187951650Y-72155275D01*
X187620430Y-71659570D01*
X187336719Y-71470000D01*
X187620430Y-71280430D01*
X187951650Y-70784725D01*
X188067959Y-70200000D01*
X197472041Y-70200000D01*
X197588350Y-70784725D01*
X197919570Y-71280430D01*
X198203281Y-71470000D01*
X197919570Y-71659570D01*
X197588350Y-72155275D01*
X197472041Y-72740000D01*
X197588350Y-73324725D01*
X197919570Y-73820430D01*
X198203281Y-74010000D01*
X197919570Y-74199570D01*
X197588350Y-74695275D01*
X197472041Y-75280000D01*
X197588350Y-75864725D01*
X197919570Y-76360430D01*
X198415275Y-76691650D01*
X198852402Y-76778600D01*
X199147598Y-76778600D01*
X199584725Y-76691650D01*
X200080430Y-76360430D01*
X200270000Y-76076719D01*
X200459570Y-76360430D01*
X200955275Y-76691650D01*
X201392402Y-76778600D01*
X201687598Y-76778600D01*
X202124725Y-76691650D01*
X202620430Y-76360430D01*
X202951650Y-75864725D01*
X203067959Y-75280000D01*
X202951650Y-74695275D01*
X202620430Y-74199570D01*
X202336719Y-74010000D01*
X202620430Y-73820430D01*
X202951650Y-73324725D01*
X203067959Y-72740000D01*
X202951650Y-72155275D01*
X202620430Y-71659570D01*
X202336719Y-71470000D01*
X202620430Y-71280430D01*
X202951650Y-70784725D01*
X203067959Y-70200000D01*
X212472041Y-70200000D01*
X212588350Y-70784725D01*
X212919570Y-71280430D01*
X213203281Y-71470000D01*
X212919570Y-71659570D01*
X212588350Y-72155275D01*
X212472041Y-72740000D01*
X212588350Y-73324725D01*
X212919570Y-73820430D01*
X213203281Y-74010000D01*
X212919570Y-74199570D01*
X212588350Y-74695275D01*
X212472041Y-75280000D01*
X212588350Y-75864725D01*
X212919570Y-76360430D01*
X213415275Y-76691650D01*
X213852402Y-76778600D01*
X214147598Y-76778600D01*
X214584725Y-76691650D01*
X215080430Y-76360430D01*
X215270000Y-76076719D01*
X215459570Y-76360430D01*
X215955275Y-76691650D01*
X216392402Y-76778600D01*
X216687598Y-76778600D01*
X217124725Y-76691650D01*
X217620430Y-76360430D01*
X217951650Y-75864725D01*
X218067959Y-75280000D01*
X217951650Y-74695275D01*
X217620430Y-74199570D01*
X217336719Y-74010000D01*
X217620430Y-73820430D01*
X217951650Y-73324725D01*
X218067959Y-72740000D01*
X217951650Y-72155275D01*
X217620430Y-71659570D01*
X217336719Y-71470000D01*
X217620430Y-71280430D01*
X217951650Y-70784725D01*
X218067959Y-70200000D01*
X227472041Y-70200000D01*
X227588350Y-70784725D01*
X227919570Y-71280430D01*
X228203281Y-71470000D01*
X227919570Y-71659570D01*
X227588350Y-72155275D01*
X227472041Y-72740000D01*
X227588350Y-73324725D01*
X227919570Y-73820430D01*
X228203281Y-74010000D01*
X227919570Y-74199570D01*
X227588350Y-74695275D01*
X227472041Y-75280000D01*
X227588350Y-75864725D01*
X227919570Y-76360430D01*
X228415275Y-76691650D01*
X228852402Y-76778600D01*
X229147598Y-76778600D01*
X229584725Y-76691650D01*
X230080430Y-76360430D01*
X230270000Y-76076719D01*
X230459570Y-76360430D01*
X230955275Y-76691650D01*
X231392402Y-76778600D01*
X231687598Y-76778600D01*
X232124725Y-76691650D01*
X232620430Y-76360430D01*
X232951650Y-75864725D01*
X233067959Y-75280000D01*
X232951650Y-74695275D01*
X232620430Y-74199570D01*
X232336719Y-74010000D01*
X232620430Y-73820430D01*
X232951650Y-73324725D01*
X233067959Y-72740000D01*
X232951650Y-72155275D01*
X232620430Y-71659570D01*
X232336719Y-71470000D01*
X232620430Y-71280430D01*
X232951650Y-70784725D01*
X233067959Y-70200000D01*
X232951650Y-69615275D01*
X232620430Y-69119570D01*
X232318979Y-68918146D01*
X232428490Y-68866821D01*
X232822688Y-68434947D01*
X232994958Y-68019026D01*
X232873817Y-67787000D01*
X231667000Y-67787000D01*
X231667000Y-67807000D01*
X231413000Y-67807000D01*
X231413000Y-67787000D01*
X229127000Y-67787000D01*
X229127000Y-67807000D01*
X228873000Y-67807000D01*
X228873000Y-67787000D01*
X227666183Y-67787000D01*
X227545042Y-68019026D01*
X227717312Y-68434947D01*
X228111510Y-68866821D01*
X228221021Y-68918146D01*
X227919570Y-69119570D01*
X227588350Y-69615275D01*
X227472041Y-70200000D01*
X218067959Y-70200000D01*
X217951650Y-69615275D01*
X217620430Y-69119570D01*
X217318979Y-68918146D01*
X217428490Y-68866821D01*
X217822688Y-68434947D01*
X217994958Y-68019026D01*
X217873817Y-67787000D01*
X216667000Y-67787000D01*
X216667000Y-67807000D01*
X216413000Y-67807000D01*
X216413000Y-67787000D01*
X214127000Y-67787000D01*
X214127000Y-67807000D01*
X213873000Y-67807000D01*
X213873000Y-67787000D01*
X212666183Y-67787000D01*
X212545042Y-68019026D01*
X212717312Y-68434947D01*
X213111510Y-68866821D01*
X213221021Y-68918146D01*
X212919570Y-69119570D01*
X212588350Y-69615275D01*
X212472041Y-70200000D01*
X203067959Y-70200000D01*
X202951650Y-69615275D01*
X202620430Y-69119570D01*
X202318979Y-68918146D01*
X202428490Y-68866821D01*
X202822688Y-68434947D01*
X202994958Y-68019026D01*
X202873817Y-67787000D01*
X201667000Y-67787000D01*
X201667000Y-67807000D01*
X201413000Y-67807000D01*
X201413000Y-67787000D01*
X199127000Y-67787000D01*
X199127000Y-67807000D01*
X198873000Y-67807000D01*
X198873000Y-67787000D01*
X197666183Y-67787000D01*
X197545042Y-68019026D01*
X197717312Y-68434947D01*
X198111510Y-68866821D01*
X198221021Y-68918146D01*
X197919570Y-69119570D01*
X197588350Y-69615275D01*
X197472041Y-70200000D01*
X188067959Y-70200000D01*
X187951650Y-69615275D01*
X187620430Y-69119570D01*
X187318979Y-68918146D01*
X187428490Y-68866821D01*
X187822688Y-68434947D01*
X187994958Y-68019026D01*
X187873817Y-67787000D01*
X186667000Y-67787000D01*
X186667000Y-67807000D01*
X186413000Y-67807000D01*
X186413000Y-67787000D01*
X184127000Y-67787000D01*
X184127000Y-67807000D01*
X183873000Y-67807000D01*
X183873000Y-67787000D01*
X182666183Y-67787000D01*
X182545042Y-68019026D01*
X182717312Y-68434947D01*
X183111510Y-68866821D01*
X183221021Y-68918146D01*
X182919570Y-69119570D01*
X182588350Y-69615275D01*
X182472041Y-70200000D01*
X173067959Y-70200000D01*
X172951650Y-69615275D01*
X172620430Y-69119570D01*
X172318979Y-68918146D01*
X172428490Y-68866821D01*
X172822688Y-68434947D01*
X172994958Y-68019026D01*
X172873817Y-67787000D01*
X171667000Y-67787000D01*
X171667000Y-67807000D01*
X171413000Y-67807000D01*
X171413000Y-67787000D01*
X169127000Y-67787000D01*
X169127000Y-67807000D01*
X168873000Y-67807000D01*
X168873000Y-67787000D01*
X167666183Y-67787000D01*
X167545042Y-68019026D01*
X167717312Y-68434947D01*
X168111510Y-68866821D01*
X168221021Y-68918146D01*
X167919570Y-69119570D01*
X167588350Y-69615275D01*
X167472041Y-70200000D01*
X158067959Y-70200000D01*
X157951650Y-69615275D01*
X157620430Y-69119570D01*
X157318979Y-68918146D01*
X157428490Y-68866821D01*
X157822688Y-68434947D01*
X157994958Y-68019026D01*
X157873817Y-67787000D01*
X156667000Y-67787000D01*
X156667000Y-67807000D01*
X156413000Y-67807000D01*
X156413000Y-67787000D01*
X154127000Y-67787000D01*
X154127000Y-67807000D01*
X153873000Y-67807000D01*
X153873000Y-67787000D01*
X152666183Y-67787000D01*
X152545042Y-68019026D01*
X152717312Y-68434947D01*
X153111510Y-68866821D01*
X153221021Y-68918146D01*
X152919570Y-69119570D01*
X152588350Y-69615275D01*
X152472041Y-70200000D01*
X143044089Y-70200000D01*
X143067959Y-70080000D01*
X142951650Y-69495275D01*
X142620430Y-68999570D01*
X142318979Y-68798146D01*
X142428490Y-68746821D01*
X142822688Y-68314947D01*
X142994958Y-67899026D01*
X142873817Y-67667000D01*
X141667000Y-67667000D01*
X141667000Y-67687000D01*
X141413000Y-67687000D01*
X141413000Y-67667000D01*
X139127000Y-67667000D01*
X139127000Y-67687000D01*
X138873000Y-67687000D01*
X138873000Y-67667000D01*
X137666183Y-67667000D01*
X137545042Y-67899026D01*
X137717312Y-68314947D01*
X138111510Y-68746821D01*
X138221021Y-68798146D01*
X137919570Y-68999570D01*
X137588350Y-69495275D01*
X137472041Y-70080000D01*
X128060003Y-70080000D01*
X127951650Y-69535275D01*
X127620430Y-69039570D01*
X127318979Y-68838146D01*
X127428490Y-68786821D01*
X127822688Y-68354947D01*
X127994958Y-67939026D01*
X127873817Y-67707000D01*
X126667000Y-67707000D01*
X126667000Y-67727000D01*
X126413000Y-67727000D01*
X126413000Y-67707000D01*
X124127000Y-67707000D01*
X124127000Y-67727000D01*
X123873000Y-67727000D01*
X123873000Y-67707000D01*
X122666183Y-67707000D01*
X122545042Y-67939026D01*
X122717312Y-68354947D01*
X123111510Y-68786821D01*
X123221021Y-68838146D01*
X122919570Y-69039570D01*
X122588350Y-69535275D01*
X122472041Y-70120000D01*
X113067959Y-70120000D01*
X112951650Y-69535275D01*
X112620430Y-69039570D01*
X112318979Y-68838146D01*
X112428490Y-68786821D01*
X112822688Y-68354947D01*
X112994958Y-67939026D01*
X112873817Y-67707000D01*
X111667000Y-67707000D01*
X111667000Y-67727000D01*
X111413000Y-67727000D01*
X111413000Y-67707000D01*
X109127000Y-67707000D01*
X109127000Y-67727000D01*
X108873000Y-67727000D01*
X108873000Y-67707000D01*
X107666183Y-67707000D01*
X107545042Y-67939026D01*
X107717312Y-68354947D01*
X108111510Y-68786821D01*
X108221021Y-68838146D01*
X107919570Y-69039570D01*
X107588350Y-69535275D01*
X107472041Y-70120000D01*
X98052047Y-70120000D01*
X97951650Y-69615275D01*
X97620430Y-69119570D01*
X97318979Y-68918146D01*
X97428490Y-68866821D01*
X97822688Y-68434947D01*
X97994958Y-68019026D01*
X97873817Y-67787000D01*
X96667000Y-67787000D01*
X96667000Y-67807000D01*
X96413000Y-67807000D01*
X96413000Y-67787000D01*
X94127000Y-67787000D01*
X94127000Y-67807000D01*
X93873000Y-67807000D01*
X93873000Y-67787000D01*
X92666183Y-67787000D01*
X92545042Y-68019026D01*
X92717312Y-68434947D01*
X93111510Y-68866821D01*
X93221021Y-68918146D01*
X92919570Y-69119570D01*
X92588350Y-69615275D01*
X92472041Y-70200000D01*
X83067959Y-70200000D01*
X82951650Y-69615275D01*
X82620430Y-69119570D01*
X82318979Y-68918146D01*
X82428490Y-68866821D01*
X82822688Y-68434947D01*
X82994958Y-68019026D01*
X82873817Y-67787000D01*
X81667000Y-67787000D01*
X81667000Y-67807000D01*
X81413000Y-67807000D01*
X81413000Y-67787000D01*
X79127000Y-67787000D01*
X79127000Y-67807000D01*
X78873000Y-67807000D01*
X78873000Y-67787000D01*
X77666183Y-67787000D01*
X77545042Y-68019026D01*
X77717312Y-68434947D01*
X78111510Y-68866821D01*
X78221021Y-68918146D01*
X77919570Y-69119570D01*
X77588350Y-69615275D01*
X77472041Y-70200000D01*
X67987959Y-70200000D01*
X67871650Y-69615275D01*
X67540430Y-69119570D01*
X67238979Y-68918146D01*
X67348490Y-68866821D01*
X67742688Y-68434947D01*
X67914958Y-68019026D01*
X67888861Y-67969041D01*
X71108086Y-67969041D01*
X71347611Y-68475134D01*
X71762577Y-68851041D01*
X72150961Y-69011904D01*
X72373000Y-68889915D01*
X72373000Y-67747000D01*
X72627000Y-67747000D01*
X72627000Y-68889915D01*
X72849039Y-69011904D01*
X73237423Y-68851041D01*
X73652389Y-68475134D01*
X73891914Y-67969041D01*
X73770629Y-67747000D01*
X72627000Y-67747000D01*
X72373000Y-67747000D01*
X71229371Y-67747000D01*
X71108086Y-67969041D01*
X67888861Y-67969041D01*
X67793817Y-67787000D01*
X66587000Y-67787000D01*
X66587000Y-67807000D01*
X66333000Y-67807000D01*
X66333000Y-67787000D01*
X64047000Y-67787000D01*
X64047000Y-67807000D01*
X63793000Y-67807000D01*
X63793000Y-67787000D01*
X62586183Y-67787000D01*
X62465042Y-68019026D01*
X62637312Y-68434947D01*
X63031510Y-68866821D01*
X63141021Y-68918146D01*
X62839570Y-69119570D01*
X62508350Y-69615275D01*
X62392041Y-70200000D01*
X47482090Y-70200000D01*
X47944476Y-70008474D01*
X48418474Y-69534476D01*
X48675000Y-68915167D01*
X48675000Y-68244833D01*
X48418474Y-67625524D01*
X47944476Y-67151526D01*
X47325167Y-66895000D01*
X46654833Y-66895000D01*
X46035524Y-67151526D01*
X45561526Y-67625524D01*
X45305000Y-68244833D01*
X42710000Y-68244833D01*
X42710000Y-64688703D01*
X45980902Y-64688703D01*
X46085687Y-64960745D01*
X46713526Y-65195619D01*
X47383456Y-65172349D01*
X47894313Y-64960745D01*
X47999098Y-64688703D01*
X46990000Y-63679605D01*
X45980902Y-64688703D01*
X42710000Y-64688703D01*
X42710000Y-63223526D01*
X45294381Y-63223526D01*
X45317651Y-63893456D01*
X45529255Y-64404313D01*
X45801297Y-64509098D01*
X46810395Y-63500000D01*
X47169605Y-63500000D01*
X48178703Y-64509098D01*
X48450745Y-64404313D01*
X48685619Y-63776474D01*
X48662349Y-63106544D01*
X48450745Y-62595687D01*
X48178703Y-62490902D01*
X47169605Y-63500000D01*
X46810395Y-63500000D01*
X45801297Y-62490902D01*
X45529255Y-62595687D01*
X45294381Y-63223526D01*
X42710000Y-63223526D01*
X42710000Y-62311297D01*
X45980902Y-62311297D01*
X46990000Y-63320395D01*
X47999098Y-62311297D01*
X47894313Y-62039255D01*
X47266474Y-61804381D01*
X46596544Y-61827651D01*
X46085687Y-62039255D01*
X45980902Y-62311297D01*
X42710000Y-62311297D01*
X42710000Y-61627000D01*
X62754424Y-61627000D01*
X62508350Y-61995275D01*
X62508350Y-61995275D01*
G37*
X62508350Y-61995275D02*
X62392041Y-62580000D01*
X62508350Y-63164725D01*
X62839570Y-63660430D01*
X63123281Y-63850000D01*
X62839570Y-64039570D01*
X62508350Y-64535275D01*
X62392041Y-65120000D01*
X62508350Y-65704725D01*
X62839570Y-66200430D01*
X63141021Y-66401854D01*
X63031510Y-66453179D01*
X62637312Y-66885053D01*
X62465042Y-67300974D01*
X62586183Y-67533000D01*
X63793000Y-67533000D01*
X63793000Y-67513000D01*
X64047000Y-67513000D01*
X64047000Y-67533000D01*
X66333000Y-67533000D01*
X66333000Y-67513000D01*
X66587000Y-67513000D01*
X66587000Y-67533000D01*
X67793817Y-67533000D01*
X67914958Y-67300974D01*
X67902527Y-67270959D01*
X71108086Y-67270959D01*
X71229371Y-67493000D01*
X72373000Y-67493000D01*
X72373000Y-66350085D01*
X72627000Y-66350085D01*
X72627000Y-67493000D01*
X73770629Y-67493000D01*
X73891914Y-67270959D01*
X73652389Y-66764866D01*
X73237423Y-66388959D01*
X72849039Y-66228096D01*
X72627000Y-66350085D01*
X72373000Y-66350085D01*
X72150961Y-66228096D01*
X71762577Y-66388959D01*
X71347611Y-66764866D01*
X71108086Y-67270959D01*
X67902527Y-67270959D01*
X67742688Y-66885053D01*
X67348490Y-66453179D01*
X67238979Y-66401854D01*
X67540430Y-66200430D01*
X67871650Y-65704725D01*
X67987959Y-65120000D01*
X67871650Y-64535275D01*
X67540430Y-64039570D01*
X67256719Y-63850000D01*
X67540430Y-63660430D01*
X67871650Y-63164725D01*
X67987959Y-62580000D01*
X67871650Y-61995275D01*
X67625576Y-61627000D01*
X77834424Y-61627000D01*
X77588350Y-61995275D01*
X77472041Y-62580000D01*
X77588350Y-63164725D01*
X77919570Y-63660430D01*
X78203281Y-63850000D01*
X77919570Y-64039570D01*
X77588350Y-64535275D01*
X77472041Y-65120000D01*
X77588350Y-65704725D01*
X77919570Y-66200430D01*
X78221021Y-66401854D01*
X78111510Y-66453179D01*
X77717312Y-66885053D01*
X77545042Y-67300974D01*
X77666183Y-67533000D01*
X78873000Y-67533000D01*
X78873000Y-67513000D01*
X79127000Y-67513000D01*
X79127000Y-67533000D01*
X81413000Y-67533000D01*
X81413000Y-67513000D01*
X81667000Y-67513000D01*
X81667000Y-67533000D01*
X82873817Y-67533000D01*
X82994958Y-67300974D01*
X82822688Y-66885053D01*
X82428490Y-66453179D01*
X82318979Y-66401854D01*
X82620430Y-66200430D01*
X82951650Y-65704725D01*
X83067959Y-65120000D01*
X82951650Y-64535275D01*
X82620430Y-64039570D01*
X82336719Y-63850000D01*
X82620430Y-63660430D01*
X82951650Y-63164725D01*
X83067959Y-62580000D01*
X82951650Y-61995275D01*
X82705576Y-61627000D01*
X88280001Y-61627000D01*
X88280000Y-65765198D01*
X87823886Y-66221312D01*
X87641333Y-66185000D01*
X87358667Y-66185000D01*
X86940091Y-66268260D01*
X86465423Y-66585423D01*
X86148260Y-67060091D01*
X86036887Y-67620000D01*
X86148260Y-68179909D01*
X86465423Y-68654577D01*
X86940091Y-68971740D01*
X87358667Y-69055000D01*
X87641333Y-69055000D01*
X88059909Y-68971740D01*
X88534577Y-68654577D01*
X88851740Y-68179909D01*
X88963113Y-67620000D01*
X101036887Y-67620000D01*
X101148260Y-68179909D01*
X101465423Y-68654577D01*
X101940091Y-68971740D01*
X102358667Y-69055000D01*
X102641333Y-69055000D01*
X103059909Y-68971740D01*
X103534577Y-68654577D01*
X103851740Y-68179909D01*
X103963113Y-67620000D01*
X103851740Y-67060091D01*
X103534577Y-66585423D01*
X103059909Y-66268260D01*
X102641333Y-66185000D01*
X102358667Y-66185000D01*
X101940091Y-66268260D01*
X101465423Y-66585423D01*
X101148260Y-67060091D01*
X101036887Y-67620000D01*
X88963113Y-67620000D01*
X88898688Y-67296114D01*
X89524473Y-66670329D01*
X89587929Y-66627929D01*
X89755904Y-66376537D01*
X89800000Y-66154852D01*
X89800000Y-66154847D01*
X89814888Y-66080000D01*
X89800000Y-66005153D01*
X89800000Y-61627000D01*
X92834424Y-61627000D01*
X92588350Y-61995275D01*
X92472041Y-62580000D01*
X92588350Y-63164725D01*
X92919570Y-63660430D01*
X93203281Y-63850000D01*
X92919570Y-64039570D01*
X92588350Y-64535275D01*
X92472041Y-65120000D01*
X92588350Y-65704725D01*
X92919570Y-66200430D01*
X93221021Y-66401854D01*
X93111510Y-66453179D01*
X92717312Y-66885053D01*
X92545042Y-67300974D01*
X92666183Y-67533000D01*
X93873000Y-67533000D01*
X93873000Y-67513000D01*
X94127000Y-67513000D01*
X94127000Y-67533000D01*
X96413000Y-67533000D01*
X96413000Y-67513000D01*
X96667000Y-67513000D01*
X96667000Y-67533000D01*
X97873817Y-67533000D01*
X97994958Y-67300974D01*
X97822688Y-66885053D01*
X97428490Y-66453179D01*
X97318979Y-66401854D01*
X97620430Y-66200430D01*
X97951650Y-65704725D01*
X98067959Y-65120000D01*
X97951650Y-64535275D01*
X97620430Y-64039570D01*
X97336719Y-63850000D01*
X97620430Y-63660430D01*
X97951650Y-63164725D01*
X98067959Y-62580000D01*
X97951650Y-61995275D01*
X97705576Y-61627000D01*
X107780969Y-61627000D01*
X107588350Y-61915275D01*
X107472041Y-62500000D01*
X107588350Y-63084725D01*
X107919570Y-63580430D01*
X108203281Y-63770000D01*
X107919570Y-63959570D01*
X107588350Y-64455275D01*
X107472041Y-65040000D01*
X107588350Y-65624725D01*
X107919570Y-66120430D01*
X108221021Y-66321854D01*
X108111510Y-66373179D01*
X107717312Y-66805053D01*
X107545042Y-67220974D01*
X107666183Y-67453000D01*
X108873000Y-67453000D01*
X108873000Y-67433000D01*
X109127000Y-67433000D01*
X109127000Y-67453000D01*
X111413000Y-67453000D01*
X111413000Y-67433000D01*
X111667000Y-67433000D01*
X111667000Y-67453000D01*
X112873817Y-67453000D01*
X112994958Y-67220974D01*
X112822688Y-66805053D01*
X112428490Y-66373179D01*
X112318979Y-66321854D01*
X112620430Y-66120430D01*
X112951650Y-65624725D01*
X113067959Y-65040000D01*
X112951650Y-64455275D01*
X112620430Y-63959570D01*
X112336719Y-63770000D01*
X112620430Y-63580430D01*
X112951650Y-63084725D01*
X113067959Y-62500000D01*
X112951650Y-61915275D01*
X112759031Y-61627000D01*
X122780969Y-61627000D01*
X122588350Y-61915275D01*
X122472041Y-62500000D01*
X122588350Y-63084725D01*
X122919570Y-63580430D01*
X123203281Y-63770000D01*
X122919570Y-63959570D01*
X122588350Y-64455275D01*
X122472041Y-65040000D01*
X122588350Y-65624725D01*
X122919570Y-66120430D01*
X123221021Y-66321854D01*
X123111510Y-66373179D01*
X122717312Y-66805053D01*
X122545042Y-67220974D01*
X122666183Y-67453000D01*
X123873000Y-67453000D01*
X123873000Y-67433000D01*
X124127000Y-67433000D01*
X124127000Y-67453000D01*
X126413000Y-67453000D01*
X126413000Y-67433000D01*
X126667000Y-67433000D01*
X126667000Y-67453000D01*
X127873817Y-67453000D01*
X127994958Y-67220974D01*
X127822688Y-66805053D01*
X127428490Y-66373179D01*
X127318979Y-66321854D01*
X127620430Y-66120430D01*
X127951650Y-65624725D01*
X128067959Y-65040000D01*
X127951650Y-64455275D01*
X127620430Y-63959570D01*
X127336719Y-63770000D01*
X127620430Y-63580430D01*
X127951650Y-63084725D01*
X128067959Y-62500000D01*
X127951650Y-61915275D01*
X127759031Y-61627000D01*
X137754242Y-61627000D01*
X137588350Y-61875275D01*
X137472041Y-62460000D01*
X137588350Y-63044725D01*
X137919570Y-63540430D01*
X138203281Y-63730000D01*
X137919570Y-63919570D01*
X137588350Y-64415275D01*
X137472041Y-65000000D01*
X137588350Y-65584725D01*
X137919570Y-66080430D01*
X138221021Y-66281854D01*
X138111510Y-66333179D01*
X137717312Y-66765053D01*
X137545042Y-67180974D01*
X137666183Y-67413000D01*
X138873000Y-67413000D01*
X138873000Y-67393000D01*
X139127000Y-67393000D01*
X139127000Y-67413000D01*
X141413000Y-67413000D01*
X141413000Y-67393000D01*
X141667000Y-67393000D01*
X141667000Y-67413000D01*
X142873817Y-67413000D01*
X142994958Y-67180974D01*
X142822688Y-66765053D01*
X142428490Y-66333179D01*
X142318979Y-66281854D01*
X142620430Y-66080430D01*
X142857342Y-65725866D01*
X145115000Y-65725866D01*
X145115000Y-66774134D01*
X145516155Y-67742608D01*
X146257392Y-68483845D01*
X147225866Y-68885000D01*
X148274134Y-68885000D01*
X149242608Y-68483845D01*
X149983845Y-67742608D01*
X150385000Y-66774134D01*
X150385000Y-65725866D01*
X149983845Y-64757392D01*
X149242608Y-64016155D01*
X148274134Y-63615000D01*
X147225866Y-63615000D01*
X146257392Y-64016155D01*
X145516155Y-64757392D01*
X145115000Y-65725866D01*
X142857342Y-65725866D01*
X142951650Y-65584725D01*
X143067959Y-65000000D01*
X142951650Y-64415275D01*
X142620430Y-63919570D01*
X142336719Y-63730000D01*
X142620430Y-63540430D01*
X142951650Y-63044725D01*
X143067959Y-62460000D01*
X142951650Y-61875275D01*
X142785758Y-61627000D01*
X152834424Y-61627000D01*
X152588350Y-61995275D01*
X152472041Y-62580000D01*
X152588350Y-63164725D01*
X152919570Y-63660430D01*
X153203281Y-63850000D01*
X152919570Y-64039570D01*
X152588350Y-64535275D01*
X152472041Y-65120000D01*
X152588350Y-65704725D01*
X152919570Y-66200430D01*
X153221021Y-66401854D01*
X153111510Y-66453179D01*
X152717312Y-66885053D01*
X152545042Y-67300974D01*
X152666183Y-67533000D01*
X153873000Y-67533000D01*
X153873000Y-67513000D01*
X154127000Y-67513000D01*
X154127000Y-67533000D01*
X156413000Y-67533000D01*
X156413000Y-67513000D01*
X156667000Y-67513000D01*
X156667000Y-67533000D01*
X157873817Y-67533000D01*
X157994958Y-67300974D01*
X157822688Y-66885053D01*
X157428490Y-66453179D01*
X157318979Y-66401854D01*
X157620430Y-66200430D01*
X157951650Y-65704725D01*
X158067959Y-65120000D01*
X157951650Y-64535275D01*
X157620430Y-64039570D01*
X157336719Y-63850000D01*
X157620430Y-63660430D01*
X157951650Y-63164725D01*
X158067959Y-62580000D01*
X157951650Y-61995275D01*
X157705576Y-61627000D01*
X167834424Y-61627000D01*
X167588350Y-61995275D01*
X167472041Y-62580000D01*
X167588350Y-63164725D01*
X167919570Y-63660430D01*
X168203281Y-63850000D01*
X167919570Y-64039570D01*
X167588350Y-64535275D01*
X167472041Y-65120000D01*
X167588350Y-65704725D01*
X167919570Y-66200430D01*
X168221021Y-66401854D01*
X168111510Y-66453179D01*
X167717312Y-66885053D01*
X167545042Y-67300974D01*
X167666183Y-67533000D01*
X168873000Y-67533000D01*
X168873000Y-67513000D01*
X169127000Y-67513000D01*
X169127000Y-67533000D01*
X171413000Y-67533000D01*
X171413000Y-67513000D01*
X171667000Y-67513000D01*
X171667000Y-67533000D01*
X172873817Y-67533000D01*
X172994958Y-67300974D01*
X172822688Y-66885053D01*
X172428490Y-66453179D01*
X172318979Y-66401854D01*
X172620430Y-66200430D01*
X172951650Y-65704725D01*
X173067959Y-65120000D01*
X172951650Y-64535275D01*
X172620430Y-64039570D01*
X172336719Y-63850000D01*
X172620430Y-63660430D01*
X172951650Y-63164725D01*
X173067959Y-62580000D01*
X172951650Y-61995275D01*
X172705576Y-61627000D01*
X182834424Y-61627000D01*
X182588350Y-61995275D01*
X182472041Y-62580000D01*
X182588350Y-63164725D01*
X182919570Y-63660430D01*
X183203281Y-63850000D01*
X182919570Y-64039570D01*
X182588350Y-64535275D01*
X182472041Y-65120000D01*
X182588350Y-65704725D01*
X182919570Y-66200430D01*
X183221021Y-66401854D01*
X183111510Y-66453179D01*
X182717312Y-66885053D01*
X182545042Y-67300974D01*
X182666183Y-67533000D01*
X183873000Y-67533000D01*
X183873000Y-67513000D01*
X184127000Y-67513000D01*
X184127000Y-67533000D01*
X186413000Y-67533000D01*
X186413000Y-67513000D01*
X186667000Y-67513000D01*
X186667000Y-67533000D01*
X187873817Y-67533000D01*
X187994958Y-67300974D01*
X187822688Y-66885053D01*
X187428490Y-66453179D01*
X187318979Y-66401854D01*
X187620430Y-66200430D01*
X187951650Y-65704725D01*
X188067959Y-65120000D01*
X187951650Y-64535275D01*
X187620430Y-64039570D01*
X187336719Y-63850000D01*
X187620430Y-63660430D01*
X187951650Y-63164725D01*
X188067959Y-62580000D01*
X187951650Y-61995275D01*
X187705576Y-61627000D01*
X197834424Y-61627000D01*
X197588350Y-61995275D01*
X197472041Y-62580000D01*
X197588350Y-63164725D01*
X197919570Y-63660430D01*
X198203281Y-63850000D01*
X197919570Y-64039570D01*
X197588350Y-64535275D01*
X197472041Y-65120000D01*
X197588350Y-65704725D01*
X197919570Y-66200430D01*
X198221021Y-66401854D01*
X198111510Y-66453179D01*
X197717312Y-66885053D01*
X197545042Y-67300974D01*
X197666183Y-67533000D01*
X198873000Y-67533000D01*
X198873000Y-67513000D01*
X199127000Y-67513000D01*
X199127000Y-67533000D01*
X201413000Y-67533000D01*
X201413000Y-67513000D01*
X201667000Y-67513000D01*
X201667000Y-67533000D01*
X202873817Y-67533000D01*
X202994958Y-67300974D01*
X202822688Y-66885053D01*
X202428490Y-66453179D01*
X202318979Y-66401854D01*
X202620430Y-66200430D01*
X202951650Y-65704725D01*
X203067959Y-65120000D01*
X202951650Y-64535275D01*
X202620430Y-64039570D01*
X202336719Y-63850000D01*
X202620430Y-63660430D01*
X202951650Y-63164725D01*
X203067959Y-62580000D01*
X202951650Y-61995275D01*
X202705576Y-61627000D01*
X212834424Y-61627000D01*
X212588350Y-61995275D01*
X212472041Y-62580000D01*
X212588350Y-63164725D01*
X212919570Y-63660430D01*
X213203281Y-63850000D01*
X212919570Y-64039570D01*
X212588350Y-64535275D01*
X212472041Y-65120000D01*
X212588350Y-65704725D01*
X212919570Y-66200430D01*
X213221021Y-66401854D01*
X213111510Y-66453179D01*
X212717312Y-66885053D01*
X212545042Y-67300974D01*
X212666183Y-67533000D01*
X213873000Y-67533000D01*
X213873000Y-67513000D01*
X214127000Y-67513000D01*
X214127000Y-67533000D01*
X216413000Y-67533000D01*
X216413000Y-67513000D01*
X216667000Y-67513000D01*
X216667000Y-67533000D01*
X217873817Y-67533000D01*
X217994958Y-67300974D01*
X217822688Y-66885053D01*
X217428490Y-66453179D01*
X217318979Y-66401854D01*
X217620430Y-66200430D01*
X217951650Y-65704725D01*
X218067959Y-65120000D01*
X217951650Y-64535275D01*
X217620430Y-64039570D01*
X217336719Y-63850000D01*
X217620430Y-63660430D01*
X217951650Y-63164725D01*
X218067959Y-62580000D01*
X217951650Y-61995275D01*
X217705576Y-61627000D01*
X227834424Y-61627000D01*
X227588350Y-61995275D01*
X227472041Y-62580000D01*
X227588350Y-63164725D01*
X227919570Y-63660430D01*
X228203281Y-63850000D01*
X227919570Y-64039570D01*
X227588350Y-64535275D01*
X227472041Y-65120000D01*
X227588350Y-65704725D01*
X227919570Y-66200430D01*
X228221021Y-66401854D01*
X228111510Y-66453179D01*
X227717312Y-66885053D01*
X227545042Y-67300974D01*
X227666183Y-67533000D01*
X228873000Y-67533000D01*
X228873000Y-67513000D01*
X229127000Y-67513000D01*
X229127000Y-67533000D01*
X231413000Y-67533000D01*
X231413000Y-67513000D01*
X231667000Y-67513000D01*
X231667000Y-67533000D01*
X232873817Y-67533000D01*
X232994958Y-67300974D01*
X232822688Y-66885053D01*
X232428490Y-66453179D01*
X232318979Y-66401854D01*
X232620430Y-66200430D01*
X232951650Y-65704725D01*
X233067959Y-65120000D01*
X232951650Y-64535275D01*
X232620430Y-64039570D01*
X232336719Y-63850000D01*
X232620430Y-63660430D01*
X232951650Y-63164725D01*
X233067959Y-62580000D01*
X232951650Y-61995275D01*
X232705576Y-61627000D01*
X241290000Y-61627000D01*
X241290001Y-81290000D01*
X42710000Y-81290000D01*
X42710000Y-77690000D01*
X45292560Y-77690000D01*
X45292560Y-79790000D01*
X45341843Y-80037765D01*
X45482191Y-80247809D01*
X45692235Y-80388157D01*
X45940000Y-80437440D01*
X48040000Y-80437440D01*
X48287765Y-80388157D01*
X48497809Y-80247809D01*
X48638157Y-80037765D01*
X48687440Y-79790000D01*
X48687440Y-77690000D01*
X48638157Y-77442235D01*
X48497809Y-77232191D01*
X48287765Y-77091843D01*
X48040000Y-77042560D01*
X45940000Y-77042560D01*
X45692235Y-77091843D01*
X45482191Y-77232191D01*
X45341843Y-77442235D01*
X45292560Y-77690000D01*
X42710000Y-77690000D01*
X42710000Y-76975866D01*
X54865000Y-76975866D01*
X54865000Y-78024134D01*
X55266155Y-78992608D01*
X56007392Y-79733845D01*
X56975866Y-80135000D01*
X58024134Y-80135000D01*
X58992608Y-79733845D01*
X59733845Y-78992608D01*
X60135000Y-78024134D01*
X60135000Y-76975866D01*
X115115000Y-76975866D01*
X115115000Y-78024134D01*
X115516155Y-78992608D01*
X116257392Y-79733845D01*
X117225866Y-80135000D01*
X118274134Y-80135000D01*
X119242608Y-79733845D01*
X119983845Y-78992608D01*
X120385000Y-78024134D01*
X120385000Y-76975866D01*
X175115000Y-76975866D01*
X175115000Y-78024134D01*
X175516155Y-78992608D01*
X176257392Y-79733845D01*
X177225866Y-80135000D01*
X178274134Y-80135000D01*
X179242608Y-79733845D01*
X179983845Y-78992608D01*
X180385000Y-78024134D01*
X180385000Y-76975866D01*
X234865000Y-76975866D01*
X234865000Y-78024134D01*
X235266155Y-78992608D01*
X236007392Y-79733845D01*
X236975866Y-80135000D01*
X238024134Y-80135000D01*
X238992608Y-79733845D01*
X239733845Y-78992608D01*
X240135000Y-78024134D01*
X240135000Y-76975866D01*
X239733845Y-76007392D01*
X238992608Y-75266155D01*
X238024134Y-74865000D01*
X236975866Y-74865000D01*
X236007392Y-75266155D01*
X235266155Y-76007392D01*
X234865000Y-76975866D01*
X180385000Y-76975866D01*
X179983845Y-76007392D01*
X179242608Y-75266155D01*
X178274134Y-74865000D01*
X177225866Y-74865000D01*
X176257392Y-75266155D01*
X175516155Y-76007392D01*
X175115000Y-76975866D01*
X120385000Y-76975866D01*
X119983845Y-76007392D01*
X119242608Y-75266155D01*
X118274134Y-74865000D01*
X117225866Y-74865000D01*
X116257392Y-75266155D01*
X115516155Y-76007392D01*
X115115000Y-76975866D01*
X60135000Y-76975866D01*
X59733845Y-76007392D01*
X58992608Y-75266155D01*
X58024134Y-74865000D01*
X56975866Y-74865000D01*
X56007392Y-75266155D01*
X55266155Y-76007392D01*
X54865000Y-76975866D01*
X42710000Y-76975866D01*
X42710000Y-73324833D01*
X45305000Y-73324833D01*
X45305000Y-73995167D01*
X45561526Y-74614476D01*
X46035524Y-75088474D01*
X46654833Y-75345000D01*
X47325167Y-75345000D01*
X47944476Y-75088474D01*
X48418474Y-74614476D01*
X48675000Y-73995167D01*
X48675000Y-73324833D01*
X48418474Y-72705524D01*
X47944476Y-72231526D01*
X47325167Y-71975000D01*
X46654833Y-71975000D01*
X46035524Y-72231526D01*
X45561526Y-72705524D01*
X45305000Y-73324833D01*
X42710000Y-73324833D01*
X42710000Y-68244833D01*
X45305000Y-68244833D01*
X45305000Y-68915167D01*
X45561526Y-69534476D01*
X46035524Y-70008474D01*
X46654833Y-70265000D01*
X47325167Y-70265000D01*
X47482090Y-70200000D01*
X62392041Y-70200000D01*
X62508350Y-70784725D01*
X62839570Y-71280430D01*
X63123281Y-71470000D01*
X62839570Y-71659570D01*
X62508350Y-72155275D01*
X62392041Y-72740000D01*
X62508350Y-73324725D01*
X62839570Y-73820430D01*
X63123281Y-74010000D01*
X62839570Y-74199570D01*
X62508350Y-74695275D01*
X62392041Y-75280000D01*
X62508350Y-75864725D01*
X62839570Y-76360430D01*
X63335275Y-76691650D01*
X63772402Y-76778600D01*
X64067598Y-76778600D01*
X64504725Y-76691650D01*
X65000430Y-76360430D01*
X65190000Y-76076719D01*
X65379570Y-76360430D01*
X65875275Y-76691650D01*
X66312402Y-76778600D01*
X66607598Y-76778600D01*
X67044725Y-76691650D01*
X67540430Y-76360430D01*
X67871650Y-75864725D01*
X67987959Y-75280000D01*
X67871650Y-74695275D01*
X67540430Y-74199570D01*
X67256719Y-74010000D01*
X67540430Y-73820430D01*
X67871650Y-73324725D01*
X67987959Y-72740000D01*
X67871650Y-72155275D01*
X67540430Y-71659570D01*
X67256719Y-71470000D01*
X67540430Y-71280430D01*
X67871650Y-70784725D01*
X67987959Y-70200000D01*
X77472041Y-70200000D01*
X77588350Y-70784725D01*
X77919570Y-71280430D01*
X78203281Y-71470000D01*
X77919570Y-71659570D01*
X77588350Y-72155275D01*
X77472041Y-72740000D01*
X77588350Y-73324725D01*
X77919570Y-73820430D01*
X78203281Y-74010000D01*
X77919570Y-74199570D01*
X77588350Y-74695275D01*
X77472041Y-75280000D01*
X77588350Y-75864725D01*
X77919570Y-76360430D01*
X78415275Y-76691650D01*
X78852402Y-76778600D01*
X79147598Y-76778600D01*
X79584725Y-76691650D01*
X80080430Y-76360430D01*
X80270000Y-76076719D01*
X80459570Y-76360430D01*
X80955275Y-76691650D01*
X81392402Y-76778600D01*
X81687598Y-76778600D01*
X82124725Y-76691650D01*
X82620430Y-76360430D01*
X82951650Y-75864725D01*
X83067959Y-75280000D01*
X82951650Y-74695275D01*
X82620430Y-74199570D01*
X82336719Y-74010000D01*
X82620430Y-73820430D01*
X82951650Y-73324725D01*
X83067959Y-72740000D01*
X82951650Y-72155275D01*
X82620430Y-71659570D01*
X82336719Y-71470000D01*
X82620430Y-71280430D01*
X82951650Y-70784725D01*
X83067959Y-70200000D01*
X92472041Y-70200000D01*
X92588350Y-70784725D01*
X92919570Y-71280430D01*
X93203281Y-71470000D01*
X92919570Y-71659570D01*
X92588350Y-72155275D01*
X92472041Y-72740000D01*
X92588350Y-73324725D01*
X92919570Y-73820430D01*
X93203281Y-74010000D01*
X92919570Y-74199570D01*
X92588350Y-74695275D01*
X92472041Y-75280000D01*
X92588350Y-75864725D01*
X92919570Y-76360430D01*
X93415275Y-76691650D01*
X93852402Y-76778600D01*
X94147598Y-76778600D01*
X94584725Y-76691650D01*
X95080430Y-76360430D01*
X95270000Y-76076719D01*
X95459570Y-76360430D01*
X95955275Y-76691650D01*
X96392402Y-76778600D01*
X96687598Y-76778600D01*
X97124725Y-76691650D01*
X97620430Y-76360430D01*
X97951650Y-75864725D01*
X98067959Y-75280000D01*
X97951650Y-74695275D01*
X97620430Y-74199570D01*
X97336719Y-74010000D01*
X97620430Y-73820430D01*
X97951650Y-73324725D01*
X98067959Y-72740000D01*
X97951650Y-72155275D01*
X97620430Y-71659570D01*
X97336719Y-71470000D01*
X97620430Y-71280430D01*
X97951650Y-70784725D01*
X98067959Y-70200000D01*
X98052047Y-70120000D01*
X107472041Y-70120000D01*
X107588350Y-70704725D01*
X107919570Y-71200430D01*
X108203281Y-71390000D01*
X107919570Y-71579570D01*
X107588350Y-72075275D01*
X107472041Y-72660000D01*
X107588350Y-73244725D01*
X107919570Y-73740430D01*
X108203281Y-73930000D01*
X107919570Y-74119570D01*
X107588350Y-74615275D01*
X107472041Y-75200000D01*
X107588350Y-75784725D01*
X107919570Y-76280430D01*
X108415275Y-76611650D01*
X108852402Y-76698600D01*
X109147598Y-76698600D01*
X109584725Y-76611650D01*
X110080430Y-76280430D01*
X110270000Y-75996719D01*
X110459570Y-76280430D01*
X110955275Y-76611650D01*
X111392402Y-76698600D01*
X111687598Y-76698600D01*
X112124725Y-76611650D01*
X112620430Y-76280430D01*
X112951650Y-75784725D01*
X113067959Y-75200000D01*
X112951650Y-74615275D01*
X112620430Y-74119570D01*
X112336719Y-73930000D01*
X112620430Y-73740430D01*
X112951650Y-73244725D01*
X113067959Y-72660000D01*
X112951650Y-72075275D01*
X112620430Y-71579570D01*
X112336719Y-71390000D01*
X112620430Y-71200430D01*
X112951650Y-70704725D01*
X113067959Y-70120000D01*
X122472041Y-70120000D01*
X122588350Y-70704725D01*
X122919570Y-71200430D01*
X123203281Y-71390000D01*
X122919570Y-71579570D01*
X122588350Y-72075275D01*
X122472041Y-72660000D01*
X122588350Y-73244725D01*
X122919570Y-73740430D01*
X123203281Y-73930000D01*
X122919570Y-74119570D01*
X122588350Y-74615275D01*
X122472041Y-75200000D01*
X122588350Y-75784725D01*
X122919570Y-76280430D01*
X123415275Y-76611650D01*
X123852402Y-76698600D01*
X124147598Y-76698600D01*
X124584725Y-76611650D01*
X125080430Y-76280430D01*
X125270000Y-75996719D01*
X125459570Y-76280430D01*
X125955275Y-76611650D01*
X126392402Y-76698600D01*
X126687598Y-76698600D01*
X127124725Y-76611650D01*
X127620430Y-76280430D01*
X127951650Y-75784725D01*
X128067959Y-75200000D01*
X127951650Y-74615275D01*
X127620430Y-74119570D01*
X127336719Y-73930000D01*
X127620430Y-73740430D01*
X127951650Y-73244725D01*
X128067959Y-72660000D01*
X127951650Y-72075275D01*
X127620430Y-71579570D01*
X127336719Y-71390000D01*
X127620430Y-71200430D01*
X127951650Y-70704725D01*
X128067959Y-70120000D01*
X128060003Y-70080000D01*
X137472041Y-70080000D01*
X137588350Y-70664725D01*
X137919570Y-71160430D01*
X138203281Y-71350000D01*
X137919570Y-71539570D01*
X137588350Y-72035275D01*
X137472041Y-72620000D01*
X137588350Y-73204725D01*
X137919570Y-73700430D01*
X138203281Y-73890000D01*
X137919570Y-74079570D01*
X137588350Y-74575275D01*
X137472041Y-75160000D01*
X137588350Y-75744725D01*
X137919570Y-76240430D01*
X138415275Y-76571650D01*
X138852402Y-76658600D01*
X139147598Y-76658600D01*
X139584725Y-76571650D01*
X140080430Y-76240430D01*
X140270000Y-75956719D01*
X140459570Y-76240430D01*
X140955275Y-76571650D01*
X141392402Y-76658600D01*
X141687598Y-76658600D01*
X142124725Y-76571650D01*
X142620430Y-76240430D01*
X142951650Y-75744725D01*
X143067959Y-75160000D01*
X142951650Y-74575275D01*
X142620430Y-74079570D01*
X142336719Y-73890000D01*
X142620430Y-73700430D01*
X142951650Y-73204725D01*
X143067959Y-72620000D01*
X142951650Y-72035275D01*
X142620430Y-71539570D01*
X142336719Y-71350000D01*
X142620430Y-71160430D01*
X142951650Y-70664725D01*
X143044089Y-70200000D01*
X152472041Y-70200000D01*
X152588350Y-70784725D01*
X152919570Y-71280430D01*
X153203281Y-71470000D01*
X152919570Y-71659570D01*
X152588350Y-72155275D01*
X152472041Y-72740000D01*
X152588350Y-73324725D01*
X152919570Y-73820430D01*
X153203281Y-74010000D01*
X152919570Y-74199570D01*
X152588350Y-74695275D01*
X152472041Y-75280000D01*
X152588350Y-75864725D01*
X152919570Y-76360430D01*
X153415275Y-76691650D01*
X153852402Y-76778600D01*
X154147598Y-76778600D01*
X154584725Y-76691650D01*
X155080430Y-76360430D01*
X155270000Y-76076719D01*
X155459570Y-76360430D01*
X155955275Y-76691650D01*
X156392402Y-76778600D01*
X156687598Y-76778600D01*
X157124725Y-76691650D01*
X157620430Y-76360430D01*
X157951650Y-75864725D01*
X158067959Y-75280000D01*
X157951650Y-74695275D01*
X157620430Y-74199570D01*
X157336719Y-74010000D01*
X157620430Y-73820430D01*
X157951650Y-73324725D01*
X158067959Y-72740000D01*
X157951650Y-72155275D01*
X157620430Y-71659570D01*
X157336719Y-71470000D01*
X157620430Y-71280430D01*
X157951650Y-70784725D01*
X158067959Y-70200000D01*
X167472041Y-70200000D01*
X167588350Y-70784725D01*
X167919570Y-71280430D01*
X168203281Y-71470000D01*
X167919570Y-71659570D01*
X167588350Y-72155275D01*
X167472041Y-72740000D01*
X167588350Y-73324725D01*
X167919570Y-73820430D01*
X168203281Y-74010000D01*
X167919570Y-74199570D01*
X167588350Y-74695275D01*
X167472041Y-75280000D01*
X167588350Y-75864725D01*
X167919570Y-76360430D01*
X168415275Y-76691650D01*
X168852402Y-76778600D01*
X169147598Y-76778600D01*
X169584725Y-76691650D01*
X170080430Y-76360430D01*
X170270000Y-76076719D01*
X170459570Y-76360430D01*
X170955275Y-76691650D01*
X171392402Y-76778600D01*
X171687598Y-76778600D01*
X172124725Y-76691650D01*
X172620430Y-76360430D01*
X172951650Y-75864725D01*
X173067959Y-75280000D01*
X172951650Y-74695275D01*
X172620430Y-74199570D01*
X172336719Y-74010000D01*
X172620430Y-73820430D01*
X172951650Y-73324725D01*
X173067959Y-72740000D01*
X172951650Y-72155275D01*
X172620430Y-71659570D01*
X172336719Y-71470000D01*
X172620430Y-71280430D01*
X172951650Y-70784725D01*
X173067959Y-70200000D01*
X182472041Y-70200000D01*
X182588350Y-70784725D01*
X182919570Y-71280430D01*
X183203281Y-71470000D01*
X182919570Y-71659570D01*
X182588350Y-72155275D01*
X182472041Y-72740000D01*
X182588350Y-73324725D01*
X182919570Y-73820430D01*
X183203281Y-74010000D01*
X182919570Y-74199570D01*
X182588350Y-74695275D01*
X182472041Y-75280000D01*
X182588350Y-75864725D01*
X182919570Y-76360430D01*
X183415275Y-76691650D01*
X183852402Y-76778600D01*
X184147598Y-76778600D01*
X184584725Y-76691650D01*
X185080430Y-76360430D01*
X185270000Y-76076719D01*
X185459570Y-76360430D01*
X185955275Y-76691650D01*
X186392402Y-76778600D01*
X186687598Y-76778600D01*
X187124725Y-76691650D01*
X187620430Y-76360430D01*
X187951650Y-75864725D01*
X188067959Y-75280000D01*
X187951650Y-74695275D01*
X187620430Y-74199570D01*
X187336719Y-74010000D01*
X187620430Y-73820430D01*
X187951650Y-73324725D01*
X188067959Y-72740000D01*
X187951650Y-72155275D01*
X187620430Y-71659570D01*
X187336719Y-71470000D01*
X187620430Y-71280430D01*
X187951650Y-70784725D01*
X188067959Y-70200000D01*
X197472041Y-70200000D01*
X197588350Y-70784725D01*
X197919570Y-71280430D01*
X198203281Y-71470000D01*
X197919570Y-71659570D01*
X197588350Y-72155275D01*
X197472041Y-72740000D01*
X197588350Y-73324725D01*
X197919570Y-73820430D01*
X198203281Y-74010000D01*
X197919570Y-74199570D01*
X197588350Y-74695275D01*
X197472041Y-75280000D01*
X197588350Y-75864725D01*
X197919570Y-76360430D01*
X198415275Y-76691650D01*
X198852402Y-76778600D01*
X199147598Y-76778600D01*
X199584725Y-76691650D01*
X200080430Y-76360430D01*
X200270000Y-76076719D01*
X200459570Y-76360430D01*
X200955275Y-76691650D01*
X201392402Y-76778600D01*
X201687598Y-76778600D01*
X202124725Y-76691650D01*
X202620430Y-76360430D01*
X202951650Y-75864725D01*
X203067959Y-75280000D01*
X202951650Y-74695275D01*
X202620430Y-74199570D01*
X202336719Y-74010000D01*
X202620430Y-73820430D01*
X202951650Y-73324725D01*
X203067959Y-72740000D01*
X202951650Y-72155275D01*
X202620430Y-71659570D01*
X202336719Y-71470000D01*
X202620430Y-71280430D01*
X202951650Y-70784725D01*
X203067959Y-70200000D01*
X212472041Y-70200000D01*
X212588350Y-70784725D01*
X212919570Y-71280430D01*
X213203281Y-71470000D01*
X212919570Y-71659570D01*
X212588350Y-72155275D01*
X212472041Y-72740000D01*
X212588350Y-73324725D01*
X212919570Y-73820430D01*
X213203281Y-74010000D01*
X212919570Y-74199570D01*
X212588350Y-74695275D01*
X212472041Y-75280000D01*
X212588350Y-75864725D01*
X212919570Y-76360430D01*
X213415275Y-76691650D01*
X213852402Y-76778600D01*
X214147598Y-76778600D01*
X214584725Y-76691650D01*
X215080430Y-76360430D01*
X215270000Y-76076719D01*
X215459570Y-76360430D01*
X215955275Y-76691650D01*
X216392402Y-76778600D01*
X216687598Y-76778600D01*
X217124725Y-76691650D01*
X217620430Y-76360430D01*
X217951650Y-75864725D01*
X218067959Y-75280000D01*
X217951650Y-74695275D01*
X217620430Y-74199570D01*
X217336719Y-74010000D01*
X217620430Y-73820430D01*
X217951650Y-73324725D01*
X218067959Y-72740000D01*
X217951650Y-72155275D01*
X217620430Y-71659570D01*
X217336719Y-71470000D01*
X217620430Y-71280430D01*
X217951650Y-70784725D01*
X218067959Y-70200000D01*
X227472041Y-70200000D01*
X227588350Y-70784725D01*
X227919570Y-71280430D01*
X228203281Y-71470000D01*
X227919570Y-71659570D01*
X227588350Y-72155275D01*
X227472041Y-72740000D01*
X227588350Y-73324725D01*
X227919570Y-73820430D01*
X228203281Y-74010000D01*
X227919570Y-74199570D01*
X227588350Y-74695275D01*
X227472041Y-75280000D01*
X227588350Y-75864725D01*
X227919570Y-76360430D01*
X228415275Y-76691650D01*
X228852402Y-76778600D01*
X229147598Y-76778600D01*
X229584725Y-76691650D01*
X230080430Y-76360430D01*
X230270000Y-76076719D01*
X230459570Y-76360430D01*
X230955275Y-76691650D01*
X231392402Y-76778600D01*
X231687598Y-76778600D01*
X232124725Y-76691650D01*
X232620430Y-76360430D01*
X232951650Y-75864725D01*
X233067959Y-75280000D01*
X232951650Y-74695275D01*
X232620430Y-74199570D01*
X232336719Y-74010000D01*
X232620430Y-73820430D01*
X232951650Y-73324725D01*
X233067959Y-72740000D01*
X232951650Y-72155275D01*
X232620430Y-71659570D01*
X232336719Y-71470000D01*
X232620430Y-71280430D01*
X232951650Y-70784725D01*
X233067959Y-70200000D01*
X232951650Y-69615275D01*
X232620430Y-69119570D01*
X232318979Y-68918146D01*
X232428490Y-68866821D01*
X232822688Y-68434947D01*
X232994958Y-68019026D01*
X232873817Y-67787000D01*
X231667000Y-67787000D01*
X231667000Y-67807000D01*
X231413000Y-67807000D01*
X231413000Y-67787000D01*
X229127000Y-67787000D01*
X229127000Y-67807000D01*
X228873000Y-67807000D01*
X228873000Y-67787000D01*
X227666183Y-67787000D01*
X227545042Y-68019026D01*
X227717312Y-68434947D01*
X228111510Y-68866821D01*
X228221021Y-68918146D01*
X227919570Y-69119570D01*
X227588350Y-69615275D01*
X227472041Y-70200000D01*
X218067959Y-70200000D01*
X217951650Y-69615275D01*
X217620430Y-69119570D01*
X217318979Y-68918146D01*
X217428490Y-68866821D01*
X217822688Y-68434947D01*
X217994958Y-68019026D01*
X217873817Y-67787000D01*
X216667000Y-67787000D01*
X216667000Y-67807000D01*
X216413000Y-67807000D01*
X216413000Y-67787000D01*
X214127000Y-67787000D01*
X214127000Y-67807000D01*
X213873000Y-67807000D01*
X213873000Y-67787000D01*
X212666183Y-67787000D01*
X212545042Y-68019026D01*
X212717312Y-68434947D01*
X213111510Y-68866821D01*
X213221021Y-68918146D01*
X212919570Y-69119570D01*
X212588350Y-69615275D01*
X212472041Y-70200000D01*
X203067959Y-70200000D01*
X202951650Y-69615275D01*
X202620430Y-69119570D01*
X202318979Y-68918146D01*
X202428490Y-68866821D01*
X202822688Y-68434947D01*
X202994958Y-68019026D01*
X202873817Y-67787000D01*
X201667000Y-67787000D01*
X201667000Y-67807000D01*
X201413000Y-67807000D01*
X201413000Y-67787000D01*
X199127000Y-67787000D01*
X199127000Y-67807000D01*
X198873000Y-67807000D01*
X198873000Y-67787000D01*
X197666183Y-67787000D01*
X197545042Y-68019026D01*
X197717312Y-68434947D01*
X198111510Y-68866821D01*
X198221021Y-68918146D01*
X197919570Y-69119570D01*
X197588350Y-69615275D01*
X197472041Y-70200000D01*
X188067959Y-70200000D01*
X187951650Y-69615275D01*
X187620430Y-69119570D01*
X187318979Y-68918146D01*
X187428490Y-68866821D01*
X187822688Y-68434947D01*
X187994958Y-68019026D01*
X187873817Y-67787000D01*
X186667000Y-67787000D01*
X186667000Y-67807000D01*
X186413000Y-67807000D01*
X186413000Y-67787000D01*
X184127000Y-67787000D01*
X184127000Y-67807000D01*
X183873000Y-67807000D01*
X183873000Y-67787000D01*
X182666183Y-67787000D01*
X182545042Y-68019026D01*
X182717312Y-68434947D01*
X183111510Y-68866821D01*
X183221021Y-68918146D01*
X182919570Y-69119570D01*
X182588350Y-69615275D01*
X182472041Y-70200000D01*
X173067959Y-70200000D01*
X172951650Y-69615275D01*
X172620430Y-69119570D01*
X172318979Y-68918146D01*
X172428490Y-68866821D01*
X172822688Y-68434947D01*
X172994958Y-68019026D01*
X172873817Y-67787000D01*
X171667000Y-67787000D01*
X171667000Y-67807000D01*
X171413000Y-67807000D01*
X171413000Y-67787000D01*
X169127000Y-67787000D01*
X169127000Y-67807000D01*
X168873000Y-67807000D01*
X168873000Y-67787000D01*
X167666183Y-67787000D01*
X167545042Y-68019026D01*
X167717312Y-68434947D01*
X168111510Y-68866821D01*
X168221021Y-68918146D01*
X167919570Y-69119570D01*
X167588350Y-69615275D01*
X167472041Y-70200000D01*
X158067959Y-70200000D01*
X157951650Y-69615275D01*
X157620430Y-69119570D01*
X157318979Y-68918146D01*
X157428490Y-68866821D01*
X157822688Y-68434947D01*
X157994958Y-68019026D01*
X157873817Y-67787000D01*
X156667000Y-67787000D01*
X156667000Y-67807000D01*
X156413000Y-67807000D01*
X156413000Y-67787000D01*
X154127000Y-67787000D01*
X154127000Y-67807000D01*
X153873000Y-67807000D01*
X153873000Y-67787000D01*
X152666183Y-67787000D01*
X152545042Y-68019026D01*
X152717312Y-68434947D01*
X153111510Y-68866821D01*
X153221021Y-68918146D01*
X152919570Y-69119570D01*
X152588350Y-69615275D01*
X152472041Y-70200000D01*
X143044089Y-70200000D01*
X143067959Y-70080000D01*
X142951650Y-69495275D01*
X142620430Y-68999570D01*
X142318979Y-68798146D01*
X142428490Y-68746821D01*
X142822688Y-68314947D01*
X142994958Y-67899026D01*
X142873817Y-67667000D01*
X141667000Y-67667000D01*
X141667000Y-67687000D01*
X141413000Y-67687000D01*
X141413000Y-67667000D01*
X139127000Y-67667000D01*
X139127000Y-67687000D01*
X138873000Y-67687000D01*
X138873000Y-67667000D01*
X137666183Y-67667000D01*
X137545042Y-67899026D01*
X137717312Y-68314947D01*
X138111510Y-68746821D01*
X138221021Y-68798146D01*
X137919570Y-68999570D01*
X137588350Y-69495275D01*
X137472041Y-70080000D01*
X128060003Y-70080000D01*
X127951650Y-69535275D01*
X127620430Y-69039570D01*
X127318979Y-68838146D01*
X127428490Y-68786821D01*
X127822688Y-68354947D01*
X127994958Y-67939026D01*
X127873817Y-67707000D01*
X126667000Y-67707000D01*
X126667000Y-67727000D01*
X126413000Y-67727000D01*
X126413000Y-67707000D01*
X124127000Y-67707000D01*
X124127000Y-67727000D01*
X123873000Y-67727000D01*
X123873000Y-67707000D01*
X122666183Y-67707000D01*
X122545042Y-67939026D01*
X122717312Y-68354947D01*
X123111510Y-68786821D01*
X123221021Y-68838146D01*
X122919570Y-69039570D01*
X122588350Y-69535275D01*
X122472041Y-70120000D01*
X113067959Y-70120000D01*
X112951650Y-69535275D01*
X112620430Y-69039570D01*
X112318979Y-68838146D01*
X112428490Y-68786821D01*
X112822688Y-68354947D01*
X112994958Y-67939026D01*
X112873817Y-67707000D01*
X111667000Y-67707000D01*
X111667000Y-67727000D01*
X111413000Y-67727000D01*
X111413000Y-67707000D01*
X109127000Y-67707000D01*
X109127000Y-67727000D01*
X108873000Y-67727000D01*
X108873000Y-67707000D01*
X107666183Y-67707000D01*
X107545042Y-67939026D01*
X107717312Y-68354947D01*
X108111510Y-68786821D01*
X108221021Y-68838146D01*
X107919570Y-69039570D01*
X107588350Y-69535275D01*
X107472041Y-70120000D01*
X98052047Y-70120000D01*
X97951650Y-69615275D01*
X97620430Y-69119570D01*
X97318979Y-68918146D01*
X97428490Y-68866821D01*
X97822688Y-68434947D01*
X97994958Y-68019026D01*
X97873817Y-67787000D01*
X96667000Y-67787000D01*
X96667000Y-67807000D01*
X96413000Y-67807000D01*
X96413000Y-67787000D01*
X94127000Y-67787000D01*
X94127000Y-67807000D01*
X93873000Y-67807000D01*
X93873000Y-67787000D01*
X92666183Y-67787000D01*
X92545042Y-68019026D01*
X92717312Y-68434947D01*
X93111510Y-68866821D01*
X93221021Y-68918146D01*
X92919570Y-69119570D01*
X92588350Y-69615275D01*
X92472041Y-70200000D01*
X83067959Y-70200000D01*
X82951650Y-69615275D01*
X82620430Y-69119570D01*
X82318979Y-68918146D01*
X82428490Y-68866821D01*
X82822688Y-68434947D01*
X82994958Y-68019026D01*
X82873817Y-67787000D01*
X81667000Y-67787000D01*
X81667000Y-67807000D01*
X81413000Y-67807000D01*
X81413000Y-67787000D01*
X79127000Y-67787000D01*
X79127000Y-67807000D01*
X78873000Y-67807000D01*
X78873000Y-67787000D01*
X77666183Y-67787000D01*
X77545042Y-68019026D01*
X77717312Y-68434947D01*
X78111510Y-68866821D01*
X78221021Y-68918146D01*
X77919570Y-69119570D01*
X77588350Y-69615275D01*
X77472041Y-70200000D01*
X67987959Y-70200000D01*
X67871650Y-69615275D01*
X67540430Y-69119570D01*
X67238979Y-68918146D01*
X67348490Y-68866821D01*
X67742688Y-68434947D01*
X67914958Y-68019026D01*
X67888861Y-67969041D01*
X71108086Y-67969041D01*
X71347611Y-68475134D01*
X71762577Y-68851041D01*
X72150961Y-69011904D01*
X72373000Y-68889915D01*
X72373000Y-67747000D01*
X72627000Y-67747000D01*
X72627000Y-68889915D01*
X72849039Y-69011904D01*
X73237423Y-68851041D01*
X73652389Y-68475134D01*
X73891914Y-67969041D01*
X73770629Y-67747000D01*
X72627000Y-67747000D01*
X72373000Y-67747000D01*
X71229371Y-67747000D01*
X71108086Y-67969041D01*
X67888861Y-67969041D01*
X67793817Y-67787000D01*
X66587000Y-67787000D01*
X66587000Y-67807000D01*
X66333000Y-67807000D01*
X66333000Y-67787000D01*
X64047000Y-67787000D01*
X64047000Y-67807000D01*
X63793000Y-67807000D01*
X63793000Y-67787000D01*
X62586183Y-67787000D01*
X62465042Y-68019026D01*
X62637312Y-68434947D01*
X63031510Y-68866821D01*
X63141021Y-68918146D01*
X62839570Y-69119570D01*
X62508350Y-69615275D01*
X62392041Y-70200000D01*
X47482090Y-70200000D01*
X47944476Y-70008474D01*
X48418474Y-69534476D01*
X48675000Y-68915167D01*
X48675000Y-68244833D01*
X48418474Y-67625524D01*
X47944476Y-67151526D01*
X47325167Y-66895000D01*
X46654833Y-66895000D01*
X46035524Y-67151526D01*
X45561526Y-67625524D01*
X45305000Y-68244833D01*
X42710000Y-68244833D01*
X42710000Y-64688703D01*
X45980902Y-64688703D01*
X46085687Y-64960745D01*
X46713526Y-65195619D01*
X47383456Y-65172349D01*
X47894313Y-64960745D01*
X47999098Y-64688703D01*
X46990000Y-63679605D01*
X45980902Y-64688703D01*
X42710000Y-64688703D01*
X42710000Y-63223526D01*
X45294381Y-63223526D01*
X45317651Y-63893456D01*
X45529255Y-64404313D01*
X45801297Y-64509098D01*
X46810395Y-63500000D01*
X47169605Y-63500000D01*
X48178703Y-64509098D01*
X48450745Y-64404313D01*
X48685619Y-63776474D01*
X48662349Y-63106544D01*
X48450745Y-62595687D01*
X48178703Y-62490902D01*
X47169605Y-63500000D01*
X46810395Y-63500000D01*
X45801297Y-62490902D01*
X45529255Y-62595687D01*
X45294381Y-63223526D01*
X42710000Y-63223526D01*
X42710000Y-62311297D01*
X45980902Y-62311297D01*
X46990000Y-63320395D01*
X47999098Y-62311297D01*
X47894313Y-62039255D01*
X47266474Y-61804381D01*
X46596544Y-61827651D01*
X46085687Y-62039255D01*
X45980902Y-62311297D01*
X42710000Y-62311297D01*
X42710000Y-61627000D01*
X62754424Y-61627000D01*
X62508350Y-61995275D01*
G04 #@! TD*
M02*
