M48
;DRILL file {KiCad 5.0.2+dfsg1-1~bpo9+1} date Fri 18 Oct 2019 10:52:28 PM CEST
;FORMAT={-:-/ absolute / inch / decimal}
FMAT,2
INCH,TZ
T1C0.0315
T2C0.0354
T3C0.0400
T4C0.0433
%
G90
G05
T1
X4.0354Y-2.3622
X4.0354Y-2.6622
X3.4449Y-2.3622
X3.4449Y-2.6622
X2.8543Y-2.3622
X2.8543Y-2.6622
T2
X3.9961Y-2.2244
X4.0961Y-2.2244
X3.4055Y-2.2244
X3.5055Y-2.2244
X2.815Y-2.2244
X2.915Y-2.2244
T3
X7.2441Y-2.2638
X7.2441Y-2.3638
X7.2441Y-2.4638
X7.2441Y-2.5638
X7.2441Y-2.6638
X7.2441Y-2.7638
X7.2441Y-2.8638
X7.2441Y-2.9638
X7.3441Y-2.2638
X7.3441Y-2.3638
X7.3441Y-2.4638
X7.3441Y-2.5638
X7.3441Y-2.6638
X7.3441Y-2.7638
X7.3441Y-2.8638
X7.3441Y-2.9638
X6.6535Y-2.2638
X6.6535Y-2.3638
X6.6535Y-2.4638
X6.6535Y-2.5638
X6.6535Y-2.6638
X6.6535Y-2.7638
X6.6535Y-2.8638
X6.6535Y-2.9638
X6.7535Y-2.2638
X6.7535Y-2.3638
X6.7535Y-2.4638
X6.7535Y-2.5638
X6.7535Y-2.6638
X6.7535Y-2.7638
X6.7535Y-2.8638
X6.7535Y-2.9638
X3.7008Y-2.2638
X3.7008Y-2.3638
X3.7008Y-2.4638
X3.7008Y-2.5638
X3.7008Y-2.6638
X3.7008Y-2.7638
X3.7008Y-2.8638
X3.7008Y-2.9638
X3.8008Y-2.2638
X3.8008Y-2.3638
X3.8008Y-2.4638
X3.8008Y-2.5638
X3.8008Y-2.6638
X3.8008Y-2.7638
X3.8008Y-2.8638
X3.8008Y-2.9638
X7.8346Y-2.2638
X7.8346Y-2.3638
X7.8346Y-2.4638
X7.8346Y-2.5638
X7.8346Y-2.6638
X7.8346Y-2.7638
X7.8346Y-2.8638
X7.8346Y-2.9638
X7.9346Y-2.2638
X7.9346Y-2.3638
X7.9346Y-2.4638
X7.9346Y-2.5638
X7.9346Y-2.6638
X7.9346Y-2.7638
X7.9346Y-2.8638
X7.9346Y-2.9638
X4.8819Y-2.2606
X4.8819Y-2.3606
X4.8819Y-2.4606
X4.8819Y-2.5606
X4.8819Y-2.6606
X4.8819Y-2.7606
X4.8819Y-2.8606
X4.8819Y-2.9606
X4.9819Y-2.2606
X4.9819Y-2.3606
X4.9819Y-2.4606
X4.9819Y-2.5606
X4.9819Y-2.6606
X4.9819Y-2.7606
X4.9819Y-2.8606
X4.9819Y-2.9606
X6.063Y-2.2638
X6.063Y-2.3638
X6.063Y-2.4638
X6.063Y-2.5638
X6.063Y-2.6638
X6.063Y-2.7638
X6.063Y-2.8638
X6.063Y-2.9638
X6.163Y-2.2638
X6.163Y-2.3638
X6.163Y-2.4638
X6.163Y-2.5638
X6.163Y-2.6638
X6.163Y-2.7638
X6.163Y-2.8638
X6.163Y-2.9638
X4.2913Y-2.2606
X4.2913Y-2.3606
X4.2913Y-2.4606
X4.2913Y-2.5606
X4.2913Y-2.6606
X4.2913Y-2.7606
X4.2913Y-2.8606
X4.2913Y-2.9606
X4.3913Y-2.2606
X4.3913Y-2.3606
X4.3913Y-2.4606
X4.3913Y-2.5606
X4.3913Y-2.6606
X4.3913Y-2.7606
X4.3913Y-2.8606
X4.3913Y-2.9606
X8.4252Y-2.2638
X8.4252Y-2.3638
X8.4252Y-2.4638
X8.4252Y-2.5638
X8.4252Y-2.6638
X8.4252Y-2.7638
X8.4252Y-2.8638
X8.4252Y-2.9638
X8.5252Y-2.2638
X8.5252Y-2.3638
X8.5252Y-2.4638
X8.5252Y-2.5638
X8.5252Y-2.6638
X8.5252Y-2.7638
X8.5252Y-2.8638
X8.5252Y-2.9638
X3.1102Y-2.2638
X3.1102Y-2.3638
X3.1102Y-2.4638
X3.1102Y-2.5638
X3.1102Y-2.6638
X3.1102Y-2.7638
X3.1102Y-2.8638
X3.1102Y-2.9638
X3.2102Y-2.2638
X3.2102Y-2.3638
X3.2102Y-2.4638
X3.2102Y-2.5638
X3.2102Y-2.6638
X3.2102Y-2.7638
X3.2102Y-2.8638
X3.2102Y-2.9638
X9.0157Y-2.2638
X9.0157Y-2.3638
X9.0157Y-2.4638
X9.0157Y-2.5638
X9.0157Y-2.6638
X9.0157Y-2.7638
X9.0157Y-2.8638
X9.0157Y-2.9638
X9.1157Y-2.2638
X9.1157Y-2.3638
X9.1157Y-2.4638
X9.1157Y-2.5638
X9.1157Y-2.6638
X9.1157Y-2.7638
X9.1157Y-2.8638
X9.1157Y-2.9638
X5.4724Y-2.2591
X5.4724Y-2.3591
X5.4724Y-2.4591
X5.4724Y-2.5591
X5.4724Y-2.6591
X5.4724Y-2.7591
X5.4724Y-2.8591
X5.4724Y-2.9591
X5.5724Y-2.2591
X5.5724Y-2.3591
X5.5724Y-2.4591
X5.5724Y-2.5591
X5.5724Y-2.6591
X5.5724Y-2.7591
X5.5724Y-2.8591
X5.5724Y-2.9591
X2.5165Y-2.2638
X2.5165Y-2.3638
X2.5165Y-2.4638
X2.5165Y-2.5638
X2.5165Y-2.6638
X2.5165Y-2.7638
X2.5165Y-2.8638
X2.5165Y-2.9638
X2.6165Y-2.2638
X2.6165Y-2.3638
X2.6165Y-2.4638
X2.6165Y-2.5638
X2.6165Y-2.6638
X2.6165Y-2.7638
X2.6165Y-2.8638
X2.6165Y-2.9638
T4
X1.85Y-2.1
X1.85Y-2.3
X1.85Y-2.5
X1.85Y-2.7
X1.85Y-2.9
X1.85Y-3.1
T0
M30
