G04 #@! TF.GenerationSoftware,KiCad,Pcbnew,5.0.2+dfsg1-1~bpo9+1*
G04 #@! TF.CreationDate,2019-10-18T22:52:31+02:00*
G04 #@! TF.ProjectId,busboard,62757362-6f61-4726-942e-6b696361645f,rev?*
G04 #@! TF.SameCoordinates,Original*
G04 #@! TF.FileFunction,Legend,Top*
G04 #@! TF.FilePolarity,Positive*
%FSLAX46Y46*%
G04 Gerber Fmt 4.6, Leading zero omitted, Abs format (unit mm)*
G04 Created by KiCad (PCBNEW 5.0.2+dfsg1-1~bpo9+1) date Fri 18 Oct 2019 10:52:31 PM CEST*
%MOMM*%
%LPD*%
G01*
G04 APERTURE LIST*
%ADD10C,0.400000*%
%ADD11C,0.150000*%
%ADD12C,0.200000*%
%ADD13C,0.100000*%
%ADD14C,0.120000*%
G04 APERTURE END LIST*
D10*
X236285238Y-73574952D02*
X236285238Y-72317809D01*
X238485238Y-72946380D02*
X236285238Y-72946380D01*
X236285238Y-71165428D02*
X236285238Y-70746380D01*
X236390000Y-70536857D01*
X236599523Y-70327333D01*
X237018571Y-70222571D01*
X237751904Y-70222571D01*
X238170952Y-70327333D01*
X238380476Y-70536857D01*
X238485238Y-70746380D01*
X238485238Y-71165428D01*
X238380476Y-71374952D01*
X238170952Y-71584476D01*
X237751904Y-71689238D01*
X237018571Y-71689238D01*
X236599523Y-71584476D01*
X236390000Y-71374952D01*
X236285238Y-71165428D01*
X238485238Y-69279714D02*
X236285238Y-69279714D01*
X237856666Y-68546380D01*
X236285238Y-67813047D01*
X238485238Y-67813047D01*
X237856666Y-66870190D02*
X237856666Y-65822571D01*
X238485238Y-67079714D02*
X236285238Y-66346380D01*
X238485238Y-65613047D01*
X238485238Y-63622571D02*
X237437619Y-64355904D01*
X238485238Y-64879714D02*
X236285238Y-64879714D01*
X236285238Y-64041619D01*
X236390000Y-63832095D01*
X236494761Y-63727333D01*
X236704285Y-63622571D01*
X237018571Y-63622571D01*
X237228095Y-63727333D01*
X237332857Y-63832095D01*
X237437619Y-64041619D01*
X237437619Y-64879714D01*
X236285238Y-62679714D02*
X238066190Y-62679714D01*
X238275714Y-62574952D01*
X238380476Y-62470190D01*
X238485238Y-62260666D01*
X238485238Y-61841619D01*
X238380476Y-61632095D01*
X238275714Y-61527333D01*
X238066190Y-61422571D01*
X236285238Y-61422571D01*
X238380476Y-60479714D02*
X238485238Y-60165428D01*
X238485238Y-59641619D01*
X238380476Y-59432095D01*
X238275714Y-59327333D01*
X238066190Y-59222571D01*
X237856666Y-59222571D01*
X237647142Y-59327333D01*
X237542380Y-59432095D01*
X237437619Y-59641619D01*
X237332857Y-60060666D01*
X237228095Y-60270190D01*
X237123333Y-60374952D01*
X236913809Y-60479714D01*
X236704285Y-60479714D01*
X236494761Y-60374952D01*
X236390000Y-60270190D01*
X236285238Y-60060666D01*
X236285238Y-59536857D01*
X236390000Y-59222571D01*
D11*
X117252380Y-71019047D02*
X117966666Y-71019047D01*
X118109523Y-71066666D01*
X118204761Y-71161904D01*
X118252380Y-71304761D01*
X118252380Y-71400000D01*
X118252380Y-70066666D02*
X118252380Y-70542857D01*
X117252380Y-70542857D01*
X118157142Y-69161904D02*
X118204761Y-69209523D01*
X118252380Y-69352380D01*
X118252380Y-69447619D01*
X118204761Y-69590476D01*
X118109523Y-69685714D01*
X118014285Y-69733333D01*
X117823809Y-69780952D01*
X117680952Y-69780952D01*
X117490476Y-69733333D01*
X117395238Y-69685714D01*
X117300000Y-69590476D01*
X117252380Y-69447619D01*
X117252380Y-69352380D01*
X117300000Y-69209523D01*
X117347619Y-69161904D01*
X117252380Y-68447619D02*
X117966666Y-68447619D01*
X118109523Y-68495238D01*
X118204761Y-68590476D01*
X118252380Y-68733333D01*
X118252380Y-68828571D01*
X118252380Y-67495238D02*
X118252380Y-67971428D01*
X117252380Y-67971428D01*
X118157142Y-66590476D02*
X118204761Y-66638095D01*
X118252380Y-66780952D01*
X118252380Y-66876190D01*
X118204761Y-67019047D01*
X118109523Y-67114285D01*
X118014285Y-67161904D01*
X117823809Y-67209523D01*
X117680952Y-67209523D01*
X117490476Y-67161904D01*
X117395238Y-67114285D01*
X117300000Y-67019047D01*
X117252380Y-66876190D01*
X117252380Y-66780952D01*
X117300000Y-66638095D01*
X117347619Y-66590476D01*
X117252380Y-65876190D02*
X117966666Y-65876190D01*
X118109523Y-65923809D01*
X118204761Y-66019047D01*
X118252380Y-66161904D01*
X118252380Y-66257142D01*
X118252380Y-64923809D02*
X118252380Y-65400000D01*
X117252380Y-65400000D01*
X118157142Y-64019047D02*
X118204761Y-64066666D01*
X118252380Y-64209523D01*
X118252380Y-64304761D01*
X118204761Y-64447619D01*
X118109523Y-64542857D01*
X118014285Y-64590476D01*
X117823809Y-64638095D01*
X117680952Y-64638095D01*
X117490476Y-64590476D01*
X117395238Y-64542857D01*
X117300000Y-64447619D01*
X117252380Y-64304761D01*
X117252380Y-64209523D01*
X117300000Y-64066666D01*
X117347619Y-64019047D01*
X117252380Y-63304761D02*
X117966666Y-63304761D01*
X118109523Y-63352380D01*
X118204761Y-63447619D01*
X118252380Y-63590476D01*
X118252380Y-63685714D01*
X118252380Y-62352380D02*
X118252380Y-62828571D01*
X117252380Y-62828571D01*
X118157142Y-61447619D02*
X118204761Y-61495238D01*
X118252380Y-61638095D01*
X118252380Y-61733333D01*
X118204761Y-61876190D01*
X118109523Y-61971428D01*
X118014285Y-62019047D01*
X117823809Y-62066666D01*
X117680952Y-62066666D01*
X117490476Y-62019047D01*
X117395238Y-61971428D01*
X117300000Y-61876190D01*
X117252380Y-61733333D01*
X117252380Y-61638095D01*
X117300000Y-61495238D01*
X117347619Y-61447619D01*
X240535714Y-77352380D02*
X241345238Y-77352380D01*
X241440476Y-77400000D01*
X241488095Y-77447619D01*
X241535714Y-77542857D01*
X241535714Y-77685714D01*
X241488095Y-77780952D01*
X241154761Y-77352380D02*
X241202380Y-77447619D01*
X241202380Y-77638095D01*
X241154761Y-77733333D01*
X241107142Y-77780952D01*
X241011904Y-77828571D01*
X240726190Y-77828571D01*
X240630952Y-77780952D01*
X240583333Y-77733333D01*
X240535714Y-77638095D01*
X240535714Y-77447619D01*
X240583333Y-77352380D01*
X241202380Y-76876190D02*
X240535714Y-76876190D01*
X240202380Y-76876190D02*
X240250000Y-76923809D01*
X240297619Y-76876190D01*
X240250000Y-76828571D01*
X240202380Y-76876190D01*
X240297619Y-76876190D01*
X240535714Y-76542857D02*
X240535714Y-76161904D01*
X240202380Y-76400000D02*
X241059523Y-76400000D01*
X241154761Y-76352380D01*
X241202380Y-76257142D01*
X241202380Y-76161904D01*
X241202380Y-75828571D02*
X240202380Y-75828571D01*
X241202380Y-75400000D02*
X240678571Y-75400000D01*
X240583333Y-75447619D01*
X240535714Y-75542857D01*
X240535714Y-75685714D01*
X240583333Y-75780952D01*
X240630952Y-75828571D01*
X240535714Y-74495238D02*
X241202380Y-74495238D01*
X240535714Y-74923809D02*
X241059523Y-74923809D01*
X241154761Y-74876190D01*
X241202380Y-74780952D01*
X241202380Y-74638095D01*
X241154761Y-74542857D01*
X241107142Y-74495238D01*
X241202380Y-74019047D02*
X240202380Y-74019047D01*
X240583333Y-74019047D02*
X240535714Y-73923809D01*
X240535714Y-73733333D01*
X240583333Y-73638095D01*
X240630952Y-73590476D01*
X240726190Y-73542857D01*
X241011904Y-73542857D01*
X241107142Y-73590476D01*
X241154761Y-73638095D01*
X241202380Y-73733333D01*
X241202380Y-73923809D01*
X241154761Y-74019047D01*
X241107142Y-73114285D02*
X241154761Y-73066666D01*
X241202380Y-73114285D01*
X241154761Y-73161904D01*
X241107142Y-73114285D01*
X241202380Y-73114285D01*
X241154761Y-72209523D02*
X241202380Y-72304761D01*
X241202380Y-72495238D01*
X241154761Y-72590476D01*
X241107142Y-72638095D01*
X241011904Y-72685714D01*
X240726190Y-72685714D01*
X240630952Y-72638095D01*
X240583333Y-72590476D01*
X240535714Y-72495238D01*
X240535714Y-72304761D01*
X240583333Y-72209523D01*
X241202380Y-71638095D02*
X241154761Y-71733333D01*
X241107142Y-71780952D01*
X241011904Y-71828571D01*
X240726190Y-71828571D01*
X240630952Y-71780952D01*
X240583333Y-71733333D01*
X240535714Y-71638095D01*
X240535714Y-71495238D01*
X240583333Y-71400000D01*
X240630952Y-71352380D01*
X240726190Y-71304761D01*
X241011904Y-71304761D01*
X241107142Y-71352380D01*
X241154761Y-71400000D01*
X241202380Y-71495238D01*
X241202380Y-71638095D01*
X241202380Y-70876190D02*
X240535714Y-70876190D01*
X240630952Y-70876190D02*
X240583333Y-70828571D01*
X240535714Y-70733333D01*
X240535714Y-70590476D01*
X240583333Y-70495238D01*
X240678571Y-70447619D01*
X241202380Y-70447619D01*
X240678571Y-70447619D02*
X240583333Y-70400000D01*
X240535714Y-70304761D01*
X240535714Y-70161904D01*
X240583333Y-70066666D01*
X240678571Y-70019047D01*
X241202380Y-70019047D01*
X240154761Y-68828571D02*
X241440476Y-69685714D01*
X240535714Y-68638095D02*
X240535714Y-68257142D01*
X240202380Y-68495238D02*
X241059523Y-68495238D01*
X241154761Y-68447619D01*
X241202380Y-68352380D01*
X241202380Y-68257142D01*
X241202380Y-67780952D02*
X241154761Y-67876190D01*
X241107142Y-67923809D01*
X241011904Y-67971428D01*
X240726190Y-67971428D01*
X240630952Y-67923809D01*
X240583333Y-67876190D01*
X240535714Y-67780952D01*
X240535714Y-67638095D01*
X240583333Y-67542857D01*
X240630952Y-67495238D01*
X240726190Y-67447619D01*
X241011904Y-67447619D01*
X241107142Y-67495238D01*
X241154761Y-67542857D01*
X241202380Y-67638095D01*
X241202380Y-67780952D01*
X241202380Y-67019047D02*
X240535714Y-67019047D01*
X240630952Y-67019047D02*
X240583333Y-66971428D01*
X240535714Y-66876190D01*
X240535714Y-66733333D01*
X240583333Y-66638095D01*
X240678571Y-66590476D01*
X241202380Y-66590476D01*
X240678571Y-66590476D02*
X240583333Y-66542857D01*
X240535714Y-66447619D01*
X240535714Y-66304761D01*
X240583333Y-66209523D01*
X240678571Y-66161904D01*
X241202380Y-66161904D01*
X241202380Y-65257142D02*
X240678571Y-65257142D01*
X240583333Y-65304761D01*
X240535714Y-65400000D01*
X240535714Y-65590476D01*
X240583333Y-65685714D01*
X241154761Y-65257142D02*
X241202380Y-65352380D01*
X241202380Y-65590476D01*
X241154761Y-65685714D01*
X241059523Y-65733333D01*
X240964285Y-65733333D01*
X240869047Y-65685714D01*
X240821428Y-65590476D01*
X240821428Y-65352380D01*
X240773809Y-65257142D01*
X241202380Y-64780952D02*
X240535714Y-64780952D01*
X240726190Y-64780952D02*
X240630952Y-64733333D01*
X240583333Y-64685714D01*
X240535714Y-64590476D01*
X240535714Y-64495238D01*
X240535714Y-63733333D02*
X241202380Y-63733333D01*
X240535714Y-64161904D02*
X241059523Y-64161904D01*
X241154761Y-64114285D01*
X241202380Y-64019047D01*
X241202380Y-63876190D01*
X241154761Y-63780952D01*
X241107142Y-63733333D01*
X241154761Y-63304761D02*
X241202380Y-63209523D01*
X241202380Y-63019047D01*
X241154761Y-62923809D01*
X241059523Y-62876190D01*
X241011904Y-62876190D01*
X240916666Y-62923809D01*
X240869047Y-63019047D01*
X240869047Y-63161904D01*
X240821428Y-63257142D01*
X240726190Y-63304761D01*
X240678571Y-63304761D01*
X240583333Y-63257142D01*
X240535714Y-63161904D01*
X240535714Y-63019047D01*
X240583333Y-62923809D01*
X240154761Y-61733333D02*
X241440476Y-62590476D01*
X241202380Y-61400000D02*
X240202380Y-61400000D01*
X240583333Y-61400000D02*
X240535714Y-61304761D01*
X240535714Y-61114285D01*
X240583333Y-61019047D01*
X240630952Y-60971428D01*
X240726190Y-60923809D01*
X241011904Y-60923809D01*
X241107142Y-60971428D01*
X241154761Y-61019047D01*
X241202380Y-61114285D01*
X241202380Y-61304761D01*
X241154761Y-61400000D01*
X240535714Y-60066666D02*
X241202380Y-60066666D01*
X240535714Y-60495238D02*
X241059523Y-60495238D01*
X241154761Y-60447619D01*
X241202380Y-60352380D01*
X241202380Y-60209523D01*
X241154761Y-60114285D01*
X241107142Y-60066666D01*
X241154761Y-59638095D02*
X241202380Y-59542857D01*
X241202380Y-59352380D01*
X241154761Y-59257142D01*
X241059523Y-59209523D01*
X241011904Y-59209523D01*
X240916666Y-59257142D01*
X240869047Y-59352380D01*
X240869047Y-59495238D01*
X240821428Y-59590476D01*
X240726190Y-59638095D01*
X240678571Y-59638095D01*
X240583333Y-59590476D01*
X240535714Y-59495238D01*
X240535714Y-59352380D01*
X240583333Y-59257142D01*
X241202380Y-58780952D02*
X240202380Y-58780952D01*
X240583333Y-58780952D02*
X240535714Y-58685714D01*
X240535714Y-58495238D01*
X240583333Y-58400000D01*
X240630952Y-58352380D01*
X240726190Y-58304761D01*
X241011904Y-58304761D01*
X241107142Y-58352380D01*
X241154761Y-58400000D01*
X241202380Y-58495238D01*
X241202380Y-58685714D01*
X241154761Y-58780952D01*
X241202380Y-57733333D02*
X241154761Y-57828571D01*
X241107142Y-57876190D01*
X241011904Y-57923809D01*
X240726190Y-57923809D01*
X240630952Y-57876190D01*
X240583333Y-57828571D01*
X240535714Y-57733333D01*
X240535714Y-57590476D01*
X240583333Y-57495238D01*
X240630952Y-57447619D01*
X240726190Y-57400000D01*
X241011904Y-57400000D01*
X241107142Y-57447619D01*
X241154761Y-57495238D01*
X241202380Y-57590476D01*
X241202380Y-57733333D01*
X241202380Y-56542857D02*
X240678571Y-56542857D01*
X240583333Y-56590476D01*
X240535714Y-56685714D01*
X240535714Y-56876190D01*
X240583333Y-56971428D01*
X241154761Y-56542857D02*
X241202380Y-56638095D01*
X241202380Y-56876190D01*
X241154761Y-56971428D01*
X241059523Y-57019047D01*
X240964285Y-57019047D01*
X240869047Y-56971428D01*
X240821428Y-56876190D01*
X240821428Y-56638095D01*
X240773809Y-56542857D01*
X241202380Y-56066666D02*
X240535714Y-56066666D01*
X240726190Y-56066666D02*
X240630952Y-56019047D01*
X240583333Y-55971428D01*
X240535714Y-55876190D01*
X240535714Y-55780952D01*
X241202380Y-55019047D02*
X240202380Y-55019047D01*
X241154761Y-55019047D02*
X241202380Y-55114285D01*
X241202380Y-55304761D01*
X241154761Y-55400000D01*
X241107142Y-55447619D01*
X241011904Y-55495238D01*
X240726190Y-55495238D01*
X240630952Y-55447619D01*
X240583333Y-55400000D01*
X240535714Y-55304761D01*
X240535714Y-55114285D01*
X240583333Y-55019047D01*
D12*
X51972095Y-78240000D02*
X51876857Y-78192380D01*
X51734000Y-78192380D01*
X51591142Y-78240000D01*
X51495904Y-78335238D01*
X51448285Y-78430476D01*
X51400666Y-78620952D01*
X51400666Y-78763809D01*
X51448285Y-78954285D01*
X51495904Y-79049523D01*
X51591142Y-79144761D01*
X51734000Y-79192380D01*
X51829238Y-79192380D01*
X51972095Y-79144761D01*
X52019714Y-79097142D01*
X52019714Y-78763809D01*
X51829238Y-78763809D01*
X52400666Y-78906666D02*
X52876857Y-78906666D01*
X52305428Y-79192380D02*
X52638761Y-78192380D01*
X52972095Y-79192380D01*
X53162571Y-78192380D02*
X53734000Y-78192380D01*
X53448285Y-79192380D02*
X53448285Y-78192380D01*
X54067333Y-78668571D02*
X54400666Y-78668571D01*
X54543523Y-79192380D02*
X54067333Y-79192380D01*
X54067333Y-78192380D01*
X54543523Y-78192380D01*
X52162380Y-74017142D02*
X52114761Y-74064761D01*
X51971904Y-74112380D01*
X51876666Y-74112380D01*
X51733809Y-74064761D01*
X51638571Y-73969523D01*
X51590952Y-73874285D01*
X51543333Y-73683809D01*
X51543333Y-73540952D01*
X51590952Y-73350476D01*
X51638571Y-73255238D01*
X51733809Y-73160000D01*
X51876666Y-73112380D01*
X51971904Y-73112380D01*
X52114761Y-73160000D01*
X52162380Y-73207619D01*
X52448095Y-73112380D02*
X52781428Y-74112380D01*
X53114761Y-73112380D01*
X52194285Y-57920000D02*
X52099047Y-57872380D01*
X51956190Y-57872380D01*
X51813333Y-57920000D01*
X51718095Y-58015238D01*
X51670476Y-58110476D01*
X51622857Y-58300952D01*
X51622857Y-58443809D01*
X51670476Y-58634285D01*
X51718095Y-58729523D01*
X51813333Y-58824761D01*
X51956190Y-58872380D01*
X52051428Y-58872380D01*
X52194285Y-58824761D01*
X52241904Y-58777142D01*
X52241904Y-58443809D01*
X52051428Y-58443809D01*
X52670476Y-58872380D02*
X52670476Y-57872380D01*
X53241904Y-58872380D01*
X53241904Y-57872380D01*
X53718095Y-58872380D02*
X53718095Y-57872380D01*
X53956190Y-57872380D01*
X54099047Y-57920000D01*
X54194285Y-58015238D01*
X54241904Y-58110476D01*
X54289523Y-58300952D01*
X54289523Y-58443809D01*
X54241904Y-58634285D01*
X54194285Y-58729523D01*
X54099047Y-58824761D01*
X53956190Y-58872380D01*
X53718095Y-58872380D01*
X51511714Y-68651428D02*
X52273619Y-68651428D01*
X51892666Y-69032380D02*
X51892666Y-68270476D01*
X53226000Y-68032380D02*
X52749809Y-68032380D01*
X52702190Y-68508571D01*
X52749809Y-68460952D01*
X52845047Y-68413333D01*
X53083142Y-68413333D01*
X53178380Y-68460952D01*
X53226000Y-68508571D01*
X53273619Y-68603809D01*
X53273619Y-68841904D01*
X53226000Y-68937142D01*
X53178380Y-68984761D01*
X53083142Y-69032380D01*
X52845047Y-69032380D01*
X52749809Y-68984761D01*
X52702190Y-68937142D01*
X53606952Y-68365714D02*
X53845047Y-69032380D01*
X54083142Y-68365714D01*
X51448333Y-63571428D02*
X52210238Y-63571428D01*
X51829285Y-63952380D02*
X51829285Y-63190476D01*
X53210238Y-63952380D02*
X52638809Y-63952380D01*
X52924523Y-63952380D02*
X52924523Y-62952380D01*
X52829285Y-63095238D01*
X52734047Y-63190476D01*
X52638809Y-63238095D01*
X53591190Y-63047619D02*
X53638809Y-63000000D01*
X53734047Y-62952380D01*
X53972142Y-62952380D01*
X54067380Y-63000000D01*
X54115000Y-63047619D01*
X54162619Y-63142857D01*
X54162619Y-63238095D01*
X54115000Y-63380952D01*
X53543571Y-63952380D01*
X54162619Y-63952380D01*
X54495952Y-63285714D02*
X54734047Y-63952380D01*
X54972142Y-63285714D01*
X51448333Y-53411428D02*
X52210238Y-53411428D01*
X53210238Y-53792380D02*
X52638809Y-53792380D01*
X52924523Y-53792380D02*
X52924523Y-52792380D01*
X52829285Y-52935238D01*
X52734047Y-53030476D01*
X52638809Y-53078095D01*
X53591190Y-52887619D02*
X53638809Y-52840000D01*
X53734047Y-52792380D01*
X53972142Y-52792380D01*
X54067380Y-52840000D01*
X54115000Y-52887619D01*
X54162619Y-52982857D01*
X54162619Y-53078095D01*
X54115000Y-53220952D01*
X53543571Y-53792380D01*
X54162619Y-53792380D01*
X54495952Y-53125714D02*
X54734047Y-53792380D01*
X54972142Y-53125714D01*
D13*
G04 #@! TO.C,J1*
X60765320Y-52404760D02*
X60765320Y-64129400D01*
X60765320Y-80375240D02*
X60765320Y-68645520D01*
X61316500Y-68637900D02*
X61316500Y-64142100D01*
D11*
X61720000Y-55335000D02*
X68670000Y-55335000D01*
D13*
X69615000Y-80380000D02*
X60765000Y-80380000D01*
X69615000Y-52400000D02*
X60765000Y-52400000D01*
X61315000Y-68640000D02*
X60765000Y-68640000D01*
X61315000Y-64140000D02*
X60765000Y-64140000D01*
X69615000Y-52400000D02*
X69615000Y-80380000D01*
G04 #@! TO.C,J2*
X75845320Y-52404760D02*
X75845320Y-64129400D01*
X75845320Y-80375240D02*
X75845320Y-68645520D01*
X76396500Y-68637900D02*
X76396500Y-64142100D01*
D11*
X76800000Y-55335000D02*
X83750000Y-55335000D01*
D13*
X84695000Y-80380000D02*
X75845000Y-80380000D01*
X84695000Y-52400000D02*
X75845000Y-52400000D01*
X76395000Y-68640000D02*
X75845000Y-68640000D01*
X76395000Y-64140000D02*
X75845000Y-64140000D01*
X84695000Y-52400000D02*
X84695000Y-80380000D01*
G04 #@! TO.C,J3*
X90845320Y-52404760D02*
X90845320Y-64129400D01*
X90845320Y-80375240D02*
X90845320Y-68645520D01*
X91396500Y-68637900D02*
X91396500Y-64142100D01*
D11*
X91800000Y-55335000D02*
X98750000Y-55335000D01*
D13*
X99695000Y-80380000D02*
X90845000Y-80380000D01*
X99695000Y-52400000D02*
X90845000Y-52400000D01*
X91395000Y-68640000D02*
X90845000Y-68640000D01*
X91395000Y-64140000D02*
X90845000Y-64140000D01*
X99695000Y-52400000D02*
X99695000Y-80380000D01*
G04 #@! TO.C,J4*
X105845320Y-52324760D02*
X105845320Y-64049400D01*
X105845320Y-80295240D02*
X105845320Y-68565520D01*
X106396500Y-68557900D02*
X106396500Y-64062100D01*
D11*
X106800000Y-55255000D02*
X113750000Y-55255000D01*
D13*
X114695000Y-80300000D02*
X105845000Y-80300000D01*
X114695000Y-52320000D02*
X105845000Y-52320000D01*
X106395000Y-68560000D02*
X105845000Y-68560000D01*
X106395000Y-64060000D02*
X105845000Y-64060000D01*
X114695000Y-52320000D02*
X114695000Y-80300000D01*
G04 #@! TO.C,J5*
X120845320Y-52324760D02*
X120845320Y-64049400D01*
X120845320Y-80295240D02*
X120845320Y-68565520D01*
X121396500Y-68557900D02*
X121396500Y-64062100D01*
D11*
X121800000Y-55255000D02*
X128750000Y-55255000D01*
D13*
X129695000Y-80300000D02*
X120845000Y-80300000D01*
X129695000Y-52320000D02*
X120845000Y-52320000D01*
X121395000Y-68560000D02*
X120845000Y-68560000D01*
X121395000Y-64060000D02*
X120845000Y-64060000D01*
X129695000Y-52320000D02*
X129695000Y-80300000D01*
G04 #@! TO.C,J6*
X135845320Y-52284760D02*
X135845320Y-64009400D01*
X135845320Y-80255240D02*
X135845320Y-68525520D01*
X136396500Y-68517900D02*
X136396500Y-64022100D01*
D11*
X136800000Y-55215000D02*
X143750000Y-55215000D01*
D13*
X144695000Y-80260000D02*
X135845000Y-80260000D01*
X144695000Y-52280000D02*
X135845000Y-52280000D01*
X136395000Y-68520000D02*
X135845000Y-68520000D01*
X136395000Y-64020000D02*
X135845000Y-64020000D01*
X144695000Y-52280000D02*
X144695000Y-80260000D01*
G04 #@! TO.C,J7*
X150845320Y-52404760D02*
X150845320Y-64129400D01*
X150845320Y-80375240D02*
X150845320Y-68645520D01*
X151396500Y-68637900D02*
X151396500Y-64142100D01*
D11*
X151800000Y-55335000D02*
X158750000Y-55335000D01*
D13*
X159695000Y-80380000D02*
X150845000Y-80380000D01*
X159695000Y-52400000D02*
X150845000Y-52400000D01*
X151395000Y-68640000D02*
X150845000Y-68640000D01*
X151395000Y-64140000D02*
X150845000Y-64140000D01*
X159695000Y-52400000D02*
X159695000Y-80380000D01*
G04 #@! TO.C,J8*
X165845320Y-52404760D02*
X165845320Y-64129400D01*
X165845320Y-80375240D02*
X165845320Y-68645520D01*
X166396500Y-68637900D02*
X166396500Y-64142100D01*
D11*
X166800000Y-55335000D02*
X173750000Y-55335000D01*
D13*
X174695000Y-80380000D02*
X165845000Y-80380000D01*
X174695000Y-52400000D02*
X165845000Y-52400000D01*
X166395000Y-68640000D02*
X165845000Y-68640000D01*
X166395000Y-64140000D02*
X165845000Y-64140000D01*
X174695000Y-52400000D02*
X174695000Y-80380000D01*
G04 #@! TO.C,J9*
X180845320Y-52404760D02*
X180845320Y-64129400D01*
X180845320Y-80375240D02*
X180845320Y-68645520D01*
X181396500Y-68637900D02*
X181396500Y-64142100D01*
D11*
X181800000Y-55335000D02*
X188750000Y-55335000D01*
D13*
X189695000Y-80380000D02*
X180845000Y-80380000D01*
X189695000Y-52400000D02*
X180845000Y-52400000D01*
X181395000Y-68640000D02*
X180845000Y-68640000D01*
X181395000Y-64140000D02*
X180845000Y-64140000D01*
X189695000Y-52400000D02*
X189695000Y-80380000D01*
G04 #@! TO.C,J10*
X195845320Y-52404760D02*
X195845320Y-64129400D01*
X195845320Y-80375240D02*
X195845320Y-68645520D01*
X196396500Y-68637900D02*
X196396500Y-64142100D01*
D11*
X196800000Y-55335000D02*
X203750000Y-55335000D01*
D13*
X204695000Y-80380000D02*
X195845000Y-80380000D01*
X204695000Y-52400000D02*
X195845000Y-52400000D01*
X196395000Y-68640000D02*
X195845000Y-68640000D01*
X196395000Y-64140000D02*
X195845000Y-64140000D01*
X204695000Y-52400000D02*
X204695000Y-80380000D01*
G04 #@! TO.C,J11*
X210845320Y-52404760D02*
X210845320Y-64129400D01*
X210845320Y-80375240D02*
X210845320Y-68645520D01*
X211396500Y-68637900D02*
X211396500Y-64142100D01*
D11*
X211800000Y-55335000D02*
X218750000Y-55335000D01*
D13*
X219695000Y-80380000D02*
X210845000Y-80380000D01*
X219695000Y-52400000D02*
X210845000Y-52400000D01*
X211395000Y-68640000D02*
X210845000Y-68640000D01*
X211395000Y-64140000D02*
X210845000Y-64140000D01*
X219695000Y-52400000D02*
X219695000Y-80380000D01*
G04 #@! TO.C,J12*
X225845320Y-52404760D02*
X225845320Y-64129400D01*
X225845320Y-80375240D02*
X225845320Y-68645520D01*
X226396500Y-68637900D02*
X226396500Y-64142100D01*
D11*
X226800000Y-55335000D02*
X233750000Y-55335000D01*
D13*
X234695000Y-80380000D02*
X225845000Y-80380000D01*
X234695000Y-52400000D02*
X225845000Y-52400000D01*
X226395000Y-68640000D02*
X225845000Y-68640000D01*
X226395000Y-64140000D02*
X225845000Y-64140000D01*
X234695000Y-52400000D02*
X234695000Y-80380000D01*
D14*
G04 #@! TO.C,J13*
X48275275Y-78113129D02*
G75*
G02X48420000Y-78740000I-1285275J-626871D01*
G01*
X46362638Y-77454176D02*
G75*
G02X47617000Y-77454000I627362J-1285824D01*
G01*
X45704176Y-79367362D02*
G75*
G02X45704000Y-78113000I1285824J627362D01*
G01*
X47616746Y-80026611D02*
G75*
G02X46362000Y-80026000I-626746J1286611D01*
G01*
X48420940Y-78715720D02*
G75*
G02X48276000Y-79368000I-1430940J-24280D01*
G01*
X48420000Y-73660000D02*
G75*
G03X48420000Y-73660000I-1430000J0D01*
G01*
X48420000Y-68580000D02*
G75*
G03X48420000Y-68580000I-1430000J0D01*
G01*
X48420000Y-63500000D02*
G75*
G03X48420000Y-63500000I-1430000J0D01*
G01*
X48420000Y-58420000D02*
G75*
G03X48420000Y-58420000I-1430000J0D01*
G01*
X48420000Y-53340000D02*
G75*
G03X48420000Y-53340000I-1430000J0D01*
G01*
X50540000Y-81340000D02*
X50540000Y-50740000D01*
X49440000Y-81340000D02*
X49440000Y-50740000D01*
X44440000Y-81340000D02*
X44440000Y-50740000D01*
X42530000Y-81340000D02*
X42530000Y-50740000D01*
X51100000Y-81340000D02*
X51100000Y-50740000D01*
X42530000Y-81340000D02*
X51100000Y-81340000D01*
X42530000Y-50740000D02*
X51100000Y-50740000D01*
X42590000Y-79990000D02*
X42590000Y-77490000D01*
X43590000Y-79990000D02*
X43590000Y-77490000D01*
X42590000Y-79990000D02*
X43590000Y-79990000D01*
X42590000Y-77490000D02*
X43590000Y-77490000D01*
X46080000Y-72575000D02*
X46139000Y-72635000D01*
X48035000Y-74530000D02*
X48075000Y-74570000D01*
X45905000Y-72749000D02*
X45945000Y-72789000D01*
X47840000Y-74684000D02*
X47900000Y-74744000D01*
X42590000Y-74910000D02*
X42590000Y-72410000D01*
X43590000Y-74910000D02*
X43590000Y-72410000D01*
X42590000Y-74910000D02*
X43590000Y-74910000D01*
X42590000Y-72410000D02*
X43590000Y-72410000D01*
X46080000Y-67495000D02*
X46139000Y-67555000D01*
X48035000Y-69450000D02*
X48075000Y-69490000D01*
X45905000Y-67669000D02*
X45945000Y-67709000D01*
X47840000Y-69604000D02*
X47900000Y-69664000D01*
X42590000Y-69830000D02*
X42590000Y-67330000D01*
X43590000Y-69830000D02*
X43590000Y-67330000D01*
X42590000Y-69830000D02*
X43590000Y-69830000D01*
X42590000Y-67330000D02*
X43590000Y-67330000D01*
X46080000Y-62415000D02*
X46139000Y-62475000D01*
X48035000Y-64370000D02*
X48075000Y-64410000D01*
X45905000Y-62589000D02*
X45945000Y-62629000D01*
X47840000Y-64524000D02*
X47900000Y-64584000D01*
X42590000Y-64750000D02*
X42590000Y-62250000D01*
X43590000Y-64750000D02*
X43590000Y-62250000D01*
X42590000Y-64750000D02*
X43590000Y-64750000D01*
X42590000Y-62250000D02*
X43590000Y-62250000D01*
X46080000Y-57335000D02*
X46139000Y-57395000D01*
X48035000Y-59290000D02*
X48075000Y-59330000D01*
X45905000Y-57509000D02*
X45945000Y-57549000D01*
X47840000Y-59444000D02*
X47900000Y-59504000D01*
X42590000Y-59670000D02*
X42590000Y-57170000D01*
X43590000Y-59670000D02*
X43590000Y-57170000D01*
X42590000Y-59670000D02*
X43590000Y-59670000D01*
X42590000Y-57170000D02*
X43590000Y-57170000D01*
X46080000Y-52255000D02*
X46139000Y-52315000D01*
X48035000Y-54210000D02*
X48075000Y-54250000D01*
X45905000Y-52429000D02*
X45945000Y-52469000D01*
X47840000Y-54364000D02*
X47900000Y-54424000D01*
X42590000Y-54590000D02*
X42590000Y-52090000D01*
X43590000Y-54590000D02*
X43590000Y-52090000D01*
X42590000Y-54590000D02*
X43590000Y-54590000D01*
X42590000Y-52090000D02*
X43590000Y-52090000D01*
X50600000Y-81580000D02*
X51340000Y-81580000D01*
X51340000Y-81580000D02*
X51340000Y-81080000D01*
G04 #@! TO.C,+12v*
X71210000Y-57580000D02*
X71210000Y-57736000D01*
X71210000Y-55264000D02*
X71210000Y-55420000D01*
X73811130Y-57579837D02*
G75*
G02X71729039Y-57580000I-1041130J1079837D01*
G01*
X73811130Y-55420163D02*
G75*
G03X71729039Y-55420000I-1041130J-1079837D01*
G01*
X74442335Y-57578608D02*
G75*
G02X71210000Y-57735516I-1672335J1078608D01*
G01*
X74442335Y-55421392D02*
G75*
G03X71210000Y-55264484I-1672335J-1078608D01*
G01*
G04 #@! TO.C,-12v*
X89442335Y-55421392D02*
G75*
G03X86210000Y-55264484I-1672335J-1078608D01*
G01*
X89442335Y-57578608D02*
G75*
G02X86210000Y-57735516I-1672335J1078608D01*
G01*
X88811130Y-55420163D02*
G75*
G03X86729039Y-55420000I-1041130J-1079837D01*
G01*
X88811130Y-57579837D02*
G75*
G02X86729039Y-57580000I-1041130J1079837D01*
G01*
X86210000Y-55264000D02*
X86210000Y-55420000D01*
X86210000Y-57580000D02*
X86210000Y-57736000D01*
G04 #@! TO.C,+5v*
X104442335Y-55421392D02*
G75*
G03X101210000Y-55264484I-1672335J-1078608D01*
G01*
X104442335Y-57578608D02*
G75*
G02X101210000Y-57735516I-1672335J1078608D01*
G01*
X103811130Y-55420163D02*
G75*
G03X101729039Y-55420000I-1041130J-1079837D01*
G01*
X103811130Y-57579837D02*
G75*
G02X101729039Y-57580000I-1041130J1079837D01*
G01*
X101210000Y-55264000D02*
X101210000Y-55420000D01*
X101210000Y-57580000D02*
X101210000Y-57736000D01*
G04 #@! TO.C,R1*
X71130000Y-67080000D02*
X71460000Y-67080000D01*
X71130000Y-60540000D02*
X71130000Y-67080000D01*
X71460000Y-60540000D02*
X71130000Y-60540000D01*
X73870000Y-67080000D02*
X73540000Y-67080000D01*
X73870000Y-60540000D02*
X73870000Y-67080000D01*
X73540000Y-60540000D02*
X73870000Y-60540000D01*
G04 #@! TO.C,R2*
X88540000Y-60540000D02*
X88870000Y-60540000D01*
X88870000Y-60540000D02*
X88870000Y-67080000D01*
X88870000Y-67080000D02*
X88540000Y-67080000D01*
X86460000Y-60540000D02*
X86130000Y-60540000D01*
X86130000Y-60540000D02*
X86130000Y-67080000D01*
X86130000Y-67080000D02*
X86460000Y-67080000D01*
G04 #@! TO.C,R3*
X103540000Y-60540000D02*
X103870000Y-60540000D01*
X103870000Y-60540000D02*
X103870000Y-67080000D01*
X103870000Y-67080000D02*
X103540000Y-67080000D01*
X101460000Y-60540000D02*
X101130000Y-60540000D01*
X101130000Y-60540000D02*
X101130000Y-67080000D01*
X101130000Y-67080000D02*
X101460000Y-67080000D01*
G04 #@! TO.C,J1*
D11*
X62312857Y-54996904D02*
X62046190Y-54615952D01*
X61855714Y-54996904D02*
X61855714Y-54196904D01*
X62160476Y-54196904D01*
X62236666Y-54235000D01*
X62274761Y-54273095D01*
X62312857Y-54349285D01*
X62312857Y-54463571D01*
X62274761Y-54539761D01*
X62236666Y-54577857D01*
X62160476Y-54615952D01*
X61855714Y-54615952D01*
X62655714Y-54577857D02*
X62922380Y-54577857D01*
X63036666Y-54996904D02*
X62655714Y-54996904D01*
X62655714Y-54196904D01*
X63036666Y-54196904D01*
X63379523Y-54996904D02*
X63379523Y-54196904D01*
X63570000Y-54196904D01*
X63684285Y-54235000D01*
X63760476Y-54311190D01*
X63798571Y-54387380D01*
X63836666Y-54539761D01*
X63836666Y-54654047D01*
X63798571Y-54806428D01*
X63760476Y-54882619D01*
X63684285Y-54958809D01*
X63570000Y-54996904D01*
X63379523Y-54996904D01*
X64750952Y-54958809D02*
X64865238Y-54996904D01*
X65055714Y-54996904D01*
X65131904Y-54958809D01*
X65170000Y-54920714D01*
X65208095Y-54844523D01*
X65208095Y-54768333D01*
X65170000Y-54692142D01*
X65131904Y-54654047D01*
X65055714Y-54615952D01*
X64903333Y-54577857D01*
X64827142Y-54539761D01*
X64789047Y-54501666D01*
X64750952Y-54425476D01*
X64750952Y-54349285D01*
X64789047Y-54273095D01*
X64827142Y-54235000D01*
X64903333Y-54196904D01*
X65093809Y-54196904D01*
X65208095Y-54235000D01*
X65436666Y-54196904D02*
X65893809Y-54196904D01*
X65665238Y-54996904D02*
X65665238Y-54196904D01*
X66617619Y-54996904D02*
X66350952Y-54615952D01*
X66160476Y-54996904D02*
X66160476Y-54196904D01*
X66465238Y-54196904D01*
X66541428Y-54235000D01*
X66579523Y-54273095D01*
X66617619Y-54349285D01*
X66617619Y-54463571D01*
X66579523Y-54539761D01*
X66541428Y-54577857D01*
X66465238Y-54615952D01*
X66160476Y-54615952D01*
X66960476Y-54996904D02*
X66960476Y-54196904D01*
X67341428Y-54996904D02*
X67341428Y-54196904D01*
X67646190Y-54196904D01*
X67722380Y-54235000D01*
X67760476Y-54273095D01*
X67798571Y-54349285D01*
X67798571Y-54463571D01*
X67760476Y-54539761D01*
X67722380Y-54577857D01*
X67646190Y-54615952D01*
X67341428Y-54615952D01*
X68141428Y-54577857D02*
X68408095Y-54577857D01*
X68522380Y-54996904D02*
X68141428Y-54996904D01*
X68141428Y-54196904D01*
X68522380Y-54196904D01*
G04 #@! TO.C,J2*
X77392857Y-54996904D02*
X77126190Y-54615952D01*
X76935714Y-54996904D02*
X76935714Y-54196904D01*
X77240476Y-54196904D01*
X77316666Y-54235000D01*
X77354761Y-54273095D01*
X77392857Y-54349285D01*
X77392857Y-54463571D01*
X77354761Y-54539761D01*
X77316666Y-54577857D01*
X77240476Y-54615952D01*
X76935714Y-54615952D01*
X77735714Y-54577857D02*
X78002380Y-54577857D01*
X78116666Y-54996904D02*
X77735714Y-54996904D01*
X77735714Y-54196904D01*
X78116666Y-54196904D01*
X78459523Y-54996904D02*
X78459523Y-54196904D01*
X78650000Y-54196904D01*
X78764285Y-54235000D01*
X78840476Y-54311190D01*
X78878571Y-54387380D01*
X78916666Y-54539761D01*
X78916666Y-54654047D01*
X78878571Y-54806428D01*
X78840476Y-54882619D01*
X78764285Y-54958809D01*
X78650000Y-54996904D01*
X78459523Y-54996904D01*
X79830952Y-54958809D02*
X79945238Y-54996904D01*
X80135714Y-54996904D01*
X80211904Y-54958809D01*
X80250000Y-54920714D01*
X80288095Y-54844523D01*
X80288095Y-54768333D01*
X80250000Y-54692142D01*
X80211904Y-54654047D01*
X80135714Y-54615952D01*
X79983333Y-54577857D01*
X79907142Y-54539761D01*
X79869047Y-54501666D01*
X79830952Y-54425476D01*
X79830952Y-54349285D01*
X79869047Y-54273095D01*
X79907142Y-54235000D01*
X79983333Y-54196904D01*
X80173809Y-54196904D01*
X80288095Y-54235000D01*
X80516666Y-54196904D02*
X80973809Y-54196904D01*
X80745238Y-54996904D02*
X80745238Y-54196904D01*
X81697619Y-54996904D02*
X81430952Y-54615952D01*
X81240476Y-54996904D02*
X81240476Y-54196904D01*
X81545238Y-54196904D01*
X81621428Y-54235000D01*
X81659523Y-54273095D01*
X81697619Y-54349285D01*
X81697619Y-54463571D01*
X81659523Y-54539761D01*
X81621428Y-54577857D01*
X81545238Y-54615952D01*
X81240476Y-54615952D01*
X82040476Y-54996904D02*
X82040476Y-54196904D01*
X82421428Y-54996904D02*
X82421428Y-54196904D01*
X82726190Y-54196904D01*
X82802380Y-54235000D01*
X82840476Y-54273095D01*
X82878571Y-54349285D01*
X82878571Y-54463571D01*
X82840476Y-54539761D01*
X82802380Y-54577857D01*
X82726190Y-54615952D01*
X82421428Y-54615952D01*
X83221428Y-54577857D02*
X83488095Y-54577857D01*
X83602380Y-54996904D02*
X83221428Y-54996904D01*
X83221428Y-54196904D01*
X83602380Y-54196904D01*
G04 #@! TO.C,J3*
X92392857Y-54996904D02*
X92126190Y-54615952D01*
X91935714Y-54996904D02*
X91935714Y-54196904D01*
X92240476Y-54196904D01*
X92316666Y-54235000D01*
X92354761Y-54273095D01*
X92392857Y-54349285D01*
X92392857Y-54463571D01*
X92354761Y-54539761D01*
X92316666Y-54577857D01*
X92240476Y-54615952D01*
X91935714Y-54615952D01*
X92735714Y-54577857D02*
X93002380Y-54577857D01*
X93116666Y-54996904D02*
X92735714Y-54996904D01*
X92735714Y-54196904D01*
X93116666Y-54196904D01*
X93459523Y-54996904D02*
X93459523Y-54196904D01*
X93650000Y-54196904D01*
X93764285Y-54235000D01*
X93840476Y-54311190D01*
X93878571Y-54387380D01*
X93916666Y-54539761D01*
X93916666Y-54654047D01*
X93878571Y-54806428D01*
X93840476Y-54882619D01*
X93764285Y-54958809D01*
X93650000Y-54996904D01*
X93459523Y-54996904D01*
X94830952Y-54958809D02*
X94945238Y-54996904D01*
X95135714Y-54996904D01*
X95211904Y-54958809D01*
X95250000Y-54920714D01*
X95288095Y-54844523D01*
X95288095Y-54768333D01*
X95250000Y-54692142D01*
X95211904Y-54654047D01*
X95135714Y-54615952D01*
X94983333Y-54577857D01*
X94907142Y-54539761D01*
X94869047Y-54501666D01*
X94830952Y-54425476D01*
X94830952Y-54349285D01*
X94869047Y-54273095D01*
X94907142Y-54235000D01*
X94983333Y-54196904D01*
X95173809Y-54196904D01*
X95288095Y-54235000D01*
X95516666Y-54196904D02*
X95973809Y-54196904D01*
X95745238Y-54996904D02*
X95745238Y-54196904D01*
X96697619Y-54996904D02*
X96430952Y-54615952D01*
X96240476Y-54996904D02*
X96240476Y-54196904D01*
X96545238Y-54196904D01*
X96621428Y-54235000D01*
X96659523Y-54273095D01*
X96697619Y-54349285D01*
X96697619Y-54463571D01*
X96659523Y-54539761D01*
X96621428Y-54577857D01*
X96545238Y-54615952D01*
X96240476Y-54615952D01*
X97040476Y-54996904D02*
X97040476Y-54196904D01*
X97421428Y-54996904D02*
X97421428Y-54196904D01*
X97726190Y-54196904D01*
X97802380Y-54235000D01*
X97840476Y-54273095D01*
X97878571Y-54349285D01*
X97878571Y-54463571D01*
X97840476Y-54539761D01*
X97802380Y-54577857D01*
X97726190Y-54615952D01*
X97421428Y-54615952D01*
X98221428Y-54577857D02*
X98488095Y-54577857D01*
X98602380Y-54996904D02*
X98221428Y-54996904D01*
X98221428Y-54196904D01*
X98602380Y-54196904D01*
G04 #@! TO.C,J4*
X107392857Y-54916904D02*
X107126190Y-54535952D01*
X106935714Y-54916904D02*
X106935714Y-54116904D01*
X107240476Y-54116904D01*
X107316666Y-54155000D01*
X107354761Y-54193095D01*
X107392857Y-54269285D01*
X107392857Y-54383571D01*
X107354761Y-54459761D01*
X107316666Y-54497857D01*
X107240476Y-54535952D01*
X106935714Y-54535952D01*
X107735714Y-54497857D02*
X108002380Y-54497857D01*
X108116666Y-54916904D02*
X107735714Y-54916904D01*
X107735714Y-54116904D01*
X108116666Y-54116904D01*
X108459523Y-54916904D02*
X108459523Y-54116904D01*
X108650000Y-54116904D01*
X108764285Y-54155000D01*
X108840476Y-54231190D01*
X108878571Y-54307380D01*
X108916666Y-54459761D01*
X108916666Y-54574047D01*
X108878571Y-54726428D01*
X108840476Y-54802619D01*
X108764285Y-54878809D01*
X108650000Y-54916904D01*
X108459523Y-54916904D01*
X109830952Y-54878809D02*
X109945238Y-54916904D01*
X110135714Y-54916904D01*
X110211904Y-54878809D01*
X110250000Y-54840714D01*
X110288095Y-54764523D01*
X110288095Y-54688333D01*
X110250000Y-54612142D01*
X110211904Y-54574047D01*
X110135714Y-54535952D01*
X109983333Y-54497857D01*
X109907142Y-54459761D01*
X109869047Y-54421666D01*
X109830952Y-54345476D01*
X109830952Y-54269285D01*
X109869047Y-54193095D01*
X109907142Y-54155000D01*
X109983333Y-54116904D01*
X110173809Y-54116904D01*
X110288095Y-54155000D01*
X110516666Y-54116904D02*
X110973809Y-54116904D01*
X110745238Y-54916904D02*
X110745238Y-54116904D01*
X111697619Y-54916904D02*
X111430952Y-54535952D01*
X111240476Y-54916904D02*
X111240476Y-54116904D01*
X111545238Y-54116904D01*
X111621428Y-54155000D01*
X111659523Y-54193095D01*
X111697619Y-54269285D01*
X111697619Y-54383571D01*
X111659523Y-54459761D01*
X111621428Y-54497857D01*
X111545238Y-54535952D01*
X111240476Y-54535952D01*
X112040476Y-54916904D02*
X112040476Y-54116904D01*
X112421428Y-54916904D02*
X112421428Y-54116904D01*
X112726190Y-54116904D01*
X112802380Y-54155000D01*
X112840476Y-54193095D01*
X112878571Y-54269285D01*
X112878571Y-54383571D01*
X112840476Y-54459761D01*
X112802380Y-54497857D01*
X112726190Y-54535952D01*
X112421428Y-54535952D01*
X113221428Y-54497857D02*
X113488095Y-54497857D01*
X113602380Y-54916904D02*
X113221428Y-54916904D01*
X113221428Y-54116904D01*
X113602380Y-54116904D01*
G04 #@! TO.C,J5*
X122392857Y-54916904D02*
X122126190Y-54535952D01*
X121935714Y-54916904D02*
X121935714Y-54116904D01*
X122240476Y-54116904D01*
X122316666Y-54155000D01*
X122354761Y-54193095D01*
X122392857Y-54269285D01*
X122392857Y-54383571D01*
X122354761Y-54459761D01*
X122316666Y-54497857D01*
X122240476Y-54535952D01*
X121935714Y-54535952D01*
X122735714Y-54497857D02*
X123002380Y-54497857D01*
X123116666Y-54916904D02*
X122735714Y-54916904D01*
X122735714Y-54116904D01*
X123116666Y-54116904D01*
X123459523Y-54916904D02*
X123459523Y-54116904D01*
X123650000Y-54116904D01*
X123764285Y-54155000D01*
X123840476Y-54231190D01*
X123878571Y-54307380D01*
X123916666Y-54459761D01*
X123916666Y-54574047D01*
X123878571Y-54726428D01*
X123840476Y-54802619D01*
X123764285Y-54878809D01*
X123650000Y-54916904D01*
X123459523Y-54916904D01*
X124830952Y-54878809D02*
X124945238Y-54916904D01*
X125135714Y-54916904D01*
X125211904Y-54878809D01*
X125250000Y-54840714D01*
X125288095Y-54764523D01*
X125288095Y-54688333D01*
X125250000Y-54612142D01*
X125211904Y-54574047D01*
X125135714Y-54535952D01*
X124983333Y-54497857D01*
X124907142Y-54459761D01*
X124869047Y-54421666D01*
X124830952Y-54345476D01*
X124830952Y-54269285D01*
X124869047Y-54193095D01*
X124907142Y-54155000D01*
X124983333Y-54116904D01*
X125173809Y-54116904D01*
X125288095Y-54155000D01*
X125516666Y-54116904D02*
X125973809Y-54116904D01*
X125745238Y-54916904D02*
X125745238Y-54116904D01*
X126697619Y-54916904D02*
X126430952Y-54535952D01*
X126240476Y-54916904D02*
X126240476Y-54116904D01*
X126545238Y-54116904D01*
X126621428Y-54155000D01*
X126659523Y-54193095D01*
X126697619Y-54269285D01*
X126697619Y-54383571D01*
X126659523Y-54459761D01*
X126621428Y-54497857D01*
X126545238Y-54535952D01*
X126240476Y-54535952D01*
X127040476Y-54916904D02*
X127040476Y-54116904D01*
X127421428Y-54916904D02*
X127421428Y-54116904D01*
X127726190Y-54116904D01*
X127802380Y-54155000D01*
X127840476Y-54193095D01*
X127878571Y-54269285D01*
X127878571Y-54383571D01*
X127840476Y-54459761D01*
X127802380Y-54497857D01*
X127726190Y-54535952D01*
X127421428Y-54535952D01*
X128221428Y-54497857D02*
X128488095Y-54497857D01*
X128602380Y-54916904D02*
X128221428Y-54916904D01*
X128221428Y-54116904D01*
X128602380Y-54116904D01*
G04 #@! TO.C,J6*
X137392857Y-54876904D02*
X137126190Y-54495952D01*
X136935714Y-54876904D02*
X136935714Y-54076904D01*
X137240476Y-54076904D01*
X137316666Y-54115000D01*
X137354761Y-54153095D01*
X137392857Y-54229285D01*
X137392857Y-54343571D01*
X137354761Y-54419761D01*
X137316666Y-54457857D01*
X137240476Y-54495952D01*
X136935714Y-54495952D01*
X137735714Y-54457857D02*
X138002380Y-54457857D01*
X138116666Y-54876904D02*
X137735714Y-54876904D01*
X137735714Y-54076904D01*
X138116666Y-54076904D01*
X138459523Y-54876904D02*
X138459523Y-54076904D01*
X138650000Y-54076904D01*
X138764285Y-54115000D01*
X138840476Y-54191190D01*
X138878571Y-54267380D01*
X138916666Y-54419761D01*
X138916666Y-54534047D01*
X138878571Y-54686428D01*
X138840476Y-54762619D01*
X138764285Y-54838809D01*
X138650000Y-54876904D01*
X138459523Y-54876904D01*
X139830952Y-54838809D02*
X139945238Y-54876904D01*
X140135714Y-54876904D01*
X140211904Y-54838809D01*
X140250000Y-54800714D01*
X140288095Y-54724523D01*
X140288095Y-54648333D01*
X140250000Y-54572142D01*
X140211904Y-54534047D01*
X140135714Y-54495952D01*
X139983333Y-54457857D01*
X139907142Y-54419761D01*
X139869047Y-54381666D01*
X139830952Y-54305476D01*
X139830952Y-54229285D01*
X139869047Y-54153095D01*
X139907142Y-54115000D01*
X139983333Y-54076904D01*
X140173809Y-54076904D01*
X140288095Y-54115000D01*
X140516666Y-54076904D02*
X140973809Y-54076904D01*
X140745238Y-54876904D02*
X140745238Y-54076904D01*
X141697619Y-54876904D02*
X141430952Y-54495952D01*
X141240476Y-54876904D02*
X141240476Y-54076904D01*
X141545238Y-54076904D01*
X141621428Y-54115000D01*
X141659523Y-54153095D01*
X141697619Y-54229285D01*
X141697619Y-54343571D01*
X141659523Y-54419761D01*
X141621428Y-54457857D01*
X141545238Y-54495952D01*
X141240476Y-54495952D01*
X142040476Y-54876904D02*
X142040476Y-54076904D01*
X142421428Y-54876904D02*
X142421428Y-54076904D01*
X142726190Y-54076904D01*
X142802380Y-54115000D01*
X142840476Y-54153095D01*
X142878571Y-54229285D01*
X142878571Y-54343571D01*
X142840476Y-54419761D01*
X142802380Y-54457857D01*
X142726190Y-54495952D01*
X142421428Y-54495952D01*
X143221428Y-54457857D02*
X143488095Y-54457857D01*
X143602380Y-54876904D02*
X143221428Y-54876904D01*
X143221428Y-54076904D01*
X143602380Y-54076904D01*
G04 #@! TO.C,J7*
X152392857Y-54996904D02*
X152126190Y-54615952D01*
X151935714Y-54996904D02*
X151935714Y-54196904D01*
X152240476Y-54196904D01*
X152316666Y-54235000D01*
X152354761Y-54273095D01*
X152392857Y-54349285D01*
X152392857Y-54463571D01*
X152354761Y-54539761D01*
X152316666Y-54577857D01*
X152240476Y-54615952D01*
X151935714Y-54615952D01*
X152735714Y-54577857D02*
X153002380Y-54577857D01*
X153116666Y-54996904D02*
X152735714Y-54996904D01*
X152735714Y-54196904D01*
X153116666Y-54196904D01*
X153459523Y-54996904D02*
X153459523Y-54196904D01*
X153650000Y-54196904D01*
X153764285Y-54235000D01*
X153840476Y-54311190D01*
X153878571Y-54387380D01*
X153916666Y-54539761D01*
X153916666Y-54654047D01*
X153878571Y-54806428D01*
X153840476Y-54882619D01*
X153764285Y-54958809D01*
X153650000Y-54996904D01*
X153459523Y-54996904D01*
X154830952Y-54958809D02*
X154945238Y-54996904D01*
X155135714Y-54996904D01*
X155211904Y-54958809D01*
X155250000Y-54920714D01*
X155288095Y-54844523D01*
X155288095Y-54768333D01*
X155250000Y-54692142D01*
X155211904Y-54654047D01*
X155135714Y-54615952D01*
X154983333Y-54577857D01*
X154907142Y-54539761D01*
X154869047Y-54501666D01*
X154830952Y-54425476D01*
X154830952Y-54349285D01*
X154869047Y-54273095D01*
X154907142Y-54235000D01*
X154983333Y-54196904D01*
X155173809Y-54196904D01*
X155288095Y-54235000D01*
X155516666Y-54196904D02*
X155973809Y-54196904D01*
X155745238Y-54996904D02*
X155745238Y-54196904D01*
X156697619Y-54996904D02*
X156430952Y-54615952D01*
X156240476Y-54996904D02*
X156240476Y-54196904D01*
X156545238Y-54196904D01*
X156621428Y-54235000D01*
X156659523Y-54273095D01*
X156697619Y-54349285D01*
X156697619Y-54463571D01*
X156659523Y-54539761D01*
X156621428Y-54577857D01*
X156545238Y-54615952D01*
X156240476Y-54615952D01*
X157040476Y-54996904D02*
X157040476Y-54196904D01*
X157421428Y-54996904D02*
X157421428Y-54196904D01*
X157726190Y-54196904D01*
X157802380Y-54235000D01*
X157840476Y-54273095D01*
X157878571Y-54349285D01*
X157878571Y-54463571D01*
X157840476Y-54539761D01*
X157802380Y-54577857D01*
X157726190Y-54615952D01*
X157421428Y-54615952D01*
X158221428Y-54577857D02*
X158488095Y-54577857D01*
X158602380Y-54996904D02*
X158221428Y-54996904D01*
X158221428Y-54196904D01*
X158602380Y-54196904D01*
G04 #@! TO.C,J8*
X167392857Y-54996904D02*
X167126190Y-54615952D01*
X166935714Y-54996904D02*
X166935714Y-54196904D01*
X167240476Y-54196904D01*
X167316666Y-54235000D01*
X167354761Y-54273095D01*
X167392857Y-54349285D01*
X167392857Y-54463571D01*
X167354761Y-54539761D01*
X167316666Y-54577857D01*
X167240476Y-54615952D01*
X166935714Y-54615952D01*
X167735714Y-54577857D02*
X168002380Y-54577857D01*
X168116666Y-54996904D02*
X167735714Y-54996904D01*
X167735714Y-54196904D01*
X168116666Y-54196904D01*
X168459523Y-54996904D02*
X168459523Y-54196904D01*
X168650000Y-54196904D01*
X168764285Y-54235000D01*
X168840476Y-54311190D01*
X168878571Y-54387380D01*
X168916666Y-54539761D01*
X168916666Y-54654047D01*
X168878571Y-54806428D01*
X168840476Y-54882619D01*
X168764285Y-54958809D01*
X168650000Y-54996904D01*
X168459523Y-54996904D01*
X169830952Y-54958809D02*
X169945238Y-54996904D01*
X170135714Y-54996904D01*
X170211904Y-54958809D01*
X170250000Y-54920714D01*
X170288095Y-54844523D01*
X170288095Y-54768333D01*
X170250000Y-54692142D01*
X170211904Y-54654047D01*
X170135714Y-54615952D01*
X169983333Y-54577857D01*
X169907142Y-54539761D01*
X169869047Y-54501666D01*
X169830952Y-54425476D01*
X169830952Y-54349285D01*
X169869047Y-54273095D01*
X169907142Y-54235000D01*
X169983333Y-54196904D01*
X170173809Y-54196904D01*
X170288095Y-54235000D01*
X170516666Y-54196904D02*
X170973809Y-54196904D01*
X170745238Y-54996904D02*
X170745238Y-54196904D01*
X171697619Y-54996904D02*
X171430952Y-54615952D01*
X171240476Y-54996904D02*
X171240476Y-54196904D01*
X171545238Y-54196904D01*
X171621428Y-54235000D01*
X171659523Y-54273095D01*
X171697619Y-54349285D01*
X171697619Y-54463571D01*
X171659523Y-54539761D01*
X171621428Y-54577857D01*
X171545238Y-54615952D01*
X171240476Y-54615952D01*
X172040476Y-54996904D02*
X172040476Y-54196904D01*
X172421428Y-54996904D02*
X172421428Y-54196904D01*
X172726190Y-54196904D01*
X172802380Y-54235000D01*
X172840476Y-54273095D01*
X172878571Y-54349285D01*
X172878571Y-54463571D01*
X172840476Y-54539761D01*
X172802380Y-54577857D01*
X172726190Y-54615952D01*
X172421428Y-54615952D01*
X173221428Y-54577857D02*
X173488095Y-54577857D01*
X173602380Y-54996904D02*
X173221428Y-54996904D01*
X173221428Y-54196904D01*
X173602380Y-54196904D01*
G04 #@! TO.C,J9*
X182392857Y-54996904D02*
X182126190Y-54615952D01*
X181935714Y-54996904D02*
X181935714Y-54196904D01*
X182240476Y-54196904D01*
X182316666Y-54235000D01*
X182354761Y-54273095D01*
X182392857Y-54349285D01*
X182392857Y-54463571D01*
X182354761Y-54539761D01*
X182316666Y-54577857D01*
X182240476Y-54615952D01*
X181935714Y-54615952D01*
X182735714Y-54577857D02*
X183002380Y-54577857D01*
X183116666Y-54996904D02*
X182735714Y-54996904D01*
X182735714Y-54196904D01*
X183116666Y-54196904D01*
X183459523Y-54996904D02*
X183459523Y-54196904D01*
X183650000Y-54196904D01*
X183764285Y-54235000D01*
X183840476Y-54311190D01*
X183878571Y-54387380D01*
X183916666Y-54539761D01*
X183916666Y-54654047D01*
X183878571Y-54806428D01*
X183840476Y-54882619D01*
X183764285Y-54958809D01*
X183650000Y-54996904D01*
X183459523Y-54996904D01*
X184830952Y-54958809D02*
X184945238Y-54996904D01*
X185135714Y-54996904D01*
X185211904Y-54958809D01*
X185250000Y-54920714D01*
X185288095Y-54844523D01*
X185288095Y-54768333D01*
X185250000Y-54692142D01*
X185211904Y-54654047D01*
X185135714Y-54615952D01*
X184983333Y-54577857D01*
X184907142Y-54539761D01*
X184869047Y-54501666D01*
X184830952Y-54425476D01*
X184830952Y-54349285D01*
X184869047Y-54273095D01*
X184907142Y-54235000D01*
X184983333Y-54196904D01*
X185173809Y-54196904D01*
X185288095Y-54235000D01*
X185516666Y-54196904D02*
X185973809Y-54196904D01*
X185745238Y-54996904D02*
X185745238Y-54196904D01*
X186697619Y-54996904D02*
X186430952Y-54615952D01*
X186240476Y-54996904D02*
X186240476Y-54196904D01*
X186545238Y-54196904D01*
X186621428Y-54235000D01*
X186659523Y-54273095D01*
X186697619Y-54349285D01*
X186697619Y-54463571D01*
X186659523Y-54539761D01*
X186621428Y-54577857D01*
X186545238Y-54615952D01*
X186240476Y-54615952D01*
X187040476Y-54996904D02*
X187040476Y-54196904D01*
X187421428Y-54996904D02*
X187421428Y-54196904D01*
X187726190Y-54196904D01*
X187802380Y-54235000D01*
X187840476Y-54273095D01*
X187878571Y-54349285D01*
X187878571Y-54463571D01*
X187840476Y-54539761D01*
X187802380Y-54577857D01*
X187726190Y-54615952D01*
X187421428Y-54615952D01*
X188221428Y-54577857D02*
X188488095Y-54577857D01*
X188602380Y-54996904D02*
X188221428Y-54996904D01*
X188221428Y-54196904D01*
X188602380Y-54196904D01*
G04 #@! TO.C,J10*
X197392857Y-54996904D02*
X197126190Y-54615952D01*
X196935714Y-54996904D02*
X196935714Y-54196904D01*
X197240476Y-54196904D01*
X197316666Y-54235000D01*
X197354761Y-54273095D01*
X197392857Y-54349285D01*
X197392857Y-54463571D01*
X197354761Y-54539761D01*
X197316666Y-54577857D01*
X197240476Y-54615952D01*
X196935714Y-54615952D01*
X197735714Y-54577857D02*
X198002380Y-54577857D01*
X198116666Y-54996904D02*
X197735714Y-54996904D01*
X197735714Y-54196904D01*
X198116666Y-54196904D01*
X198459523Y-54996904D02*
X198459523Y-54196904D01*
X198650000Y-54196904D01*
X198764285Y-54235000D01*
X198840476Y-54311190D01*
X198878571Y-54387380D01*
X198916666Y-54539761D01*
X198916666Y-54654047D01*
X198878571Y-54806428D01*
X198840476Y-54882619D01*
X198764285Y-54958809D01*
X198650000Y-54996904D01*
X198459523Y-54996904D01*
X199830952Y-54958809D02*
X199945238Y-54996904D01*
X200135714Y-54996904D01*
X200211904Y-54958809D01*
X200250000Y-54920714D01*
X200288095Y-54844523D01*
X200288095Y-54768333D01*
X200250000Y-54692142D01*
X200211904Y-54654047D01*
X200135714Y-54615952D01*
X199983333Y-54577857D01*
X199907142Y-54539761D01*
X199869047Y-54501666D01*
X199830952Y-54425476D01*
X199830952Y-54349285D01*
X199869047Y-54273095D01*
X199907142Y-54235000D01*
X199983333Y-54196904D01*
X200173809Y-54196904D01*
X200288095Y-54235000D01*
X200516666Y-54196904D02*
X200973809Y-54196904D01*
X200745238Y-54996904D02*
X200745238Y-54196904D01*
X201697619Y-54996904D02*
X201430952Y-54615952D01*
X201240476Y-54996904D02*
X201240476Y-54196904D01*
X201545238Y-54196904D01*
X201621428Y-54235000D01*
X201659523Y-54273095D01*
X201697619Y-54349285D01*
X201697619Y-54463571D01*
X201659523Y-54539761D01*
X201621428Y-54577857D01*
X201545238Y-54615952D01*
X201240476Y-54615952D01*
X202040476Y-54996904D02*
X202040476Y-54196904D01*
X202421428Y-54996904D02*
X202421428Y-54196904D01*
X202726190Y-54196904D01*
X202802380Y-54235000D01*
X202840476Y-54273095D01*
X202878571Y-54349285D01*
X202878571Y-54463571D01*
X202840476Y-54539761D01*
X202802380Y-54577857D01*
X202726190Y-54615952D01*
X202421428Y-54615952D01*
X203221428Y-54577857D02*
X203488095Y-54577857D01*
X203602380Y-54996904D02*
X203221428Y-54996904D01*
X203221428Y-54196904D01*
X203602380Y-54196904D01*
G04 #@! TO.C,J11*
X212392857Y-54996904D02*
X212126190Y-54615952D01*
X211935714Y-54996904D02*
X211935714Y-54196904D01*
X212240476Y-54196904D01*
X212316666Y-54235000D01*
X212354761Y-54273095D01*
X212392857Y-54349285D01*
X212392857Y-54463571D01*
X212354761Y-54539761D01*
X212316666Y-54577857D01*
X212240476Y-54615952D01*
X211935714Y-54615952D01*
X212735714Y-54577857D02*
X213002380Y-54577857D01*
X213116666Y-54996904D02*
X212735714Y-54996904D01*
X212735714Y-54196904D01*
X213116666Y-54196904D01*
X213459523Y-54996904D02*
X213459523Y-54196904D01*
X213650000Y-54196904D01*
X213764285Y-54235000D01*
X213840476Y-54311190D01*
X213878571Y-54387380D01*
X213916666Y-54539761D01*
X213916666Y-54654047D01*
X213878571Y-54806428D01*
X213840476Y-54882619D01*
X213764285Y-54958809D01*
X213650000Y-54996904D01*
X213459523Y-54996904D01*
X214830952Y-54958809D02*
X214945238Y-54996904D01*
X215135714Y-54996904D01*
X215211904Y-54958809D01*
X215250000Y-54920714D01*
X215288095Y-54844523D01*
X215288095Y-54768333D01*
X215250000Y-54692142D01*
X215211904Y-54654047D01*
X215135714Y-54615952D01*
X214983333Y-54577857D01*
X214907142Y-54539761D01*
X214869047Y-54501666D01*
X214830952Y-54425476D01*
X214830952Y-54349285D01*
X214869047Y-54273095D01*
X214907142Y-54235000D01*
X214983333Y-54196904D01*
X215173809Y-54196904D01*
X215288095Y-54235000D01*
X215516666Y-54196904D02*
X215973809Y-54196904D01*
X215745238Y-54996904D02*
X215745238Y-54196904D01*
X216697619Y-54996904D02*
X216430952Y-54615952D01*
X216240476Y-54996904D02*
X216240476Y-54196904D01*
X216545238Y-54196904D01*
X216621428Y-54235000D01*
X216659523Y-54273095D01*
X216697619Y-54349285D01*
X216697619Y-54463571D01*
X216659523Y-54539761D01*
X216621428Y-54577857D01*
X216545238Y-54615952D01*
X216240476Y-54615952D01*
X217040476Y-54996904D02*
X217040476Y-54196904D01*
X217421428Y-54996904D02*
X217421428Y-54196904D01*
X217726190Y-54196904D01*
X217802380Y-54235000D01*
X217840476Y-54273095D01*
X217878571Y-54349285D01*
X217878571Y-54463571D01*
X217840476Y-54539761D01*
X217802380Y-54577857D01*
X217726190Y-54615952D01*
X217421428Y-54615952D01*
X218221428Y-54577857D02*
X218488095Y-54577857D01*
X218602380Y-54996904D02*
X218221428Y-54996904D01*
X218221428Y-54196904D01*
X218602380Y-54196904D01*
G04 #@! TO.C,J12*
X227392857Y-54996904D02*
X227126190Y-54615952D01*
X226935714Y-54996904D02*
X226935714Y-54196904D01*
X227240476Y-54196904D01*
X227316666Y-54235000D01*
X227354761Y-54273095D01*
X227392857Y-54349285D01*
X227392857Y-54463571D01*
X227354761Y-54539761D01*
X227316666Y-54577857D01*
X227240476Y-54615952D01*
X226935714Y-54615952D01*
X227735714Y-54577857D02*
X228002380Y-54577857D01*
X228116666Y-54996904D02*
X227735714Y-54996904D01*
X227735714Y-54196904D01*
X228116666Y-54196904D01*
X228459523Y-54996904D02*
X228459523Y-54196904D01*
X228650000Y-54196904D01*
X228764285Y-54235000D01*
X228840476Y-54311190D01*
X228878571Y-54387380D01*
X228916666Y-54539761D01*
X228916666Y-54654047D01*
X228878571Y-54806428D01*
X228840476Y-54882619D01*
X228764285Y-54958809D01*
X228650000Y-54996904D01*
X228459523Y-54996904D01*
X229830952Y-54958809D02*
X229945238Y-54996904D01*
X230135714Y-54996904D01*
X230211904Y-54958809D01*
X230250000Y-54920714D01*
X230288095Y-54844523D01*
X230288095Y-54768333D01*
X230250000Y-54692142D01*
X230211904Y-54654047D01*
X230135714Y-54615952D01*
X229983333Y-54577857D01*
X229907142Y-54539761D01*
X229869047Y-54501666D01*
X229830952Y-54425476D01*
X229830952Y-54349285D01*
X229869047Y-54273095D01*
X229907142Y-54235000D01*
X229983333Y-54196904D01*
X230173809Y-54196904D01*
X230288095Y-54235000D01*
X230516666Y-54196904D02*
X230973809Y-54196904D01*
X230745238Y-54996904D02*
X230745238Y-54196904D01*
X231697619Y-54996904D02*
X231430952Y-54615952D01*
X231240476Y-54996904D02*
X231240476Y-54196904D01*
X231545238Y-54196904D01*
X231621428Y-54235000D01*
X231659523Y-54273095D01*
X231697619Y-54349285D01*
X231697619Y-54463571D01*
X231659523Y-54539761D01*
X231621428Y-54577857D01*
X231545238Y-54615952D01*
X231240476Y-54615952D01*
X232040476Y-54996904D02*
X232040476Y-54196904D01*
X232421428Y-54996904D02*
X232421428Y-54196904D01*
X232726190Y-54196904D01*
X232802380Y-54235000D01*
X232840476Y-54273095D01*
X232878571Y-54349285D01*
X232878571Y-54463571D01*
X232840476Y-54539761D01*
X232802380Y-54577857D01*
X232726190Y-54615952D01*
X232421428Y-54615952D01*
X233221428Y-54577857D02*
X233488095Y-54577857D01*
X233602380Y-54996904D02*
X233221428Y-54996904D01*
X233221428Y-54196904D01*
X233602380Y-54196904D01*
G04 #@! TO.C,+12v*
X71055714Y-53611428D02*
X71817619Y-53611428D01*
X71436666Y-53992380D02*
X71436666Y-53230476D01*
X72817619Y-53992380D02*
X72246190Y-53992380D01*
X72531904Y-53992380D02*
X72531904Y-52992380D01*
X72436666Y-53135238D01*
X72341428Y-53230476D01*
X72246190Y-53278095D01*
X73198571Y-53087619D02*
X73246190Y-53040000D01*
X73341428Y-52992380D01*
X73579523Y-52992380D01*
X73674761Y-53040000D01*
X73722380Y-53087619D01*
X73770000Y-53182857D01*
X73770000Y-53278095D01*
X73722380Y-53420952D01*
X73150952Y-53992380D01*
X73770000Y-53992380D01*
X74103333Y-53325714D02*
X74341428Y-53992380D01*
X74579523Y-53325714D01*
G04 #@! TO.C,-12v*
X86055714Y-53611428D02*
X86817619Y-53611428D01*
X87817619Y-53992380D02*
X87246190Y-53992380D01*
X87531904Y-53992380D02*
X87531904Y-52992380D01*
X87436666Y-53135238D01*
X87341428Y-53230476D01*
X87246190Y-53278095D01*
X88198571Y-53087619D02*
X88246190Y-53040000D01*
X88341428Y-52992380D01*
X88579523Y-52992380D01*
X88674761Y-53040000D01*
X88722380Y-53087619D01*
X88770000Y-53182857D01*
X88770000Y-53278095D01*
X88722380Y-53420952D01*
X88150952Y-53992380D01*
X88770000Y-53992380D01*
X89103333Y-53325714D02*
X89341428Y-53992380D01*
X89579523Y-53325714D01*
G04 #@! TO.C,+5v*
X101531904Y-53611428D02*
X102293809Y-53611428D01*
X101912857Y-53992380D02*
X101912857Y-53230476D01*
X103246190Y-52992380D02*
X102770000Y-52992380D01*
X102722380Y-53468571D01*
X102770000Y-53420952D01*
X102865238Y-53373333D01*
X103103333Y-53373333D01*
X103198571Y-53420952D01*
X103246190Y-53468571D01*
X103293809Y-53563809D01*
X103293809Y-53801904D01*
X103246190Y-53897142D01*
X103198571Y-53944761D01*
X103103333Y-53992380D01*
X102865238Y-53992380D01*
X102770000Y-53944761D01*
X102722380Y-53897142D01*
X103627142Y-53325714D02*
X103865238Y-53992380D01*
X104103333Y-53325714D01*
G04 #@! TO.C,R1*
X72952380Y-63976666D02*
X72476190Y-64310000D01*
X72952380Y-64548095D02*
X71952380Y-64548095D01*
X71952380Y-64167142D01*
X72000000Y-64071904D01*
X72047619Y-64024285D01*
X72142857Y-63976666D01*
X72285714Y-63976666D01*
X72380952Y-64024285D01*
X72428571Y-64071904D01*
X72476190Y-64167142D01*
X72476190Y-64548095D01*
X72952380Y-63024285D02*
X72952380Y-63595714D01*
X72952380Y-63310000D02*
X71952380Y-63310000D01*
X72095238Y-63405238D01*
X72190476Y-63500476D01*
X72238095Y-63595714D01*
G04 #@! TO.C,R2*
X87952380Y-63976666D02*
X87476190Y-64310000D01*
X87952380Y-64548095D02*
X86952380Y-64548095D01*
X86952380Y-64167142D01*
X87000000Y-64071904D01*
X87047619Y-64024285D01*
X87142857Y-63976666D01*
X87285714Y-63976666D01*
X87380952Y-64024285D01*
X87428571Y-64071904D01*
X87476190Y-64167142D01*
X87476190Y-64548095D01*
X87047619Y-63595714D02*
X87000000Y-63548095D01*
X86952380Y-63452857D01*
X86952380Y-63214761D01*
X87000000Y-63119523D01*
X87047619Y-63071904D01*
X87142857Y-63024285D01*
X87238095Y-63024285D01*
X87380952Y-63071904D01*
X87952380Y-63643333D01*
X87952380Y-63024285D01*
G04 #@! TO.C,R3*
X102952380Y-63976666D02*
X102476190Y-64310000D01*
X102952380Y-64548095D02*
X101952380Y-64548095D01*
X101952380Y-64167142D01*
X102000000Y-64071904D01*
X102047619Y-64024285D01*
X102142857Y-63976666D01*
X102285714Y-63976666D01*
X102380952Y-64024285D01*
X102428571Y-64071904D01*
X102476190Y-64167142D01*
X102476190Y-64548095D01*
X101952380Y-63643333D02*
X101952380Y-63024285D01*
X102333333Y-63357619D01*
X102333333Y-63214761D01*
X102380952Y-63119523D01*
X102428571Y-63071904D01*
X102523809Y-63024285D01*
X102761904Y-63024285D01*
X102857142Y-63071904D01*
X102904761Y-63119523D01*
X102952380Y-63214761D01*
X102952380Y-63500476D01*
X102904761Y-63595714D01*
X102857142Y-63643333D01*
G04 #@! TD*
M02*
